<?xml version="1.0" standalone="no"?>
<!DOCTYPE svg PUBLIC "-//W3C//DTD SVG 1.1//EN" "http://www.w3.org/Graphics/SVG/1.1/DTD/svg11.dtd" >
<svg xmlns="http://www.w3.org/2000/svg">
<metadata></metadata>
<defs>
<font id="karbon_lightitalic" horiz-adv-x="389" >
<font-face units-per-em="2048" ascent="1393" descent="-655" />
<missing-glyph horiz-adv-x="500" />
<glyph unicode="&#xfb01;" horiz-adv-x="913" d="M319 836l-147 -836h-66l148 836h-129l10 57h129l45 254q23 128 100.5 195t188.5 67q121 0 197 -72l-15 -63q-76 76 -182 76q-188 0 -225 -211l-43 -246h504l-158 -893h-66l148 836h-439z" />
<glyph unicode="&#xfb02;" horiz-adv-x="913" d="M717 1372l-12 -61q-51 39 -127 39q-169 0 -205 -205l-43 -252h250l-11 -57h-250l-147 -836h-66l148 836h-129l10 57h129l45 260q22 125 90.5 190.5t178.5 65.5q83 0 139 -37zM922 1393l-246 -1393h-66l246 1393h66z" />
<glyph unicode="&#xfb03;" horiz-adv-x="1419" d="M758 836h-439l-147 -836h-66l148 836h-129l10 57h129l41 237q22 125 90 190.5t178 65.5q95 0 154 -49l-12 -59q-55 49 -142 49q-168 0 -204 -205l-39 -229h438l45 254q23 128 100.5 195t188.5 67q120 0 196 -72l-14 -63q-76 76 -182 76q-188 0 -225 -211l-43 -246h505 l-157 -893h-66l148 836h-441l-147 -836h-66z" />
<glyph unicode="&#xfb04;" horiz-adv-x="1419" d="M758 836h-439l-147 -836h-66l148 836h-129l10 57h129l41 237q22 125 90 190.5t178 65.5q95 0 154 -49l-12 -59q-55 49 -142 49q-168 0 -204 -205l-39 -229h438l45 260q22 125 90 190.5t178 65.5q84 0 140 -37l-13 -61q-51 39 -127 39q-168 0 -204 -205l-43 -252h249 l-10 -57h-250l-147 -836h-66zM1427 1393l-245 -1393h-66l246 1393h65z" />
<glyph horiz-adv-x="2048" />
<glyph horiz-adv-x="2048" />
<glyph unicode="&#xd;" horiz-adv-x="2048" />
<glyph unicode=" " />
<glyph unicode="!" horiz-adv-x="438" d="M391 1219l-153 -873h-66l154 873h65zM98 51q0 26 17.5 44t42.5 18q26 0 43.5 -18t17.5 -44q0 -25 -17.5 -42t-43.5 -17q-25 0 -42.5 17t-17.5 42z" />
<glyph unicode="&#x22;" horiz-adv-x="503" d="M201 936l100 383h64l-109 -383h-55zM375 936l100 383h64l-109 -383h-55z" />
<glyph unicode="#" horiz-adv-x="1009" d="M301 401l-151 -401h-64l152 401h-197l10 56h207l121 321h-205l8 56h217l146 383h63l-145 -383h274l146 383h63l-145 -383h194l-8 -56h-207l-121 -321h205l-10 -56h-215l-152 -401h-63l151 401h-274zM322 457h274l121 321h-275z" />
<glyph unicode="$" horiz-adv-x="878" d="M627 1393l-29 -168q74 -14 134.5 -52t96.5 -86l-16 -75q-85 125 -223 153l-92 -518q62 -36 99.5 -62.5t76 -67t56.5 -91.5t18 -117q0 -150 -101.5 -237.5t-255.5 -87.5h-10l-31 -179h-57l33 183q-96 13 -173.5 59.5t-117.5 108.5l16 71q115 -157 285 -180l98 563 q-50 28 -79.5 45.5t-67.5 48t-58.5 60t-35.5 72t-15 92.5q0 139 93.5 222t240.5 83h31l26 160h58zM485 580l-94 -537q127 0 208 71t81 195q0 66 -27.5 118.5t-66 84.5t-101.5 68zM446 676l86 498h-20q-121 0 -193.5 -65t-72.5 -181q0 -48 15 -86.5t46.5 -69t61.5 -51 t77 -45.5z" />
<glyph unicode="%" horiz-adv-x="1224" d="M872 -14q-108 0 -177.5 66t-69.5 171q0 125 84 206t196 81q108 0 178 -66.5t70 -171.5q0 -125 -84.5 -205.5t-196.5 -80.5zM872 43q90 0 154 62t64 167q0 80 -51 131.5t-134 51.5q-90 0 -153.5 -63.5t-63.5 -168.5q0 -80 50.5 -130t133.5 -50zM383 1233q108 0 178 -66.5 t70 -171.5q0 -125 -84.5 -205.5t-196.5 -80.5q-108 0 -178 66t-70 171q0 125 84.5 206t196.5 81zM383 1176q-90 0 -153.5 -62.5t-63.5 -167.5q0 -80 50.5 -131t133.5 -51q90 0 153.5 63t63.5 168q0 80 -50.5 130.5t-133.5 50.5zM1141 1217l-957 -1217h-69l956 1217h70z" />
<glyph unicode="&#x26;" horiz-adv-x="1099" d="M424 659l-14 19q-115 143 -115 264q0 130 82.5 210.5t208.5 80.5q122 0 194 -68.5t72 -173.5q0 -52 -19 -97.5t-47.5 -79.5t-76 -67.5t-90 -56.5t-103.5 -51l305 -381q105 135 150 320h61q-49 -215 -174 -367l170 -211h-76l-133 166q-174 -182 -405 -182 q-162 0 -255 83.5t-93 217.5q0 56 18.5 104.5t47.5 84.5t78 70.5t97 59.5t117 55zM782 213l-321 401q-70 -32 -108.5 -51t-86.5 -50.5t-72.5 -61t-41.5 -72.5t-17 -94q0 -109 76 -176.5t203 -67.5q209 0 368 172zM457 713l22 -29q58 26 94 43.5t81 47t70.5 58t43.5 70 t18 88.5q0 77 -55 131t-145 54q-101 0 -163.5 -64t-62.5 -170q0 -104 97 -229z" />
<glyph unicode="'" horiz-adv-x="329" d="M201 936l100 383h64l-109 -383h-55z" />
<glyph unicode="(" horiz-adv-x="606" d="M436 -283h-76q-125 136 -196.5 292.5t-71.5 361.5q0 161 43 312t122 278t175.5 232.5t216.5 199.5h86q-104 -82 -189 -165t-159 -182t-124 -202.5t-78.5 -224t-28.5 -248.5q0 -204 73.5 -357.5t206.5 -296.5z" />
<glyph unicode=")" horiz-adv-x="606" d="M213 1393h76q125 -136 196.5 -292.5t71.5 -361.5q0 -161 -43 -312t-122 -278t-175.5 -232.5t-216.5 -199.5h-86q131 103 232.5 210.5t182 234t123 272.5t42.5 305q0 107 -21.5 202t-62.5 175.5t-87.5 144.5t-109.5 132z" />
<glyph unicode="*" horiz-adv-x="620" d="M418 1085l-170 -149l-35 37l174 149l-199 119l25 43l199 -119l47 228l53 -13l-53 -225l229 25l6 -54l-231 -18l96 -211l-49 -20z" />
<glyph unicode="+" horiz-adv-x="890" d="M422 569h-332l10 60h334l58 334h59l-57 -334h333l-10 -60h-336l-57 -333h-59z" />
<glyph unicode="," horiz-adv-x="407" d="M160 133h76q-18 -117 -88.5 -231.5t-149.5 -163.5h-57q78 63 138.5 170t80.5 225z" />
<glyph unicode="-" horiz-adv-x="727" d="M111 506l12 59h514l-12 -59h-514z" />
<glyph unicode="." horiz-adv-x="407" d="M96 53q0 25 16.5 41.5t41.5 16.5t41 -16.5t16 -41.5t-16 -41t-41 -16t-41.5 16t-16.5 41z" />
<glyph unicode="/" horiz-adv-x="829" d="M-53 -283l936 1676h69l-936 -1676h-69z" />
<glyph unicode="0" horiz-adv-x="1056" d="M471 -16q-176 0 -273.5 134.5t-97.5 356.5q0 210 72 385t194 274t265 99q176 0 273 -135t97 -357q0 -211 -72 -385.5t-193.5 -273t-264.5 -98.5zM631 1174q-124 0 -229.5 -91.5t-168.5 -253t-63 -354.5q0 -194 80.5 -313t220.5 -119q124 0 229.5 91t168.5 252.5t63 354.5 q0 194 -80.5 313.5t-220.5 119.5z" />
<glyph unicode="1" horiz-adv-x="575" d="M125 1100l12 63l361 68l-217 -1231h-66l203 1155z" />
<glyph unicode="2" horiz-adv-x="856" d="M51 59h649l-10 -59h-749l10 53q794 514 794 889q0 104 -58.5 166.5t-168.5 62.5q-191 0 -377 -186l17 88q163 160 360 160q146 0 221.5 -76.5t75.5 -214.5q0 -106 -61 -224.5t-168 -232.5t-241.5 -221t-293.5 -205z" />
<glyph unicode="3" horiz-adv-x="813" d="M150 1001l16 86q142 146 336 146q141 0 215 -73.5t74 -188.5q0 -96 -55.5 -175.5t-135.5 -123.5t-168 -56q117 -11 200 -84.5t83 -191.5q0 -158 -117 -257t-301 -99q-105 0 -190 32.5t-127 85.5l10 68q116 -129 307 -129q155 0 252.5 82.5t97.5 216.5q0 110 -87.5 176.5 t-240.5 77.5l9 45q103 10 191 51t145 114.5t57 164.5q0 88 -56 145t-163 57q-185 0 -352 -170z" />
<glyph unicode="4" horiz-adv-x="1032" d="M893 1223l-143 -820h231l-10 -57h-232l-61 -346h-64l62 346h-645l10 57l776 820h76zM817 1143l-700 -740h569z" />
<glyph unicode="5" horiz-adv-x="808" d="M358 1155l-100 -414q75 -10 139 -28t123.5 -49t101 -73t66.5 -102t25 -133q0 -75 -27 -142t-78.5 -118.5t-131.5 -81.5t-179 -30q-104 0 -191 36.5t-131 90.5l13 65q121 -135 309 -135q166 0 257 88t91 227q0 80 -37 141.5t-104 100t-145 61.5t-175 35l127 523h525 l-11 -62h-467z" />
<glyph unicode="6" horiz-adv-x="956" d="M674 1217h80l-392 -449l-122 -119q52 52 120.5 78.5t137.5 26.5q162 0 267 -101.5t105 -261.5q0 -179 -117 -293t-298 -114q-171 0 -276 100.5t-105 263.5q0 63 17 121.5t52.5 115.5t65.5 95.5t80 95.5zM487 694q-146 0 -247 -97t-101 -249q0 -137 89 -222t227 -85 q150 0 249 97.5t99 250.5q0 137 -88.5 221t-227.5 84z" />
<glyph unicode="7" horiz-adv-x="802" d="M784 1155h-663l12 62h735l-10 -62l-745 -1155h-74z" />
<glyph unicode="8" horiz-adv-x="931" d="M444 -16q-168 0 -276.5 86.5t-108.5 234.5q0 151 103 246t246 100q-79 26 -134 93t-55 167q0 147 99.5 234.5t240.5 87.5q136 0 225.5 -79.5t89.5 -213.5q0 -129 -79 -210t-193 -95q106 -26 174 -104.5t68 -188.5q0 -111 -56.5 -194t-146 -123.5t-197.5 -40.5zM535 672 q114 0 193 73.5t79 194.5q0 105 -72 170.5t-176 65.5q-115 0 -193.5 -71.5t-78.5 -193.5q0 -104 72.5 -171.5t175.5 -67.5zM444 41q88 0 162 33t122 103t48 165q0 121 -90.5 195.5t-226.5 74.5q-88 0 -162 -33.5t-122 -105t-48 -168.5q0 -118 90 -191t227 -73z" />
<glyph unicode="9" horiz-adv-x="956" d="M311 0h-80l392 449l122 118q-52 -52 -120 -78t-138 -26q-162 0 -267 101t-105 261q0 179 117 293.5t298 114.5q171 0 276 -101t105 -264q0 -63 -17 -121.5t-52.5 -115.5t-65.5 -95.5t-80 -95.5zM498 522q146 0 247 97t101 249q0 137 -89 222.5t-227 85.5q-150 0 -249 -98 t-99 -251q0 -137 88.5 -221t227.5 -84z" />
<glyph unicode=":" horiz-adv-x="407" d="M96 53q0 25 16.5 41.5t41.5 16.5t41 -16.5t16 -41.5t-16 -41t-41 -16t-41.5 16t-16.5 41zM225 793q0 25 16.5 41t41.5 16t41 -16t16 -41t-16 -41.5t-41 -16.5t-41.5 16.5t-16.5 41.5z" />
<glyph unicode=";" horiz-adv-x="407" d="M160 133h76q-18 -117 -88.5 -231.5t-149.5 -163.5h-57q78 63 138.5 170t80.5 225zM225 793q0 25 16.5 41t41.5 16t41 -16t16 -41t-16 -41.5t-41 -16.5t-41.5 16.5t-16.5 41.5z" />
<glyph unicode="&#x3c;" horiz-adv-x="653" d="M84 592l2 8l588 326l-12 -72l-476 -262l385 -262l-14 -64z" />
<glyph unicode="=" horiz-adv-x="901" d="M82 449l10 59h729l-10 -59h-729zM125 694l10 60h729l-10 -60h-729z" />
<glyph unicode="&#x3e;" horiz-adv-x="653" d="M618 600l-2 -8l-587 -326l12 72l475 262l-385 262l14 64z" />
<glyph unicode="?" horiz-adv-x="782" d="M154 1022l14 84q127 127 311 127q148 0 231 -84.5t83 -214.5q0 -74 -24 -136.5t-62.5 -106t-97.5 -81t-118 -62t-135 -48.5l-28 -154h-66l37 193q99 31 167 60.5t131.5 75.5t95.5 110.5t32 148.5q0 101 -67 169t-183 68q-175 0 -321 -149zM195 51q0 26 17 44t42 18 q26 0 43.5 -18t17.5 -44q0 -25 -17.5 -42t-43.5 -17q-25 0 -42 17t-17 42z" />
<glyph unicode="@" horiz-adv-x="1576" d="M1169 764l-116 -651q80 18 148 57t123 99.5t86.5 149.5t31.5 197q0 227 -151.5 366.5t-409.5 139.5q-158 0 -292.5 -55.5t-226.5 -152t-144 -229.5t-52 -286q0 -137 42.5 -247.5t112 -182t161.5 -120t187 -69t193 -20.5q244 0 426 84l-4 -59q-167 -80 -422 -80 q-108 0 -211.5 22.5t-203.5 75t-175.5 130.5t-121.5 198t-46 268q0 162 56.5 305.5t157 248t246.5 165t317 60.5q288 0 454 -154.5t166 -407.5q0 -137 -49.5 -248t-136.5 -182.5t-202 -110t-249 -38.5q-194 0 -309 102.5t-115 278.5q0 188 119 303t318 115q79 0 159.5 -20.5 t132.5 -51.5zM993 102l115 627q-100 49 -234 49q-171 0 -272.5 -97t-101.5 -263q0 -156 102.5 -242t263.5 -86q54 0 127 12z" />
<glyph unicode="A" horiz-adv-x="1153" d="M985 0l-86 362h-659l-213 -362h-74l717 1217h92l293 -1217h-70zM709 1159l-437 -739h615z" />
<glyph unicode="B" horiz-adv-x="997" d="M117 20l209 1197q128 16 235 16q172 0 270.5 -76t98.5 -215q0 -78 -30.5 -139.5t-80 -98.5t-105.5 -57t-114 -24q129 -13 210 -83.5t81 -197.5q0 -170 -132.5 -263t-359.5 -93q-156 0 -282 34zM283 590l-90 -522q102 -25 206 -25q201 0 312.5 76t111.5 223 q0 125 -91.5 186.5t-262.5 61.5h-186zM385 1167l-92 -518h178q79 0 146.5 16.5t123.5 50t88.5 91.5t32.5 135q0 112 -80 173t-221 61q-90 0 -176 -9z" />
<glyph unicode="C" horiz-adv-x="1198" d="M1178 1092l-15 -76q-68 71 -167 112t-208 41q-179 0 -313.5 -83t-203 -223.5t-68.5 -317.5q0 -228 139 -364t354 -136q223 0 389 125l-12 -82q-155 -104 -377 -104q-250 0 -406.5 153.5t-156.5 407.5q0 197 81.5 353.5t231.5 245.5t342 89q117 0 219 -38.5t171 -102.5z " />
<glyph unicode="D" horiz-adv-x="1277" d="M119 27l209 1190q125 16 247 16q138 0 252.5 -34.5t199.5 -102t132 -174t47 -242.5q0 -144 -41 -261t-112.5 -196.5t-171 -133.5t-213 -78.5t-242.5 -24.5q-195 0 -307 41zM387 1161l-190 -1087q96 -29 229 -29q152 0 278 36.5t225 110.5t154.5 198.5t55.5 289.5 q0 120 -42 214.5t-118 154.5t-178.5 91t-225.5 31q-112 0 -188 -10z" />
<glyph unicode="E" horiz-adv-x="980" d="M190 61h613l-10 -61h-680l213 1217h671l-10 -62h-604l-88 -500h571l-10 -61h-571z" />
<glyph unicode="F" horiz-adv-x="890" d="M180 0h-67l213 1217h616l-10 -62h-549l-90 -514h504l-13 -61h-503z" />
<glyph unicode="G" horiz-adv-x="1253" d="M1178 1100l-15 -80q-60 67 -160.5 108t-214.5 41q-179 0 -313.5 -83t-203 -223.5t-68.5 -317.5q0 -225 138.5 -362.5t358.5 -137.5q183 0 320 80l72 403h67l-78 -444q-163 -100 -381 -100q-256 0 -411.5 156t-155.5 405q0 199 83 356t232.5 244.5t339.5 87.5 q116 0 218 -36t172 -97z" />
<glyph unicode="H" horiz-adv-x="1345" d="M1300 1217l-213 -1217h-67l104 594h-839l-105 -594h-67l213 1217h67l-98 -562h840l98 562h67z" />
<glyph unicode="I" horiz-adv-x="438" d="M393 1217l-213 -1217h-67l213 1217h67z" />
<glyph unicode="J" horiz-adv-x="747" d="M14 119l17 84q40 -73 102 -116.5t137 -43.5q109 0 167.5 67t80.5 189l162 918h68l-164 -930q-27 -146 -106 -224.5t-208 -78.5q-82 0 -151 39t-105 96z" />
<glyph unicode="K" horiz-adv-x="1026" d="M307 608l723 609h92l-725 -611l566 -606h-89l-567 606v2zM397 1217l-213 -1217h-67l213 1217h67z" />
<glyph unicode="L" horiz-adv-x="882" d="M113 0l213 1217h67l-203 -1156h574l-10 -61h-641z" />
<glyph unicode="M" horiz-adv-x="1603" d="M768 0h-78l-194 1145l-398 -1145h-69l426 1217h92l192 -1145l602 1145h93l-4 -1217h-68l6 1143z" />
<glyph unicode="N" horiz-adv-x="1312" d="M395 1217l609 -1121l196 1121h68l-213 -1217h-66l-612 1122l-197 -1122h-67l213 1217h69z" />
<glyph unicode="O" horiz-adv-x="1415" d="M692 -16q-247 0 -403 153.5t-156 403.5q0 141 46 267t129 220.5t206.5 149.5t269.5 55q246 0 402.5 -154.5t156.5 -404.5q0 -189 -78.5 -345.5t-228.5 -250.5t-344 -94zM692 47q174 0 307.5 84t204 226t70.5 317q0 220 -135.5 357.5t-354.5 137.5q-174 0 -307.5 -84.5 t-203.5 -227t-70 -316.5q0 -221 135.5 -357.5t353.5 -136.5z" />
<glyph unicode="P" horiz-adv-x="929" d="M266 494l-86 -494h-67l213 1214q131 19 215 19q197 0 298 -89t101 -251q0 -136 -69.5 -231t-183.5 -139t-261 -44q-82 0 -160 15zM385 1165l-109 -616q62 -12 152 -12q96 0 175 21t139.5 63.5t94 111.5t33.5 160q0 135 -83.5 208t-247.5 73q-62 0 -154 -9z" />
<glyph unicode="Q" horiz-adv-x="1415" d="M897 -279l-207 263q-245 0 -401 153.5t-156 403.5q0 141 46 267t129 220.5t206.5 149.5t269.5 55q246 0 402.5 -154.5t156.5 -404.5q-7 -252 -126 -424q-76 -112 -193.5 -180t-253.5 -80l213 -269h-86zM692 47q174 0 307.5 84t204 226t70.5 317q0 220 -135.5 357.5 t-354.5 137.5q-174 0 -307.5 -84.5t-203.5 -227t-70 -316.5q0 -221 135.5 -357.5t353.5 -136.5z" />
<glyph unicode="R" horiz-adv-x="1021" d="M268 498l-88 -498h-67l213 1217q96 14 196 14q204 0 310 -91.5t106 -246.5q0 -90 -32.5 -162.5t-89 -118t-126 -72t-149.5 -34.5l356 -506h-78l-350 498h-201zM385 1165l-106 -608h180q84 0 156 19t129.5 58t90.5 105t33 154q0 129 -91 205t-255 76q-45 0 -137 -9z" />
<glyph unicode="S" horiz-adv-x="878" d="M840 1087l-17 -75q-50 72 -127 117t-174 45q-121 0 -193.5 -65t-72.5 -181q0 -41 13.5 -76t30.5 -59t51.5 -49.5t58 -39.5t67.5 -38q42 -23 65 -37t57.5 -37t53.5 -41t42 -45.5t35 -55t20 -64t8 -77.5q0 -150 -101.5 -237.5t-255.5 -87.5q-117 0 -213 49.5t-143 122.5 l16 71q133 -184 340 -184q127 0 208 71t81 195q0 46 -14 86t-33 66.5t-56.5 56t-64.5 46t-78 44.5q-51 29 -79.5 46.5t-67.5 48.5t-59 60.5t-35 72t-15 92.5q0 139 93.5 222t240.5 83q104 0 187.5 -42t130.5 -104z" />
<glyph unicode="T" horiz-adv-x="970" d="M643 1155l-203 -1155h-67l202 1155h-430l11 62h927l-8 -62h-432z" />
<glyph unicode="U" horiz-adv-x="1228" d="M143 416l142 801h67l-139 -801q-10 -62 -10 -109q0 -76 29.5 -129t84 -81.5t120 -41t149.5 -12.5q165 0 332 41l198 1133h68l-207 -1182q-213 -51 -391 -51q-102 0 -181 16t-142 52t-96.5 100.5t-33.5 154.5q0 44 10 109z" />
<glyph unicode="V" horiz-adv-x="1142" d="M522 0h-84l-272 1217h65l258 -1149l693 1149h73z" />
<glyph unicode="W" horiz-adv-x="1546" d="M879 1217h71l121 -1154l514 1154h70l-547 -1217h-92l-117 1122l-516 -1122h-92l-119 1217h66l110 -1154z" />
<glyph unicode="X" horiz-adv-x="1036" d="M211 1217h74l282 -533l467 533h80l-516 -586l340 -631h-74l-315 586l-518 -586h-82l571 641z" />
<glyph unicode="Y" horiz-adv-x="1019" d="M532 557l523 660h80l-578 -725l-86 -492h-68l86 494l-323 723h74z" />
<glyph unicode="Z" horiz-adv-x="985" d="M219 1155l10 62h822l-9 -58l-964 -1098h788l-10 -61h-870l8 57l962 1098h-737z" />
<glyph unicode="[" horiz-adv-x="626" d="M442 1337l-276 -1566h270l-10 -54h-328l295 1676h328l-8 -56h-271z" />
<glyph unicode="\" horiz-adv-x="802" d="M301 1393l358 -1676h-61l-358 1676h61z" />
<glyph unicode="]" horiz-adv-x="630" d="M238 -227l276 1566h-270l10 54h328l-295 -1676h-328l8 56h271z" />
<glyph unicode="^" horiz-adv-x="757" d="M551 1217l207 -494h-70l-178 434l-330 -434h-78l377 494h72z" />
<glyph unicode="_" horiz-adv-x="884" d="M-12 -233l10 55h680l-10 -55h-680z" />
<glyph unicode="`" horiz-adv-x="1024" d="M602 1051h-59l-123 311h65z" />
<glyph unicode="a" horiz-adv-x="845" d="M207 774l10 66q54 29 133 49t146 20q121 0 180 -53.5t59 -163.5q0 -30 -6 -71l-104 -605q-120 -32 -230 -32q-154 0 -251 64t-97 183q0 77 40.5 133.5t111.5 87t151.5 44.5t175.5 14h121l19 113q6 60 6 65q0 84 -43 124t-137 40q-146 0 -285 -78zM637 453h-111 q-411 0 -411 -222q0 -90 79.5 -141t200.5 -51q73 0 172 22z" />
<glyph unicode="b" horiz-adv-x="1019" d="M326 1393h65l-96 -545q46 26 114.5 43.5t133.5 17.5q175 0 282 -110t107 -299q0 -228 -137 -372t-375 -144q-95 0 -181.5 28t-144.5 68zM283 786l-117 -675q43 -28 112.5 -49t141.5 -21q210 0 327 126t117 333q0 157 -87.5 254.5t-233.5 97.5q-135 0 -260 -66z" />
<glyph unicode="c" horiz-adv-x="901" d="M772 129l-12 -76q-51 -33 -123.5 -51t-144.5 -18q-181 0 -292.5 118.5t-111.5 300.5q0 227 137 366.5t336 139.5q176 0 285 -112l-17 -68q-108 121 -268 121q-174 0 -289.5 -122t-115.5 -325q0 -155 91.5 -257.5t244.5 -102.5q157 0 280 86z" />
<glyph unicode="d" horiz-adv-x="1019" d="M1030 1393l-237 -1354q-118 -55 -273 -55q-192 0 -312 111t-120 302q0 219 138.5 365.5t357.5 146.5q154 0 280 -82l101 566h65zM735 82l119 686q-117 84 -270 84q-189 0 -308.5 -127.5t-119.5 -327.5q0 -164 100 -260t264 -96q131 0 215 41z" />
<glyph unicode="e" horiz-adv-x="933" d="M782 127l-10 -70q-115 -73 -280 -73q-185 0 -294.5 117t-109.5 298q0 139 57 255.5t161 185.5t233 69q73 0 130 -19.5t92.5 -51.5t59 -77t32.5 -91t9 -97q0 -73 -14 -108h-690q-4 -27 -4 -66q0 -156 92 -256t246 -100q161 0 290 84zM168 520h627q4 23 4 53 q0 56 -13.5 104t-43 88.5t-81.5 63.5t-122 23q-136 0 -238 -92.5t-133 -239.5z" />
<glyph unicode="f" horiz-adv-x="522" d="M319 836l-147 -836h-66l148 836h-129l10 57h129l45 260q22 125 90.5 190.5t180.5 65.5q97 0 159 -51l-12 -60q-59 52 -147 52q-86 0 -137 -49.5t-70 -155.5l-43 -252h250l-11 -57h-250z" />
<glyph unicode="g" horiz-adv-x="1011" d="M78 -285l12 64q126 -107 287 -107q139 0 224.5 72t113.5 233l10 60q-95 -53 -221 -53q-181 0 -298.5 110.5t-117.5 294.5q0 228 138 374t376 146q95 0 181.5 -28t144.5 -68l-150 -850q-34 -187 -136 -267.5t-265 -80.5q-95 0 -173 28.5t-126 71.5zM737 98l119 684 q-43 28 -112.5 49t-141.5 21q-209 0 -327.5 -128t-118.5 -335q0 -155 97.5 -251.5t250.5 -96.5q125 0 233 57z" />
<glyph unicode="h" horiz-adv-x="1013" d="M780 0h-65l96 541q12 77 12 121q0 186 -225 186q-82 0 -149.5 -15.5t-157.5 -46.5l-139 -786h-66l246 1393h65l-96 -547q169 63 297 63q140 0 215.5 -58.5t75.5 -178.5q0 -58 -12 -129z" />
<glyph unicode="i" d="M309 893l-157 -893h-66l158 893h65zM324 1098q-24 0 -41 16.5t-17 38.5q0 25 16.5 41t41.5 16q23 0 39 -16t16 -41q0 -22 -16 -38.5t-39 -16.5z" />
<glyph unicode="j" d="M324 1098q-24 0 -41 16.5t-17 38.5q0 25 16.5 41t41.5 16q23 0 39 -16t16 -41q0 -22 -16 -38.5t-39 -16.5zM-258 -328l14 60q22 -25 61 -42.5t77 -17.5q70 0 109 39t56 137l185 1045h65l-184 -1049q-20 -119 -75 -174t-156 -55q-44 0 -87 16.5t-65 40.5z" />
<glyph unicode="k" horiz-adv-x="878" d="M713 0l-459 500l555 393h100l-565 -399l453 -494h-84zM397 1393l-245 -1393h-66l246 1393h65z" />
<glyph unicode="l" d="M397 1393l-245 -1393h-66l246 1393h65z" />
<glyph unicode="m" horiz-adv-x="1538" d="M731 0h-65l96 541q12 61 12 129q0 91 -48.5 135.5t-150.5 44.5q-121 0 -284 -59l-139 -791h-66l145 831q204 78 353 78q151 0 213 -80q192 80 348 80q144 0 206 -59.5t62 -179.5q0 -56 -12 -127l-96 -543h-68l98 541q13 83 13 129q0 91 -49.5 135.5t-153.5 44.5 q-79 0 -166.5 -20t-155.5 -50q17 -44 17 -110q0 -44 -13 -127z" />
<glyph unicode="n" horiz-adv-x="1013" d="M780 0h-65l96 541q12 74 12 121q0 99 -60.5 142.5t-174.5 43.5q-132 0 -297 -57l-139 -791h-66l145 831q111 39 191.5 58.5t165.5 19.5q301 0 301 -237q0 -58 -12 -129z" />
<glyph unicode="o" horiz-adv-x="1044" d="M487 -16q-181 0 -290 116.5t-109 300.5q0 137 56.5 252t165 185.5t247.5 70.5q181 0 290 -116.5t109 -300.5q0 -137 -56.5 -252t-165 -185.5t-247.5 -70.5zM487 41q178 0 290 130t112 321q0 155 -91 257.5t-241 102.5q-178 0 -289.5 -130t-111.5 -321q0 -155 91 -257.5 t240 -102.5z" />
<glyph unicode="p" horiz-adv-x="1024" d="M18 -369l213 1211q147 67 297 67q192 0 300 -110.5t108 -302.5q0 -220 -139 -366t-367 -146q-77 0 -150 21.5t-120 51.5l-76 -426h-66zM291 803l-121 -686q42 -30 119 -53t141 -23q200 0 319 127t119 328q0 162 -91 259t-249 97q-126 0 -237 -49z" />
<glyph unicode="q" horiz-adv-x="1009" d="M719 -369h-66l72 406q-95 -53 -221 -53q-181 0 -298.5 110.5t-117.5 294.5q0 228 138 374t376 146q95 0 181.5 -28t144.5 -68zM737 98l119 684q-43 28 -112.5 49t-141.5 21q-209 0 -327.5 -128t-118.5 -335q0 -155 97.5 -251.5t250.5 -96.5q125 0 233 57z" />
<glyph unicode="r" horiz-adv-x="630" d="M668 885l-13 -62q-55 19 -123 19q-133 0 -243 -58l-137 -784h-66l145 825q133 78 301 78q78 0 136 -18z" />
<glyph unicode="s" horiz-adv-x="718" d="M37 98l12 70q46 -55 118 -91t146 -36q94 0 154.5 48.5t60.5 141.5q0 36 -14 65t-43 52.5t-56.5 39.5t-70.5 36q-49 24 -78.5 41t-65.5 47t-53.5 69t-17.5 89q0 106 74 172.5t196 66.5q76 0 142.5 -27t107.5 -71l-12 -68q-98 109 -238 109q-95 0 -149.5 -49t-54.5 -133 q0 -36 14.5 -65.5t44 -53t56 -39t67.5 -35.5q53 -25 81 -41.5t65 -46.5t54 -69t17 -89q0 -115 -80.5 -181t-200.5 -66q-88 0 -162.5 32.5t-113.5 81.5z" />
<glyph unicode="t" horiz-adv-x="612" d="M109 836l10 57h129l37 205h65l-37 -205h267l-11 -57h-266l-106 -598q-11 -80 -11 -95q0 -102 121 -102q81 0 189 55l-13 -63q-90 -49 -184 -49q-80 0 -129 36.5t-49 114.5q0 37 10 92l107 609h-129z" />
<glyph unicode="u" horiz-adv-x="987" d="M217 893h66l-97 -547q-12 -64 -12 -108q0 -100 73 -148.5t202 -48.5q140 0 260 35l143 817h66l-152 -864q-161 -45 -317 -45q-162 0 -252.5 61t-90.5 186q0 41 15 121z" />
<glyph unicode="v" horiz-adv-x="870" d="M115 893h63l166 -827l496 827h71l-538 -893h-76z" />
<glyph unicode="w" horiz-adv-x="1290" d="M745 893l107 -830l405 830h70l-442 -893h-82l-103 811l-407 -811h-82l-96 893h65l84 -830l416 830h65z" />
<glyph unicode="x" horiz-adv-x="851" d="M877 893l-408 -438l281 -455h-72l-252 414l-385 -414h-82l438 461l-262 432h72l233 -391l355 391h82z" />
<glyph unicode="y" horiz-adv-x="880" d="M176 893l174 -850l496 850h72l-748 -1262h-70l205 338l-192 924h63z" />
<glyph unicode="z" horiz-adv-x="796" d="M676 57l-8 -57h-670l8 55l715 781h-549l10 57h627l-10 -55l-713 -781h590z" />
<glyph unicode="{" horiz-adv-x="669" d="M469 1110l-55 -324q-20 -107 -81.5 -166.5t-125.5 -64.5q51 -5 90 -49t39 -123q0 -56 -35 -233.5t-35 -223.5q0 -79 41.5 -117t130.5 -38h37l-8 -54h-35q-223 0 -223 199q0 55 35 233.5t35 229.5q0 75 -39 112t-101 37h-65l8 54h65q71 0 129.5 50.5t77.5 155.5l56 322 q26 141 100 212t211 71h41l-10 -54h-37q-109 0 -167 -57.5t-79 -171.5z" />
<glyph unicode="|" horiz-adv-x="452" d="M70 -283l295 1676h61l-295 -1676h-61z" />
<glyph unicode="}" horiz-adv-x="669" d="M244 0l55 324q20 107 81.5 166.5t125.5 64.5q-51 5 -90 49t-39 123q0 56 34.5 233.5t34.5 223.5q0 79 -41.5 117t-130.5 38h-36l8 54h35q223 0 223 -199q0 -55 -35 -233.5t-35 -229.5q0 -75 39 -112t100 -37h66l-8 -54h-66q-71 0 -129.5 -50.5t-77.5 -155.5l-55 -322 q-26 -141 -100 -212t-211 -71h-41l10 54h37q109 0 167 57.5t79 171.5z" />
<glyph unicode="~" horiz-adv-x="821" d="M686 623h62q-15 -89 -65.5 -141t-127.5 -52q-35 0 -65 14.5t-52 35t-42.5 41.5t-46 35.5t-52.5 14.5q-49 0 -82.5 -37t-44.5 -98h-61q15 89 66.5 141t127.5 52q34 0 64 -15t51.5 -36t42 -42t45.5 -36t53 -15q50 0 83 37.5t44 100.5z" />
<glyph unicode="&#xa0;" />
<glyph unicode="&#xa1;" horiz-adv-x="438" d="M68 -346l153 872h66l-154 -872h-65zM360 821q0 -26 -17 -43.5t-42 -17.5q-26 0 -43.5 17.5t-17.5 43.5q0 25 17.5 42.5t43.5 17.5q25 0 42 -17.5t17 -42.5z" />
<glyph unicode="&#xa2;" horiz-adv-x="862" d="M600 834l-137 -791h18q158 0 281 86l-12 -76q-51 -33 -123.5 -51t-145.5 -18h-28l-31 -179h-55l32 185q-147 26 -234 137t-87 270q0 114 37.5 209t101.5 158t149.5 98t182.5 35h8l35 184h55l-35 -188q133 -17 222 -109l-17 -67q-93 104 -217 117zM410 49l137 789 q-175 -2 -288.5 -121t-113.5 -320q0 -134 71 -229t194 -119z" />
<glyph unicode="&#xa3;" horiz-adv-x="905" d="M231 561h-155l10 55h156l41 234q33 185 123 284t233 99q93 0 157.5 -30.5t98.5 -78.5l-14 -73q-79 120 -242 120q-236 0 -293 -321l-41 -234h334l-10 -55h-334l-21 -119q-25 -140 -76 -227t-139 -156h697l-11 -59h-774l11 59q98 74 151.5 161t77.5 222z" />
<glyph unicode="&#xa4;" horiz-adv-x="1044" d="M870 219l-108 123q-101 -82 -240 -82q-137 0 -229 82l-148 -131l-39 45l146 131q-66 87 -66 209q0 162 109 274l-113 129l49 41l111 -127q104 74 231 74q145 0 242 -94l146 129l38 -45l-147 -129q57 -85 57 -197q0 -153 -102 -270l115 -121zM522 311q136 0 231 97.5 t95 242.5q0 124 -78 204.5t-197 80.5q-136 0 -230.5 -97.5t-94.5 -242.5q0 -124 77.5 -204.5t196.5 -80.5z" />
<glyph unicode="&#xa5;" horiz-adv-x="976" d="M420 563l-273 654h70l258 -633l479 633h76l-502 -654h265l-11 -53h-284l-27 -148h287l-10 -53h-287l-53 -309h-66l53 309h-284l10 53h285l26 148h-287l11 53h264z" />
<glyph unicode="&#xa6;" horiz-adv-x="452" d="M225 604l140 789h61l-139 -789h-62zM70 -283l123 699h61l-123 -699h-61z" />
<glyph unicode="&#xa7;" horiz-adv-x="825" d="M758 1135l-13 -68q-94 104 -237 104q-96 0 -150.5 -44.5t-54.5 -125.5q0 -69 48.5 -117t170.5 -122q145 -88 196.5 -150.5t51.5 -162.5q0 -96 -68.5 -164t-177.5 -82q103 -80 103 -191q0 -104 -74 -166.5t-197 -62.5q-76 0 -142.5 26.5t-107.5 69.5l13 68 q95 -105 237 -105q96 0 150.5 44.5t54.5 125.5q0 37 -13 67t-45 59.5t-65.5 52.5t-95.5 61q-145 88 -196.5 150.5t-51.5 162.5q0 96 68.5 164t177.5 82q-102 79 -102 190q0 104 73.5 167t196.5 63q76 0 142.5 -26.5t107.5 -69.5zM371 303l100 -61q105 9 170.5 62.5 t65.5 144.5q0 73 -46 130.5t-167 131.5l-101 61q-105 -9 -170 -62.5t-65 -144.5q0 -73 46 -130.5t167 -131.5z" />
<glyph unicode="&#xa8;" horiz-adv-x="1024" d="M360 1098q-22 0 -38.5 15.5t-16.5 39.5t16.5 39.5t38.5 15.5q23 0 39.5 -15.5t16.5 -39.5t-16.5 -39.5t-39.5 -15.5zM664 1098q-23 0 -39.5 15.5t-16.5 39.5t16.5 39.5t39.5 15.5q22 0 38.5 -15.5t16.5 -39.5t-16.5 -39.5t-38.5 -15.5z" />
<glyph unicode="&#xa9;" horiz-adv-x="1429" d="M696 -16q-168 0 -301 75.5t-206.5 207.5t-73.5 296q0 185 86.5 339t238 242.5t334.5 88.5q168 0 301.5 -76t207 -208t73.5 -296q0 -138 -51 -262t-138.5 -213.5t-210.5 -141.5t-260 -52zM696 29q170 0 311 83t221.5 226t80.5 315q0 229 -151 382t-384 153 q-127 0 -241 -49t-195 -132.5t-128.5 -199t-47.5 -244.5q0 -229 150.5 -381.5t383.5 -152.5zM1020 905l-12 -63q-41 42 -105 67t-131 25q-154 0 -246 -104t-92 -261q0 -133 81 -211.5t204 -78.5q62 0 129.5 19.5t116.5 55.5l-11 -65q-100 -68 -233 -68q-154 0 -251 94.5 t-97 253.5q0 185 112.5 304.5t292.5 119.5q147 0 242 -88z" />
<glyph unicode="&#xaa;" horiz-adv-x="634" d="M219 1110l10 68q43 23 106.5 39t117.5 16q202 0 202 -178q0 -27 -6 -64l-80 -465q-98 -26 -196 -26q-124 0 -201.5 50t-77.5 146q0 62 33 108t89.5 71t122 37t140.5 12h92l11 55q6 41 6 68q0 64 -33.5 95.5t-108.5 31.5q-118 0 -227 -64zM561 864h-84q-311 0 -311 -168 q0 -69 56.5 -104t152.5 -35q69 0 137 16z" />
<glyph unicode="&#xab;" horiz-adv-x="761" d="M471 764l-295 -328l191 -319h-72l-197 323l297 324h76zM700 764l-294 -328l190 -319h-72l-196 323l297 324h75z" />
<glyph unicode="&#xad;" horiz-adv-x="727" d="M111 506l12 59h514l-12 -59h-514z" />
<glyph unicode="&#xae;" horiz-adv-x="931" d="M535 1233q159 0 261.5 -103.5t102.5 -257.5q0 -175 -119 -295t-295 -120q-160 0 -262 103t-102 257q0 175 119 295.5t295 120.5zM535 1190q-156 0 -262.5 -108t-106.5 -265q0 -135 90 -226t229 -91q156 0 262.5 107.5t106.5 264.5q0 135 -90 226.5t-229 91.5zM442 803 l-26 -148h-49l69 394q48 10 88 10q67 0 104.5 -31t37.5 -90q0 -53 -33 -85t-80 -42l98 -156h-57l-90 148h-62zM477 1008l-28 -162h51q49 0 80.5 23.5t31.5 68.5q0 36 -24 55t-66 19q-21 0 -45 -4z" />
<glyph unicode="&#xaf;" horiz-adv-x="1024" d="M309 1098l10 55h396l-10 -55h-396z" />
<glyph unicode="&#xb0;" horiz-adv-x="548" d="M358 1223q90 0 146.5 -55.5t56.5 -139.5q0 -98 -64.5 -163.5t-164.5 -65.5q-90 0 -146.5 55t-56.5 139q0 98 64.5 164t164.5 66zM358 1174q-78 0 -125 -52t-47 -129q0 -62 39.5 -103.5t106.5 -41.5q78 0 125 51.5t47 128.5q0 62 -39.5 104t-106.5 42z" />
<glyph unicode="&#xb1;" horiz-adv-x="890" d="M449 668h-334l10 59h334l45 252h59l-45 -252h334l-10 -59h-334l-45 -252h-60zM39 238l10 59h727l-10 -59h-727z" />
<glyph unicode="&#xb2;" horiz-adv-x="481" d="M127 623h319l-12 -54h-401l8 45q195 139 264 201q149 135 150 248q0 50 -29.5 78t-85.5 28q-49 0 -93.5 -20.5t-101.5 -67.5l13 74q81 70 184 70q83 0 128.5 -42t45.5 -120q0 -48 -22 -97t-56.5 -91.5t-88 -88.5t-104.5 -83t-118 -80z" />
<glyph unicode="&#xb3;" horiz-adv-x="450" d="M145 1090l11 65q27 31 72.5 50.5t95.5 19.5q80 0 122.5 -39t42.5 -107q0 -73 -55.5 -121.5t-134.5 -58.5q67 -6 107 -47t40 -107q0 -79 -64 -131.5t-161 -52.5q-53 0 -99 16.5t-71 43.5l12 57q66 -66 158 -66q73 0 118.5 36t45.5 97q0 117 -166 129l8 50 q92 10 146.5 47.5t54.5 107.5q0 43 -28.5 67.5t-75.5 24.5q-95 0 -179 -81z" />
<glyph unicode="&#xb4;" horiz-adv-x="1024" d="M432 1051h-70l224 311h76z" />
<glyph unicode="&#xb5;" horiz-adv-x="987" d="M145 123l-86 -492h-67l225 1262h66l-97 -547q-12 -64 -12 -108q0 -99 75.5 -148t199.5 -49q140 0 260 35l143 817h66l-152 -864q-161 -45 -317 -45q-250 0 -304 139z" />
<glyph unicode="&#xb6;" horiz-adv-x="806" d="M479 -217l252 1434h66l-252 -1434h-66zM293 -217l151 866q-125 5 -214 73t-89 189q0 79 35 139.5t93.5 96t128.5 53t147 17.5h67l-252 -1434h-67z" />
<glyph unicode="&#xb7;" horiz-adv-x="401" d="M162 535q0 25 16 41t41 16t41 -16t16 -41t-16 -41.5t-41 -16.5t-41 16.5t-16 41.5z" />
<glyph unicode="&#xb8;" horiz-adv-x="1024" d="M584 16h63q-17 -93 -72 -179.5t-126 -137.5h-74q84 64 139 146.5t70 170.5z" />
<glyph unicode="&#xb9;" horiz-adv-x="327" d="M123 1135l12 55l203 35l-115 -656h-61l104 590z" />
<glyph unicode="&#xba;" horiz-adv-x="780" d="M426 502q-145 0 -232.5 91t-87.5 238q0 168 104 285t271 117q146 0 233 -91t87 -239q0 -168 -104 -284.5t-271 -116.5zM428 561q137 0 222 96.5t85 243.5q0 118 -69.5 194t-184.5 76q-135 0 -221 -97t-86 -243q0 -118 70 -194t184 -76z" />
<glyph unicode="&#xbb;" horiz-adv-x="761" d="M68 117l294 327l-190 320h72l196 -324l-297 -323h-75zM297 117l295 327l-191 320h72l197 -324l-297 -323h-76z" />
<glyph unicode="&#xbc;" horiz-adv-x="1206" d="M188 1135l13 55l202 35l-114 -656h-62l105 590zM1020 651l-76 -424h119l-8 -49h-119l-31 -178h-59l31 178h-334l8 51l405 422h64zM946 573l-332 -346h271zM82 0l883 1217h67l-882 -1217h-68z" />
<glyph unicode="&#xbd;" horiz-adv-x="1261" d="M729 53h320l-13 -53h-401l8 45q195 139 264 201q150 135 150 248q0 50 -29.5 78t-85.5 28q-48 0 -92.5 -20.5t-101.5 -67.5l12 74q80 69 184 69q84 0 129 -41.5t45 -119.5q0 -59 -31 -118.5t-90.5 -116.5t-121.5 -104t-146 -102zM188 1135l13 55l202 35l-114 -656h-62 l105 590zM82 0l883 1217h67l-882 -1217h-68z" />
<glyph unicode="&#xbe;" horiz-adv-x="1329" d="M197 1090l10 65q27 31 72.5 50.5t95.5 19.5q80 0 123 -39.5t43 -106.5q0 -73 -56 -121.5t-135 -58.5q67 -6 107.5 -47t40.5 -107q0 -79 -64.5 -131.5t-161.5 -52.5q-53 0 -99 16.5t-71 43.5l13 57q66 -66 157 -66q73 0 118.5 36t45.5 97q0 117 -166 129l9 50 q91 10 145.5 47.5t54.5 107.5q0 43 -28.5 67.5t-75.5 24.5q-94 0 -178 -81zM1143 651l-76 -424h119l-8 -49h-119l-31 -178h-59l30 178h-333l8 51l405 422h64zM1069 573l-332 -346h271zM203 0l882 1217h68l-883 -1217h-67z" />
<glyph unicode="&#xbf;" horiz-adv-x="782" d="M668 -150l-15 -83q-127 -127 -311 -127q-148 0 -230.5 84.5t-82.5 214.5q0 74 24 136.5t62 106t97.5 81t118 62t134.5 48.5l29 153h65l-37 -192q-99 -31 -167 -60.5t-131.5 -75.5t-95.5 -110.5t-32 -148.5q0 -101 67 -169.5t183 -68.5q176 0 322 149zM627 821 q0 -26 -17.5 -43.5t-42.5 -17.5q-26 0 -43.5 17.5t-17.5 43.5q0 25 17.5 42.5t43.5 17.5q25 0 42.5 -17.5t17.5 -42.5z" />
<glyph unicode="&#xc0;" horiz-adv-x="1153" d="M985 0l-86 362h-659l-213 -362h-74l717 1217h92l293 -1217h-70zM709 1159l-437 -739h615zM743 1325h-59l-106 268h65z" />
<glyph unicode="&#xc1;" horiz-adv-x="1153" d="M985 0l-86 362h-659l-213 -362h-74l717 1217h92l293 -1217h-70zM709 1159l-437 -739h615zM770 1325h-70l193 268h76z" />
<glyph unicode="&#xc2;" horiz-adv-x="1153" d="M985 0l-86 362h-659l-213 -362h-74l717 1217h92l293 -1217h-70zM709 1159l-437 -739h615zM788 1585l173 -272h-68l-131 209l-201 -209h-72l263 272h36z" />
<glyph unicode="&#xc3;" horiz-adv-x="1153" d="M985 0l-86 362h-659l-213 -362h-74l717 1217h92l293 -1217h-70zM709 1159l-437 -739h615zM965 1507h53q-15 -90 -58.5 -142t-105.5 -52q-37 0 -66 22.5t-45 50t-38.5 50t-47.5 22.5q-38 0 -65.5 -38t-38.5 -101h-53q15 89 58.5 141.5t105.5 52.5q37 0 65.5 -22.5t44 -50 t38 -50t48.5 -22.5q38 0 66 38.5t39 100.5z" />
<glyph unicode="&#xc4;" horiz-adv-x="1153" d="M985 0l-86 362h-659l-213 -362h-74l717 1217h92l293 -1217h-70zM709 1159l-437 -739h615zM592 1341q-22 0 -38.5 16t-16.5 40t16.5 39.5t38.5 15.5t38.5 -15.5t16.5 -39.5t-16.5 -40t-38.5 -16zM895 1341q-22 0 -38.5 16t-16.5 40t16.5 39.5t38.5 15.5t38.5 -15.5 t16.5 -39.5t-16.5 -40t-38.5 -16z" />
<glyph unicode="&#xc5;" horiz-adv-x="1153" d="M985 0l-86 362h-659l-213 -362h-74l717 1217h92l293 -1217h-70zM709 1159l-437 -739h615zM739 1284q-67 0 -108 42t-41 104q0 70 48 115.5t116 45.5q67 0 108 -41.5t41 -103.5q0 -70 -48 -116t-116 -46zM739 1333q53 0 82 31t29 82q0 42 -26 69t-70 27q-53 0 -82 -30.5 t-29 -81.5q0 -42 26.5 -69.5t69.5 -27.5z" />
<glyph unicode="&#xc6;" horiz-adv-x="1693" d="M1505 0h-680l66 373h-537l-319 -373h-82l1042 1217h715l-10 -62h-604l-88 -500h571l-10 -61h-572l-94 -533h613zM1030 1161l-627 -731h498z" />
<glyph unicode="&#xc7;" horiz-adv-x="1198" d="M442 -301h-73q78 58 131 135t73 160q-201 37 -320.5 184t-119.5 367q0 197 81.5 353.5t231.5 245.5t342 89q117 0 219 -38.5t171 -102.5l-15 -76q-68 71 -167 112t-208 41q-179 0 -313.5 -83t-203 -223.5t-68.5 -317.5q0 -228 139 -364t354 -136q223 0 389 125l-12 -82 q-155 -104 -377 -104q-41 0 -61 2q-23 -86 -76 -164t-117 -123z" />
<glyph unicode="&#xc8;" horiz-adv-x="980" d="M190 61h613l-10 -61h-680l213 1217h671l-10 -62h-604l-88 -500h571l-10 -61h-571zM713 1325h-60l-106 268h65z" />
<glyph unicode="&#xc9;" horiz-adv-x="980" d="M190 61h613l-10 -61h-680l213 1217h671l-10 -62h-604l-88 -500h571l-10 -61h-571zM709 1325h-70l192 268h76z" />
<glyph unicode="&#xca;" horiz-adv-x="980" d="M190 61h613l-10 -61h-680l213 1217h671l-10 -62h-604l-88 -500h571l-10 -61h-571zM741 1585l172 -272h-67l-131 209l-201 -209h-72l263 272h36z" />
<glyph unicode="&#xcb;" horiz-adv-x="980" d="M190 61h613l-10 -61h-680l213 1217h671l-10 -62h-604l-88 -500h571l-10 -61h-571zM543 1341q-22 0 -39 16t-17 40t16.5 39.5t39.5 15.5q22 0 38.5 -15.5t16.5 -39.5t-16.5 -40t-38.5 -16zM846 1341q-22 0 -38.5 16t-16.5 40t16.5 39.5t38.5 15.5t38.5 -15.5t16.5 -39.5 t-16.5 -40t-38.5 -16z" />
<glyph unicode="&#xcc;" horiz-adv-x="438" d="M393 1217l-213 -1217h-67l213 1217h67zM410 1325h-60l-106 268h65z" />
<glyph unicode="&#xcd;" horiz-adv-x="438" d="M393 1217l-213 -1217h-67l213 1217h67zM406 1325h-70l192 268h76z" />
<glyph unicode="&#xce;" horiz-adv-x="438" d="M393 1217l-213 -1217h-67l213 1217h67zM438 1585l172 -272h-67l-131 209l-201 -209h-72l262 272h37z" />
<glyph unicode="&#xcf;" horiz-adv-x="438" d="M393 1217l-213 -1217h-67l213 1217h67zM240 1341q-22 0 -39 16t-17 40t16.5 39.5t39.5 15.5q22 0 38.5 -15.5t16.5 -39.5t-16.5 -40t-38.5 -16zM543 1341q-22 0 -39 16t-17 40t16.5 39.5t39.5 15.5q22 0 38.5 -15.5t16.5 -39.5t-16.5 -40t-38.5 -16z" />
<glyph unicode="&#xd0;" horiz-adv-x="1277" d="M219 594h-115l11 61h114l99 562q125 16 247 16q138 0 252.5 -34.5t199.5 -102t132 -174t47 -242.5q0 -144 -41 -261t-112.5 -196.5t-171 -133.5t-213 -78.5t-242.5 -24.5q-195 0 -307 41zM287 594l-90 -520q96 -29 229 -29q152 0 278 36.5t225 110.5t154.5 198.5 t55.5 289.5q0 120 -42 214.5t-118 154.5t-178.5 91t-225.5 31q-112 0 -188 -10l-88 -506h319l-10 -61h-321z" />
<glyph unicode="&#xd1;" horiz-adv-x="1312" d="M395 1217l609 -1121l196 1121h68l-213 -1217h-66l-612 1122l-197 -1122h-67l213 1217h69zM1051 1507h53q-15 -90 -58.5 -142t-105.5 -52q-37 0 -66 22.5t-45 50t-38.5 50t-47.5 22.5q-38 0 -65.5 -38t-38.5 -101h-53q15 89 58.5 141.5t105.5 52.5q37 0 65.5 -22.5t44 -50 t38 -50t48.5 -22.5q38 0 66 38.5t39 100.5z" />
<glyph unicode="&#xd2;" horiz-adv-x="1415" d="M692 -16q-247 0 -403 153.5t-156 403.5q0 141 46 267t129 220.5t206.5 149.5t269.5 55q246 0 402.5 -154.5t156.5 -404.5q0 -189 -78.5 -345.5t-228.5 -250.5t-344 -94zM692 47q174 0 307.5 84t204 226t70.5 317q0 220 -135.5 357.5t-354.5 137.5q-174 0 -307.5 -84.5 t-203.5 -227t-70 -316.5q0 -221 135.5 -357.5t353.5 -136.5zM879 1325h-60l-106 268h65z" />
<glyph unicode="&#xd3;" horiz-adv-x="1415" d="M692 -16q-247 0 -403 153.5t-156 403.5q0 141 46 267t129 220.5t206.5 149.5t269.5 55q246 0 402.5 -154.5t156.5 -404.5q0 -189 -78.5 -345.5t-228.5 -250.5t-344 -94zM692 47q174 0 307.5 84t204 226t70.5 317q0 220 -135.5 357.5t-354.5 137.5q-174 0 -307.5 -84.5 t-203.5 -227t-70 -316.5q0 -221 135.5 -357.5t353.5 -136.5zM874 1325h-69l192 268h76z" />
<glyph unicode="&#xd4;" horiz-adv-x="1415" d="M692 -16q-247 0 -403 153.5t-156 403.5q0 141 46 267t129 220.5t206.5 149.5t269.5 55q246 0 402.5 -154.5t156.5 -404.5q0 -189 -78.5 -345.5t-228.5 -250.5t-344 -94zM692 47q174 0 307.5 84t204 226t70.5 317q0 220 -135.5 357.5t-354.5 137.5q-174 0 -307.5 -84.5 t-203.5 -227t-70 -316.5q0 -221 135.5 -357.5t353.5 -136.5zM907 1585l172 -272h-67l-131 209l-201 -209h-72l262 272h37z" />
<glyph unicode="&#xd5;" horiz-adv-x="1415" d="M692 -16q-247 0 -403 153.5t-156 403.5q0 141 46 267t129 220.5t206.5 149.5t269.5 55q246 0 402.5 -154.5t156.5 -404.5q0 -189 -78.5 -345.5t-228.5 -250.5t-344 -94zM692 47q174 0 307.5 84t204 226t70.5 317q0 220 -135.5 357.5t-354.5 137.5q-174 0 -307.5 -84.5 t-203.5 -227t-70 -316.5q0 -221 135.5 -357.5t353.5 -136.5zM1069 1507h53q-15 -90 -58.5 -142t-105.5 -52q-30 0 -54.5 15t-40.5 36.5t-30.5 42.5t-32 36t-38.5 15q-38 0 -66 -38.5t-39 -100.5h-53q15 89 58.5 141.5t105.5 52.5q30 0 54.5 -15t40 -36.5t30 -42.5t33 -36 t39.5 -15q38 0 65.5 38t38.5 101z" />
<glyph unicode="&#xd6;" horiz-adv-x="1415" d="M692 -16q-247 0 -403 153.5t-156 403.5q0 141 46 267t129 220.5t206.5 149.5t269.5 55q246 0 402.5 -154.5t156.5 -404.5q0 -189 -78.5 -345.5t-228.5 -250.5t-344 -94zM692 47q174 0 307.5 84t204 226t70.5 317q0 220 -135.5 357.5t-354.5 137.5q-174 0 -307.5 -84.5 t-203.5 -227t-70 -316.5q0 -221 135.5 -357.5t353.5 -136.5zM709 1341q-22 0 -39 16t-17 40t16.5 39.5t39.5 15.5q22 0 38.5 -15.5t16.5 -39.5t-16.5 -40t-38.5 -16zM1012 1341q-22 0 -39 16t-17 40t16.5 39.5t39.5 15.5q22 0 38.5 -15.5t16.5 -39.5t-16.5 -40t-38.5 -16z " />
<glyph unicode="&#xd7;" horiz-adv-x="741" d="M358 602l-204 250l45 35l200 -250l291 250l35 -41l-289 -250l201 -250l-43 -35l-203 248l-289 -248l-36 41z" />
<glyph unicode="&#xd8;" horiz-adv-x="1415" d="M1364 1217l-156 -162q135 -154 135 -381q0 -189 -78.5 -345.5t-228.5 -250.5t-344 -94q-231 0 -385 135l-114 -119h-80l153 160q-133 152 -133 381q0 141 46 267t129 220.5t206.5 149.5t269.5 55q234 0 383 -137l117 121h80zM311 207l813 844q-130 118 -340 118 q-174 0 -307.5 -84.5t-203.5 -227t-70 -316.5q0 -204 108 -334zM1163 1008l-811 -842q132 -119 340 -119q174 0 307.5 84t204 226t70.5 317q0 201 -111 334z" />
<glyph unicode="&#xd9;" horiz-adv-x="1228" d="M143 416l142 801h67l-139 -801q-10 -62 -10 -109q0 -76 29.5 -129t84 -81.5t120 -41t149.5 -12.5q165 0 332 41l198 1133h68l-207 -1182q-213 -51 -391 -51q-102 0 -181 16t-142 52t-96.5 100.5t-33.5 154.5q0 44 10 109zM776 1325h-59l-107 268h66z" />
<glyph unicode="&#xda;" horiz-adv-x="1228" d="M143 416l142 801h67l-139 -801q-10 -62 -10 -109q0 -76 29.5 -129t84 -81.5t120 -41t149.5 -12.5q165 0 332 41l198 1133h68l-207 -1182q-213 -51 -391 -51q-102 0 -181 16t-142 52t-96.5 100.5t-33.5 154.5q0 44 10 109zM772 1325h-70l193 268h76z" />
<glyph unicode="&#xdb;" horiz-adv-x="1228" d="M143 416l142 801h67l-139 -801q-10 -62 -10 -109q0 -76 29.5 -129t84 -81.5t120 -41t149.5 -12.5q165 0 332 41l198 1133h68l-207 -1182q-213 -51 -391 -51q-102 0 -181 16t-142 52t-96.5 100.5t-33.5 154.5q0 44 10 109zM805 1585l172 -272h-68l-131 209l-200 -209h-72 l262 272h37z" />
<glyph unicode="&#xdc;" horiz-adv-x="1228" d="M143 416l142 801h67l-139 -801q-10 -62 -10 -109q0 -76 29.5 -129t84 -81.5t120 -41t149.5 -12.5q165 0 332 41l198 1133h68l-207 -1182q-213 -51 -391 -51q-102 0 -181 16t-142 52t-96.5 100.5t-33.5 154.5q0 44 10 109zM606 1341q-22 0 -38.5 16t-16.5 40t16.5 39.5 t38.5 15.5q23 0 39.5 -15.5t16.5 -39.5t-17 -40t-39 -16zM909 1341q-22 0 -38.5 16t-16.5 40t16.5 39.5t38.5 15.5q23 0 39.5 -15.5t16.5 -39.5t-17 -40t-39 -16z" />
<glyph unicode="&#xdd;" horiz-adv-x="1019" d="M532 557l523 660h80l-578 -725l-86 -492h-68l86 494l-323 723h74zM692 1325h-69l192 268h76z" />
<glyph unicode="&#xde;" horiz-adv-x="929" d="M227 270l-47 -270h-67l213 1217h69l-39 -216q97 9 136 9q198 0 303.5 -90t105.5 -250q0 -136 -69.5 -231t-183.5 -139t-261 -44q-88 0 -160 14zM346 942l-108 -616q67 -13 151 -13q198 0 320 89.5t122 267.5q0 134 -88.5 207t-253.5 73q-61 0 -143 -8z" />
<glyph unicode="&#xdf;" horiz-adv-x="966" d="M86 0l186 1067q28 160 118.5 252t232.5 92q126 0 193 -69t67 -173q0 -61 -28 -113t-68.5 -88.5t-80.5 -70.5t-68 -72.5t-28 -79.5q0 -42 29.5 -83.5t71.5 -78t83.5 -76.5t71 -97t29.5 -123q0 -135 -93 -218t-231 -83q-165 0 -256 100l11 70q107 -115 245 -115 q116 0 187 67t71 179q0 58 -29.5 109t-71 89t-83 75.5t-71 85t-29.5 99.5q0 40 20.5 77.5t50.5 65.5t66 61t66 62.5t50.5 71t20.5 86.5q0 79 -52 132t-144 53q-116 0 -188 -77t-97 -218l-184 -1059h-68z" />
<glyph unicode="&#xe0;" horiz-adv-x="845" d="M207 774l10 66q54 29 133 49t146 20q121 0 180 -53.5t59 -163.5q0 -30 -6 -71l-104 -605q-120 -32 -230 -32q-154 0 -251 64t-97 183q0 77 40.5 133.5t111.5 87t151.5 44.5t175.5 14h121l19 113q6 60 6 65q0 84 -43 124t-137 40q-146 0 -285 -78zM637 453h-111 q-411 0 -411 -222q0 -90 79.5 -141t200.5 -51q73 0 172 22zM551 1051h-59l-123 311h65z" />
<glyph unicode="&#xe1;" horiz-adv-x="845" d="M207 774l10 66q54 29 133 49t146 20q121 0 180 -53.5t59 -163.5q0 -30 -6 -71l-104 -605q-120 -32 -230 -32q-154 0 -251 64t-97 183q0 77 40.5 133.5t111.5 87t151.5 44.5t175.5 14h121l19 113q6 60 6 65q0 84 -43 124t-137 40q-146 0 -285 -78zM637 453h-111 q-411 0 -411 -222q0 -90 79.5 -141t200.5 -51q73 0 172 22zM551 1051h-70l224 311h75z" />
<glyph unicode="&#xe2;" horiz-adv-x="845" d="M207 774l10 66q54 29 133 49t146 20q121 0 180 -53.5t59 -163.5q0 -30 -6 -71l-104 -605q-120 -32 -230 -32q-154 0 -251 64t-97 183q0 77 40.5 133.5t111.5 87t151.5 44.5t175.5 14h121l19 113q6 60 6 65q0 84 -43 124t-137 40q-146 0 -285 -78zM637 453h-111 q-411 0 -411 -222q0 -90 79.5 -141t200.5 -51q73 0 172 22zM586 1333l168 -280h-68l-127 217l-205 -217h-71l266 280h37z" />
<glyph unicode="&#xe3;" horiz-adv-x="845" d="M207 774l10 66q54 29 133 49t146 20q121 0 180 -53.5t59 -163.5q0 -30 -6 -71l-104 -605q-120 -32 -230 -32q-154 0 -251 64t-97 183q0 77 40.5 133.5t111.5 87t151.5 44.5t175.5 14h121l19 113q6 60 6 65q0 84 -43 124t-137 40q-146 0 -285 -78zM637 453h-111 q-411 0 -411 -222q0 -90 79.5 -141t200.5 -51q73 0 172 22zM748 1249h53q-15 -90 -58.5 -142t-105.5 -52q-37 0 -66 22.5t-45 50t-38.5 50t-47.5 22.5q-38 0 -65.5 -38t-38.5 -101h-53q15 89 58 141.5t105 52.5q30 0 54.5 -15t40 -36.5t30 -42.5t33 -36t39.5 -15 q38 0 66 38.5t39 100.5z" />
<glyph unicode="&#xe4;" horiz-adv-x="845" d="M207 774l10 66q54 29 133 49t146 20q121 0 180 -53.5t59 -163.5q0 -30 -6 -71l-104 -605q-120 -32 -230 -32q-154 0 -251 64t-97 183q0 77 40.5 133.5t111.5 87t151.5 44.5t175.5 14h121l19 113q6 60 6 65q0 84 -43 124t-137 40q-146 0 -285 -78zM637 453h-111 q-411 0 -411 -222q0 -90 79.5 -141t200.5 -51q73 0 172 22zM387 1098q-22 0 -38.5 15.5t-16.5 39.5t16.5 39.5t38.5 15.5t38.5 -15.5t16.5 -39.5t-16.5 -39.5t-38.5 -15.5zM690 1098q-22 0 -38.5 15.5t-16.5 39.5t16.5 39.5t38.5 15.5t38.5 -15.5t16.5 -39.5t-16.5 -39.5 t-38.5 -15.5z" />
<glyph unicode="&#xe5;" horiz-adv-x="845" d="M207 774l10 66q54 29 133 49t146 20q121 0 180 -53.5t59 -163.5q0 -30 -6 -71l-104 -605q-120 -32 -230 -32q-154 0 -251 64t-97 183q0 77 40.5 133.5t111.5 87t151.5 44.5t175.5 14h121l19 113q6 60 6 65q0 84 -43 124t-137 40q-146 0 -285 -78zM637 453h-111 q-411 0 -411 -222q0 -90 79.5 -141t200.5 -51q73 0 172 22zM541 1038q-67 0 -108.5 42t-41.5 104q0 70 48 116t116 46q67 0 108.5 -42t41.5 -104q0 -70 -48 -116t-116 -46zM541 1087q53 0 81.5 31t28.5 82q0 42 -26 69t-70 27q-53 0 -82 -30.5t-29 -81.5q0 -42 26.5 -69.5 t70.5 -27.5z" />
<glyph unicode="&#xe6;" horiz-adv-x="1411" d="M1325 444h-682v-32q0 -167 89.5 -268t242.5 -101q156 0 289 86l-11 -72q-115 -73 -278 -73q-198 0 -309 139q-158 -139 -347 -139q-113 0 -192.5 62t-79.5 175q0 63 25 112.5t66 80t98.5 50t117 27t127.5 7.5h105q15 97 57 170q0 95 -41.5 139.5t-132.5 44.5 q-137 0 -279 -80l11 68q55 29 130.5 49t137.5 20q200 0 227 -157q128 157 330 157q89 0 153 -31.5t97 -85t48 -112t15 -125.5q0 -76 -14 -111zM649 498h623q4 23 4 57q0 58 -12.5 108t-39.5 94t-78 69.5t-120 25.5q-143 0 -247 -93.5t-130 -260.5zM580 444h-97 q-368 0 -368 -223q0 -85 60.5 -133.5t143.5 -48.5q167 0 316 131q-55 101 -55 240v34z" />
<glyph unicode="&#xe7;" horiz-adv-x="901" d="M285 -301h-74q77 59 130 134.5t73 156.5q-149 26 -237.5 139.5t-88.5 273.5q0 227 137 366.5t336 139.5q176 0 285 -112l-17 -68q-108 121 -268 121q-174 0 -289.5 -122t-115.5 -325q0 -155 91.5 -257.5t244.5 -102.5q157 0 280 86l-12 -76q-51 -33 -123.5 -51 t-144.5 -18h-15q-23 -85 -75.5 -162.5t-116.5 -122.5z" />
<glyph unicode="&#xe8;" horiz-adv-x="933" d="M782 127l-10 -70q-115 -73 -280 -73q-185 0 -294.5 117t-109.5 298q0 139 57 255.5t161 185.5t233 69q73 0 130 -19.5t92.5 -51.5t59 -77t32.5 -91t9 -97q0 -73 -14 -108h-690q-4 -27 -4 -66q0 -156 92 -256t246 -100q161 0 290 84zM168 520h627q4 23 4 53 q0 56 -13.5 104t-43 88.5t-81.5 63.5t-122 23q-136 0 -238 -92.5t-133 -239.5zM625 1051h-60l-123 311h66z" />
<glyph unicode="&#xe9;" horiz-adv-x="933" d="M782 127l-10 -70q-115 -73 -280 -73q-185 0 -294.5 117t-109.5 298q0 139 57 255.5t161 185.5t233 69q73 0 130 -19.5t92.5 -51.5t59 -77t32.5 -91t9 -97q0 -73 -14 -108h-690q-4 -27 -4 -66q0 -156 92 -256t246 -100q161 0 290 84zM168 520h627q4 23 4 53 q0 56 -13.5 104t-43 88.5t-81.5 63.5t-122 23q-136 0 -238 -92.5t-133 -239.5zM625 1051h-70l223 311h76z" />
<glyph unicode="&#xea;" horiz-adv-x="933" d="M782 127l-10 -70q-115 -73 -280 -73q-185 0 -294.5 117t-109.5 298q0 139 57 255.5t161 185.5t233 69q73 0 130 -19.5t92.5 -51.5t59 -77t32.5 -91t9 -97q0 -73 -14 -108h-690q-4 -27 -4 -66q0 -156 92 -256t246 -100q161 0 290 84zM168 520h627q4 23 4 53 q0 56 -13.5 104t-43 88.5t-81.5 63.5t-122 23q-136 0 -238 -92.5t-133 -239.5zM659 1333l168 -280h-67l-127 217l-205 -217h-72l267 280h36z" />
<glyph unicode="&#xeb;" horiz-adv-x="933" d="M782 127l-10 -70q-115 -73 -280 -73q-185 0 -294.5 117t-109.5 298q0 139 57 255.5t161 185.5t233 69q73 0 130 -19.5t92.5 -51.5t59 -77t32.5 -91t9 -97q0 -73 -14 -108h-690q-4 -27 -4 -66q0 -156 92 -256t246 -100q161 0 290 84zM168 520h627q4 23 4 53 q0 56 -13.5 104t-43 88.5t-81.5 63.5t-122 23q-136 0 -238 -92.5t-133 -239.5zM461 1098q-22 0 -38.5 15.5t-16.5 39.5t16.5 39.5t38.5 15.5t38.5 -15.5t16.5 -39.5t-16.5 -39.5t-38.5 -15.5zM764 1098q-22 0 -38.5 15.5t-16.5 39.5t16.5 39.5t38.5 15.5t38.5 -15.5 t16.5 -39.5t-16.5 -39.5t-38.5 -15.5z" />
<glyph unicode="&#xec;" d="M309 893l-157 -893h-66l158 893h65zM334 1051h-60l-122 311h65z" />
<glyph unicode="&#xed;" d="M309 893l-157 -893h-66l158 893h65zM334 1051h-70l223 311h76z" />
<glyph unicode="&#xee;" d="M309 893l-157 -893h-66l158 893h65zM369 1333l168 -280h-68l-127 217l-205 -217h-71l266 280h37z" />
<glyph unicode="&#xef;" d="M309 893l-157 -893h-66l158 893h65zM170 1098q-22 0 -38.5 15.5t-16.5 39.5t16.5 39.5t38.5 15.5t38.5 -15.5t16.5 -39.5t-16.5 -39.5t-38.5 -15.5zM473 1098q-22 0 -38.5 15.5t-16.5 39.5t16.5 39.5t38.5 15.5t38.5 -15.5t16.5 -39.5t-16.5 -39.5t-38.5 -15.5z" />
<glyph unicode="&#xf0;" horiz-adv-x="1044" d="M655 1110l-368 -100v53l329 90q-132 139 -292 240h92q155 -104 266 -224l203 56v-54l-166 -45q237 -284 237 -639q0 -138 -56.5 -251.5t-164.5 -182.5t-248 -69q-181 0 -290 114t-109 297q0 137 56.5 250.5t165 182.5t247.5 69q93 0 173 -38.5t134 -115.5 q-53 185 -209 367zM487 41q179 0 290.5 126.5t111.5 317.5q0 155 -91 255t-241 100q-179 0 -290 -127t-111 -318q0 -155 90.5 -254.5t240.5 -99.5z" />
<glyph unicode="&#xf1;" horiz-adv-x="1013" d="M780 0h-65l96 541q12 74 12 121q0 99 -60.5 142.5t-174.5 43.5q-132 0 -297 -57l-139 -791h-66l145 831q111 39 191.5 58.5t165.5 19.5q301 0 301 -237q0 -58 -12 -129zM834 1249h53q-15 -90 -58.5 -142t-105.5 -52q-37 0 -66 22.5t-45 50t-38.5 50t-47.5 22.5 q-38 0 -65.5 -38t-38.5 -101h-53q15 89 58 141.5t105 52.5q30 0 54.5 -15t40 -36.5t30 -42.5t33 -36t39.5 -15q38 0 66 38.5t39 100.5z" />
<glyph unicode="&#xf2;" horiz-adv-x="1044" d="M487 -16q-181 0 -290 116.5t-109 300.5q0 137 56.5 252t165 185.5t247.5 70.5q181 0 290 -116.5t109 -300.5q0 -137 -56.5 -252t-165 -185.5t-247.5 -70.5zM487 41q178 0 290 130t112 321q0 155 -91 257.5t-241 102.5q-178 0 -289.5 -130t-111.5 -321q0 -155 91 -257.5 t240 -102.5zM653 1051h-59l-123 311h66z" />
<glyph unicode="&#xf3;" horiz-adv-x="1044" d="M487 -16q-181 0 -290 116.5t-109 300.5q0 137 56.5 252t165 185.5t247.5 70.5q181 0 290 -116.5t109 -300.5q0 -137 -56.5 -252t-165 -185.5t-247.5 -70.5zM487 41q178 0 290 130t112 321q0 155 -91 257.5t-241 102.5q-178 0 -289.5 -130t-111.5 -321q0 -155 91 -257.5 t240 -102.5zM664 1051h-70l223 311h76z" />
<glyph unicode="&#xf4;" horiz-adv-x="1044" d="M487 -16q-181 0 -290 116.5t-109 300.5q0 137 56.5 252t165 185.5t247.5 70.5q181 0 290 -116.5t109 -300.5q0 -137 -56.5 -252t-165 -185.5t-247.5 -70.5zM487 41q178 0 290 130t112 321q0 155 -91 257.5t-241 102.5q-178 0 -289.5 -130t-111.5 -321q0 -155 91 -257.5 t240 -102.5zM688 1333l168 -280h-68l-126 217l-205 -217h-72l266 280h37z" />
<glyph unicode="&#xf5;" horiz-adv-x="1044" d="M487 -16q-181 0 -290 116.5t-109 300.5q0 137 56.5 252t165 185.5t247.5 70.5q181 0 290 -116.5t109 -300.5q0 -137 -56.5 -252t-165 -185.5t-247.5 -70.5zM487 41q178 0 290 130t112 321q0 155 -91 257.5t-241 102.5q-178 0 -289.5 -130t-111.5 -321q0 -155 91 -257.5 t240 -102.5zM860 1249h53q-15 -90 -58 -142t-105 -52q-37 0 -66 22.5t-45 50t-38.5 50t-47.5 22.5q-38 0 -65.5 -38t-38.5 -101h-54q15 89 58.5 141.5t105.5 52.5q30 0 54.5 -15t40 -36.5t30 -42.5t33 -36t39.5 -15q38 0 65.5 38t38.5 101z" />
<glyph unicode="&#xf6;" horiz-adv-x="1044" d="M487 -16q-181 0 -290 116.5t-109 300.5q0 137 56.5 252t165 185.5t247.5 70.5q181 0 290 -116.5t109 -300.5q0 -137 -56.5 -252t-165 -185.5t-247.5 -70.5zM487 41q178 0 290 130t112 321q0 155 -91 257.5t-241 102.5q-178 0 -289.5 -130t-111.5 -321q0 -155 91 -257.5 t240 -102.5zM489 1098q-22 0 -38.5 15.5t-16.5 39.5t16.5 39.5t38.5 15.5q23 0 39.5 -15.5t16.5 -39.5t-16.5 -39.5t-39.5 -15.5zM793 1098q-23 0 -39.5 15.5t-16.5 39.5t16.5 39.5t39.5 15.5q22 0 38.5 -15.5t16.5 -39.5t-16.5 -39.5t-38.5 -15.5z" />
<glyph unicode="&#xf7;" horiz-adv-x="890" d="M90 569l10 60h727l-10 -60h-727zM344 293q0 26 17 43.5t42 17.5q26 0 44 -17.5t18 -43.5q0 -25 -18 -42.5t-44 -17.5q-25 0 -42 17.5t-17 42.5zM453 907q0 25 17 42.5t42 17.5q26 0 43.5 -17.5t17.5 -42.5q0 -26 -17.5 -43.5t-43.5 -17.5q-25 0 -42 17.5t-17 43.5z" />
<glyph unicode="&#xf8;" horiz-adv-x="1044" d="M1024 893l-145 -137q77 -107 77 -264q0 -137 -56.5 -252t-165 -185.5t-247.5 -70.5q-175 0 -284 106l-94 -90h-76l135 131q-80 110 -80 270q0 136 56.5 250.5t165 185t247.5 70.5q179 0 289 -110l102 96h76zM834 711l-586 -578q92 -92 239 -92q178 0 290 130t112 321 q0 129 -55 219zM215 176l586 578q-92 98 -244 98q-178 0 -289.5 -130t-111.5 -321q0 -139 59 -225z" />
<glyph unicode="&#xf9;" horiz-adv-x="987" d="M217 893h66l-97 -547q-12 -64 -12 -108q0 -100 73 -148.5t202 -48.5q140 0 260 35l143 817h66l-152 -864q-161 -45 -317 -45q-162 0 -252.5 61t-90.5 186q0 41 15 121zM627 1051h-60l-123 311h66z" />
<glyph unicode="&#xfa;" horiz-adv-x="987" d="M217 893h66l-97 -547q-12 -64 -12 -108q0 -100 73 -148.5t202 -48.5q140 0 260 35l143 817h66l-152 -864q-161 -45 -317 -45q-162 0 -252.5 61t-90.5 186q0 41 15 121zM627 1051h-70l223 311h76z" />
<glyph unicode="&#xfb;" horiz-adv-x="987" d="M217 893h66l-97 -547q-12 -64 -12 -108q0 -100 73 -148.5t202 -48.5q140 0 260 35l143 817h66l-152 -864q-161 -45 -317 -45q-162 0 -252.5 61t-90.5 186q0 41 15 121zM662 1333l167 -280h-67l-127 217l-205 -217h-72l267 280h37z" />
<glyph unicode="&#xfc;" horiz-adv-x="987" d="M217 893h66l-97 -547q-12 -64 -12 -108q0 -100 73 -148.5t202 -48.5q140 0 260 35l143 817h66l-152 -864q-161 -45 -317 -45q-162 0 -252.5 61t-90.5 186q0 41 15 121zM465 1098q-22 0 -38.5 15.5t-16.5 39.5t16.5 39.5t38.5 15.5t38.5 -15.5t16.5 -39.5t-16.5 -39.5 t-38.5 -15.5zM768 1098q-22 0 -38.5 15.5t-16.5 39.5t16.5 39.5t38.5 15.5t38.5 -15.5t16.5 -39.5t-16.5 -39.5t-38.5 -15.5z" />
<glyph unicode="&#xfd;" horiz-adv-x="880" d="M176 893l174 -850l496 850h72l-748 -1262h-70l205 338l-192 924h63zM565 1051h-69l223 311h76z" />
<glyph unicode="&#xfe;" horiz-adv-x="1019" d="M18 -369l312 1762h65l-96 -547q47 26 115.5 44.5t132.5 18.5q175 0 282 -110t107 -299q0 -144 -60.5 -260.5t-177 -186t-268.5 -69.5q-77 0 -150 21.5t-120 51.5l-76 -426h-66zM287 784l-117 -667q42 -30 119 -53t141 -23q199 0 318.5 129t119.5 330q0 157 -87.5 254.5 t-233.5 97.5q-131 0 -260 -68z" />
<glyph unicode="&#xff;" horiz-adv-x="880" d="M176 893l174 -850l496 850h72l-748 -1262h-70l205 338l-192 924h63zM401 1098q-22 0 -38.5 15.5t-16.5 39.5t16.5 39.5t38.5 15.5q23 0 39.5 -15.5t16.5 -39.5t-16.5 -39.5t-39.5 -15.5zM705 1098q-23 0 -39.5 15.5t-16.5 39.5t16.5 39.5t39.5 15.5q22 0 38.5 -15.5 t16.5 -39.5t-16.5 -39.5t-38.5 -15.5z" />
<glyph unicode="&#x152;" horiz-adv-x="1677" d="M1694 1217l-11 -62h-604l-88 -500h572l-11 -61h-571l-94 -533h612l-10 -61h-797q-248 0 -403.5 146.5t-155.5 394.5q0 189 78.5 342t228 243.5t344.5 90.5h910zM819 59l193 1096h-228q-174 0 -307.5 -81t-203.5 -220t-70 -313q0 -220 134.5 -351t354.5 -131h127z" />
<glyph unicode="&#x153;" horiz-adv-x="1722" d="M1571 127l-10 -70q-115 -73 -281 -73q-142 0 -240 69t-139 187q-57 -118 -165 -187t-249 -69q-181 0 -290 116.5t-109 300.5q0 137 56.5 252t165 185.5t247.5 70.5q136 0 235 -72t140 -192q59 120 163.5 192t235.5 72q90 0 155.5 -29t99.5 -79t49.5 -106t15.5 -122 q0 -71 -15 -108h-690q-4 -27 -4 -66q0 -156 92 -256t246 -100q162 0 291 84zM487 41q178 0 290 130t112 321q0 155 -91 257.5t-241 102.5q-178 0 -289.5 -130t-111.5 -321q0 -155 91 -257.5t240 -102.5zM956 520h627q4 23 4 53q0 57 -13 104.5t-41.5 88t-80 63.5t-121.5 23 q-136 0 -240 -92.5t-135 -239.5z" />
<glyph unicode="&#x178;" horiz-adv-x="1019" d="M532 557l523 660h80l-578 -725l-86 -492h-68l86 494l-323 723h74zM526 1341q-22 0 -38.5 16t-16.5 40t16.5 39.5t38.5 15.5q23 0 39.5 -15.5t16.5 -39.5t-17 -40t-39 -16zM829 1341q-22 0 -38.5 16t-16.5 40t16.5 39.5t38.5 15.5q23 0 39.5 -15.5t16.5 -39.5t-17 -40 t-39 -16z" />
<glyph unicode="&#x2c6;" horiz-adv-x="1024" d="M580 1333l168 -280h-68l-127 217l-205 -217h-72l267 280h37z" />
<glyph unicode="&#x2dc;" horiz-adv-x="1024" d="M717 1249h53q-15 -90 -58.5 -142t-105.5 -52q-30 0 -54.5 15t-40.5 36.5t-30.5 42.5t-32 36t-38.5 15q-38 0 -66 -38.5t-39 -100.5h-53q15 89 58.5 141.5t105.5 52.5q37 0 65.5 -22.5t44 -50t38 -50t48.5 -22.5q38 0 66 38.5t39 100.5z" />
<glyph unicode="&#x2000;" horiz-adv-x="796" />
<glyph unicode="&#x2001;" horiz-adv-x="1593" />
<glyph unicode="&#x2002;" horiz-adv-x="796" />
<glyph unicode="&#x2003;" horiz-adv-x="1593" />
<glyph unicode="&#x2004;" horiz-adv-x="531" />
<glyph unicode="&#x2005;" horiz-adv-x="398" />
<glyph unicode="&#x2006;" horiz-adv-x="265" />
<glyph unicode="&#x2007;" horiz-adv-x="265" />
<glyph unicode="&#x2008;" horiz-adv-x="199" />
<glyph unicode="&#x2009;" horiz-adv-x="318" />
<glyph unicode="&#x200a;" horiz-adv-x="88" />
<glyph unicode="&#x2010;" horiz-adv-x="727" d="M111 506l12 59h514l-12 -59h-514z" />
<glyph unicode="&#x2011;" horiz-adv-x="727" d="M111 506l12 59h514l-12 -59h-514z" />
<glyph unicode="&#x2012;" horiz-adv-x="727" d="M111 506l12 59h514l-12 -59h-514z" />
<glyph unicode="&#x2013;" horiz-adv-x="1171" d="M111 508l10 57h958l-8 -57h-960z" />
<glyph unicode="&#x2014;" horiz-adv-x="1949" d="M111 508l10 57h1737l-9 -57h-1738z" />
<glyph unicode="&#x2018;" horiz-adv-x="360" d="M295 1008h-78q17 102 72 182t135 129h61q-82 -65 -129 -138t-61 -173z" />
<glyph unicode="&#x2019;" horiz-adv-x="360" d="M350 1319h78q-17 -102 -72.5 -182t-136.5 -129h-59q82 65 129 138t61 173z" />
<glyph unicode="&#x201a;" horiz-adv-x="360" d="M117 119h78q-17 -102 -72.5 -182.5t-136.5 -129.5h-60q82 65 129.5 138.5t61.5 173.5z" />
<glyph unicode="&#x201c;" horiz-adv-x="579" d="M295 1008h-78q17 102 72 182t135 129h61q-82 -65 -129 -138t-61 -173zM512 1008h-78q17 102 72.5 182t136.5 129h59q-80 -65 -126.5 -138t-63.5 -173z" />
<glyph unicode="&#x201d;" horiz-adv-x="579" d="M567 1319h80q-17 -102 -73 -181.5t-136 -129.5h-61q82 65 129 138t61 173zM350 1319h78q-17 -102 -72.5 -182t-136.5 -129h-59q82 65 129 138t61 173z" />
<glyph unicode="&#x201e;" horiz-adv-x="579" d="M334 119h80q-17 -102 -73 -182t-136 -130h-62q82 65 129.5 138.5t61.5 173.5zM117 119h78q-17 -102 -72.5 -182.5t-136.5 -129.5h-60q82 65 129.5 138.5t61.5 173.5z" />
<glyph unicode="&#x2022;" horiz-adv-x="587" d="M143 537q0 63 44.5 106t107.5 43t106 -43t43 -106t-43 -107.5t-106 -44.5t-107.5 44.5t-44.5 107.5z" />
<glyph unicode="&#x2026;" horiz-adv-x="1224" d="M94 51q0 26 17.5 44t42.5 18q26 0 43.5 -18t17.5 -44q0 -25 -17.5 -42t-43.5 -17q-25 0 -42.5 17t-17.5 42zM502 51q0 28 17.5 46t43.5 18q25 0 43.5 -18.5t18.5 -45.5q0 -24 -18.5 -41.5t-43.5 -17.5q-26 0 -43.5 17t-17.5 42zM911 51q0 26 17.5 44t42.5 18 q26 0 43.5 -18t17.5 -44q0 -25 -17.5 -42t-43.5 -17q-25 0 -42.5 17t-17.5 42z" />
<glyph unicode="&#x202f;" horiz-adv-x="318" />
<glyph unicode="&#x2039;" horiz-adv-x="532" d="M471 764l-295 -328l191 -319h-72l-197 323l297 324h76z" />
<glyph unicode="&#x203a;" horiz-adv-x="532" d="M68 117l294 327l-190 320h72l196 -324l-297 -323h-75z" />
<glyph unicode="&#x205f;" horiz-adv-x="398" />
<glyph unicode="&#x20ac;" horiz-adv-x="1038" d="M207 684h-113l10 53h115q59 222 204 359t329 137q90 0 166 -38.5t122 -102.5l-14 -76q-46 71 -119.5 113t-154.5 42q-154 0 -282 -118.5t-183 -315.5h456l-22 -53h-447q-15 -67 -18 -139h408l-23 -53h-387v-9q0 -201 92.5 -320.5t243.5 -119.5q174 0 313 127l-14 -82 q-131 -104 -299 -104q-180 0 -291 134.5t-111 364.5v9h-127l9 53h120q2 52 17 139z" />
<glyph unicode="&#x2122;" horiz-adv-x="1255" d="M399 1167l-88 -499h-57l88 499h-184l8 50h426l-8 -50h-185zM870 664h-55l-74 481l-163 -479h-56l189 551h69l74 -488l244 488h69l-4 -551h-55l4 479z" />
<glyph unicode="&#xe000;" horiz-adv-x="890" d="M0 891h891v-891h-891v891z" />
</font>
</defs>
</svg>
