<?xml version="1.0" standalone="no"?>
<!DOCTYPE svg PUBLIC "-//W3C//DTD SVG 1.1//EN" "http://www.w3.org/Graphics/SVG/1.1/DTD/svg11.dtd" >
<svg xmlns="http://www.w3.org/2000/svg">
<metadata></metadata>
<defs>
<font id="karbon_semibolditalic" horiz-adv-x="1087" >
<font-face units-per-em="2048" ascent="1393" descent="-655" />
<missing-glyph horiz-adv-x="389" />
<glyph unicode="&#xfb01;" horiz-adv-x="1103" d="M451 709l-125 -709h-248l125 709h-144l37 204h144l24 146q33 179 137.5 266.5t260.5 87.5q148 0 247 -70l-41 -221q-90 70 -192 70q-143 0 -168 -156l-23 -123h572l-162 -913h-246l123 709h-321z" />
<glyph unicode="&#xfb02;" horiz-adv-x="1103" d="M786 1368l-41 -215q-50 37 -104 37q-53 0 -85.5 -32t-45.5 -105l-25 -140h191l-37 -204h-188l-125 -709h-248l125 709h-144l37 204h144l30 166q62 334 348 334q95 0 168 -45zM1141 1393l-246 -1393h-246l244 1393h248z" />
<glyph unicode="&#xfb03;" horiz-adv-x="1673" d="M772 709h-321l-125 -709h-248l125 709h-144l37 204h144l24 136q62 333 350 333q99 0 172 -45l-41 -215q-50 37 -110 37q-53 0 -85.5 -32t-45.5 -105l-19 -109h324l27 146q31 179 135 266.5t260 87.5q148 0 250 -70l-43 -221q-90 70 -193 70q-143 0 -168 -156l-20 -123 h569l-160 -913h-247l124 709h-323l-125 -709h-246z" />
<glyph unicode="&#xfb04;" horiz-adv-x="1673" d="M772 709h-321l-125 -709h-248l125 709h-144l37 204h144l24 136q62 333 350 333q99 0 172 -45l-41 -215q-50 37 -110 37q-53 0 -85.5 -32t-45.5 -105l-19 -109h324l31 166q62 334 350 334q96 0 166 -45l-39 -215q-50 37 -107 37q-106 0 -131 -137l-22 -140h188l-35 -204 h-190l-125 -709h-246zM1710 1393l-244 -1393h-247l245 1393h246z" />
<glyph horiz-adv-x="2048" />
<glyph horiz-adv-x="2048" />
<glyph unicode="&#xd;" horiz-adv-x="2048" />
<glyph unicode=" "  horiz-adv-x="389" />
<glyph unicode="&#x09;" horiz-adv-x="389" />
<glyph unicode="&#xa0;" horiz-adv-x="389" />
<glyph unicode="!" horiz-adv-x="530" d="M526 1217l-143 -816h-246l142 816h247zM59 145q0 68 47.5 117t114.5 49t116.5 -49.5t49.5 -116.5t-49 -114t-117 -47t-115 47t-47 114z" />
<glyph unicode="&#x22;" horiz-adv-x="741" d="M170 850l113 469h213l-150 -469h-176zM471 850l113 469h213l-154 -469h-172z" />
<glyph unicode="#" horiz-adv-x="1153" d="M403 322l-120 -322h-193l121 322h-148l33 170h180l91 239h-164l30 170h197l119 316h192l-118 -316h194l119 316h192l-118 -316h137l-29 -170h-172l-90 -239h154l-31 -170h-188l-121 -322h-193l121 322h-195zM469 492h195l90 239h-195z" />
<glyph unicode="$" horiz-adv-x="950" d="M737 1393l-32 -189q129 -26 221 -98l-45 -244q-136 139 -314 139q-82 0 -125 -32t-43 -92q0 -54 42 -86t128 -66q158 -60 229.5 -137t71.5 -209q0 -164 -103.5 -260.5t-272.5 -114.5l-35 -199h-195l37 205q-169 26 -268 117l45 240q67 -65 155.5 -108.5t182.5 -43.5 q87 0 139.5 34.5t52.5 102.5q0 55 -41.5 88t-124.5 66q-77 27 -128.5 55t-93.5 68t-61.5 94.5t-19.5 126.5q0 151 100.5 249t272.5 115l31 179h194z" />
<glyph unicode="%" horiz-adv-x="1486" d="M1083 -20q-125 0 -205.5 79.5t-80.5 204.5q0 139 95 231.5t228 92.5q125 0 207 -80t82 -205q0 -137 -96.5 -230t-229.5 -93zM1092 160q58 0 93.5 37.5t35.5 99.5q0 51 -30.5 82t-78.5 31q-58 0 -93.5 -38t-35.5 -102q0 -49 30.5 -79.5t78.5 -30.5zM446 1237 q125 0 206 -80t81 -205q0 -139 -95 -231t-228 -92q-125 0 -207 79.5t-82 204.5q0 138 95.5 231t229.5 93zM436 1057q-56 0 -91.5 -37.5t-35.5 -99.5q0 -51 30.5 -82t78.5 -31q57 0 93 38t36 101q0 50 -30.5 80.5t-80.5 30.5zM1327 1217l-944 -1217h-180l944 1217h180z" />
<glyph unicode="&#x26;" horiz-adv-x="1216" d="M856 0l-65 86q-162 -106 -353 -106q-186 0 -290.5 90t-104.5 235q0 71 24 128t69 99t97.5 71.5t122.5 55.5q-82 126 -82 242q0 149 106 242.5t263 93.5q152 0 241 -77.5t89 -215.5q0 -117 -78.5 -202t-202.5 -138l150 -198q66 101 96 225h211q-48 -226 -184 -391 l178 -240h-287zM674 238l-213 282q-170 -78 -170 -196q0 -64 46.5 -106t125.5 -42q111 0 211 62zM582 754l6 -9q155 70 155 187q0 50 -30.5 79t-77.5 29q-55 0 -89 -34t-34 -93q0 -71 70 -159z" />
<glyph unicode="'" horiz-adv-x="440" d="M170 850l113 469h213l-148 -469h-178z" />
<glyph unicode="(" horiz-adv-x="808" d="M657 -283h-264q-114 126 -177.5 296.5t-63.5 373.5q0 281 141.5 549t376.5 457h284q-268 -223 -413.5 -481.5t-145.5 -524.5q0 -366 262 -670z" />
<glyph unicode=")" horiz-adv-x="808" d="M195 1393h264q114 -126 177.5 -296.5t63.5 -373.5q0 -280 -141.5 -548t-374.5 -458h-286q268 223 413.5 481.5t145.5 524.5q0 366 -262 670z" />
<glyph unicode="*" horiz-adv-x="784" d="M453 924l-152 -142l-121 129l156 140l-180 100l90 160l178 -111l39 205l178 -39l-49 -203l207 29l20 -180l-209 -21l90 -188l-165 -74z" />
<glyph unicode="+" horiz-adv-x="940" d="M381 506h-295l31 186h297l51 295h184l-51 -295h295l-31 -186h-297l-51 -295h-184z" />
<glyph unicode="," horiz-adv-x="540" d="M125 231h256q-26 -151 -108 -275.5t-185 -191.5h-180q165 190 217 467z" />
<glyph unicode="-" horiz-adv-x="727" d="M80 424l41 219h549l-41 -219h-549z" />
<glyph unicode="." horiz-adv-x="540" d="M61 145q0 68 47.5 117t114.5 49t116.5 -49.5t49.5 -116.5t-49 -114t-117 -47t-115 47t-47 114z" />
<glyph unicode="/" horiz-adv-x="933" d="M-111 -283l936 1676h256l-938 -1676h-254z" />
<glyph unicode="0" horiz-adv-x="1079" d="M504 -20q-196 0 -308 142t-112 372q0 157 42.5 295.5t115.5 236.5t176 154.5t219 56.5q196 0 307 -141.5t111 -372.5q0 -157 -42 -295.5t-115 -236.5t-175.5 -154.5t-218.5 -56.5zM627 1018q-121 0 -204 -146.5t-83 -375.5q0 -139 44.5 -218t129.5 -79q119 0 202 146.5 t83 375.5q0 140 -43.5 218.5t-128.5 78.5z" />
<glyph unicode="1" horiz-adv-x="665" d="M106 922l41 233l498 80l-217 -1235h-254l166 952z" />
<glyph unicode="2" horiz-adv-x="909" d="M334 227h485l-39 -227h-827l37 205q264 190 341 252q223 178 275 310q19 48 19 93q0 67 -37.5 103t-110.5 36q-83 0 -175 -40t-171 -103l45 250q163 131 385 131q167 0 255.5 -83.5t88.5 -231.5q0 -83 -31 -163.5t-81 -147.5t-127.5 -137.5t-154 -126t-177.5 -120.5z" />
<glyph unicode="3" horiz-adv-x="851" d="M143 897l39 236q143 104 340 104q158 0 243 -79t85 -210q0 -134 -79 -220t-198 -118q94 -33 146.5 -99.5t52.5 -160.5q0 -171 -127 -270.5t-328 -99.5q-109 0 -198.5 29t-147.5 73l39 225q142 -114 293 -114q95 0 154 41t59 120q0 74 -59 111t-189 41l35 199 q133 6 205 55.5t72 136.5q0 55 -34.5 85t-99.5 30q-137 0 -303 -115z" />
<glyph unicode="4" horiz-adv-x="1114" d="M1018 1217l-129 -719h182l-35 -205h-182l-51 -293h-246l51 293h-579l37 211l700 713h252zM719 922l-410 -424h334z" />
<glyph unicode="5" horiz-adv-x="854" d="M459 987l-53 -211q176 -29 277 -121.5t101 -253.5q0 -192 -128.5 -306.5t-340.5 -114.5q-205 0 -340 104l39 225q57 -50 135.5 -83t161.5 -33q106 0 168 46t62 138q0 48 -21.5 84.5t-56 59.5t-88.5 39.5t-107.5 25t-124.5 14.5l150 617h612l-41 -230h-405z" />
<glyph unicode="6" horiz-adv-x="983" d="M590 1217h297l-283 -336l-100 -99q43 19 76 19q157 0 261.5 -106t104.5 -273q0 -194 -129 -318t-334 -124q-196 0 -311 111t-115 290q0 56 13.5 111t32 98t50.5 92t57 81.5t62 76.5zM514 608q-90 0 -151.5 -61.5t-61.5 -163.5q0 -86 55 -139.5t140 -53.5q89 0 150 62 t61 164q0 85 -54.5 138.5t-138.5 53.5z" />
<glyph unicode="7" horiz-adv-x="890" d="M645 987h-536l41 230h815l-43 -232l-643 -985h-279z" />
<glyph unicode="8" horiz-adv-x="954" d="M471 -20q-118 0 -213 36t-155 114.5t-60 188.5q0 126 78.5 210t189.5 106q-65 36 -103 100t-38 146q0 84 31.5 152.5t85 112.5t121.5 67.5t143 23.5q163 0 267 -87.5t104 -238.5q0 -111 -55.5 -192t-145.5 -113q76 -33 125 -103.5t49 -166.5q0 -165 -122 -260.5 t-302 -95.5zM543 737q64 0 107.5 42t43.5 110q0 62 -39 101.5t-102 39.5q-65 0 -108.5 -42.5t-43.5 -110.5q0 -62 39.5 -101t102.5 -39zM469 186q75 0 124.5 45.5t49.5 122.5q0 70 -48 113t-122 43q-75 0 -124.5 -45.5t-49.5 -124.5q0 -69 47.5 -111.5t122.5 -42.5z" />
<glyph unicode="9" horiz-adv-x="983" d="M451 0h-297l282 336l101 98q-41 -18 -76 -18q-157 0 -262 106t-105 273q0 194 129 318t334 124q196 0 311 -111t115 -290q0 -56 -13.5 -111t-32 -98t-50.5 -92t-57 -81.5t-62 -76.5zM526 608q90 0 151.5 62t61.5 164q0 86 -54.5 139t-139.5 53q-89 0 -150 -62t-61 -163 q0 -86 54 -139.5t138 -53.5z" />
<glyph unicode=":" horiz-adv-x="540" d="M61 145q0 68 47.5 117t114.5 49t116.5 -49.5t49.5 -116.5t-49 -114t-117 -47t-115 47t-47 114zM162 715q0 68 47.5 117t114.5 49t116 -49t49 -117q0 -67 -48.5 -114.5t-116.5 -47.5t-115 47.5t-47 114.5z" />
<glyph unicode=";" horiz-adv-x="540" d="M125 231h256q-26 -151 -108 -275.5t-185 -191.5h-180q165 190 217 467zM162 715q0 68 47.5 117t114.5 49t116 -49t49 -117q0 -67 -48.5 -114.5t-116.5 -47.5t-115 47.5t-47 114.5z" />
<glyph unicode="&#x3c;" horiz-adv-x="718" d="M86 588l4 16l645 367l-39 -221l-307 -162l250 -162l-35 -205z" />
<glyph unicode="=" horiz-adv-x="960" d="M76 365l30 167h777l-31 -167h-776zM129 670l31 170h776l-31 -170h-776z" />
<glyph unicode="&#x3e;" horiz-adv-x="718" d="M696 604l-4 -16l-645 -367l39 221l307 162l-250 162l35 205z" />
<glyph unicode="?" horiz-adv-x="792" d="M123 877l45 251q61 48 146.5 78.5t172.5 30.5q166 0 258.5 -83.5t92.5 -229.5q0 -89 -29.5 -157.5t-85.5 -114.5t-120 -75.5t-150 -52.5l-21 -123h-229l45 254q82 16 138 33.5t105.5 44.5t74 66t24.5 92q0 56 -36 88.5t-101 32.5q-165 0 -330 -135zM127 145 q0 68 47.5 117t114.5 49q69 0 117.5 -49t48.5 -117q0 -67 -48.5 -114t-117.5 -47q-68 0 -115 47t-47 114z" />
<glyph unicode="@" horiz-adv-x="1579" d="M1204 768l-100 -563q110 40 187 152.5t77 273.5q0 193 -130.5 304.5t-358.5 111.5q-192 0 -338.5 -84.5t-224.5 -232t-78 -335.5q0 -120 38 -217t100.5 -160t146.5 -105.5t172.5 -60.5t181.5 -18q214 0 415 78l-22 -135q-69 -32 -180 -53t-216 -21q-127 0 -241.5 25.5 t-214.5 81t-173 135.5t-115 195.5t-42 254.5q0 160 56.5 303t157.5 249.5t251 168.5t328 62q300 0 468.5 -151.5t168.5 -395.5q0 -148 -51.5 -265.5t-141 -190t-203 -110.5t-243.5 -38q-217 0 -339 98.5t-122 288.5q0 194 130 316t337 122q180 0 319 -84zM911 197l78 448 q-43 19 -108 19q-117 0 -186.5 -65.5t-69.5 -184.5q0 -103 65 -159.5t180 -61.5q13 0 41 4z" />
<glyph unicode="A" horiz-adv-x="1261" d="M915 0l-53 262h-522l-143 -262h-273l678 1217h313l267 -1217h-267zM721 963l-268 -494h366z" />
<glyph unicode="B" horiz-adv-x="1054" d="M63 16l209 1192q160 29 310 29q438 0 438 -319q0 -122 -70 -201.5t-188 -98.5q231 -35 231 -251q0 -186 -160.5 -285.5t-439.5 -99.5q-201 0 -330 34zM393 506l-53 -303q50 -6 113 -6q119 0 193.5 41t74.5 131q0 137 -199 137h-129zM481 1012l-51 -297h96q105 0 169.5 40 t64.5 124q0 68 -45.5 104.5t-122.5 36.5q-49 0 -111 -8z" />
<glyph unicode="C" horiz-adv-x="1126" d="M1153 1118l-45 -250q-132 138 -324 138q-190 0 -303.5 -123.5t-113.5 -323.5q0 -159 93.5 -253.5t244.5 -94.5q92 0 173 23.5t171 82.5l-45 -266q-125 -71 -310 -71q-273 0 -432.5 159t-159.5 418q0 206 90 362t244 237t348 81q218 0 369 -119z" />
<glyph unicode="D" horiz-adv-x="1275" d="M63 23l209 1183q145 31 338 31q298 0 462.5 -151.5t164.5 -419.5q0 -139 -39.5 -253t-109.5 -193.5t-168 -133.5t-213 -79t-246 -25q-111 0 -222.5 11.5t-175.5 29.5zM492 993l-136 -772q50 -12 140 -12q101 0 184 25t149.5 77t104 142.5t37.5 212.5q0 155 -96 244 t-265 89q-56 0 -118 -6z" />
<glyph unicode="E" horiz-adv-x="999" d="M352 227h525l-39 -227h-775l213 1217h760l-39 -228h-512l-47 -266h469l-39 -223h-469z" />
<glyph unicode="F" horiz-adv-x="905" d="M322 0h-259l213 1217h711l-39 -228h-454l-54 -305h412l-39 -225h-412z" />
<glyph unicode="G" horiz-adv-x="1214" d="M1182 1122l-47 -256q-59 63 -150.5 101.5t-193.5 38.5q-192 0 -308 -121t-116 -330q0 -152 91 -250t236 -98q82 0 135 20l62 336h254l-88 -506q-167 -77 -363 -77q-269 0 -430.5 160t-161.5 415q0 157 54.5 286.5t148 215.5t219 133t267.5 47q237 0 391 -115z" />
<glyph unicode="H" horiz-adv-x="1349" d="M1348 1217l-213 -1217h-258l86 494h-555l-86 -494h-259l213 1217h259l-89 -494h558l86 494h258z" />
<glyph unicode="I" horiz-adv-x="534" d="M535 1217l-213 -1217h-259l213 1217h259z" />
<glyph unicode="J" horiz-adv-x="782" d="M-23 72l43 241q95 -98 220 -98q142 0 166 143l149 859h260l-158 -889q-31 -180 -138 -264t-267 -84q-83 0 -160.5 26t-114.5 66z" />
<glyph unicode="K" horiz-adv-x="1146" d="M432 602l514 615h305l-536 -619l370 -598h-290l-363 600v2zM535 1217l-213 -1217h-259l213 1217h259z" />
<glyph unicode="L" horiz-adv-x="911" d="M63 0l213 1217h259l-175 -990h480l-39 -227h-738z" />
<glyph unicode="M" horiz-adv-x="1677" d="M885 0h-240l-119 848l-270 -848h-254l385 1217h305l125 -900l426 900h316l-33 -1217h-254l22 846z" />
<glyph unicode="N" horiz-adv-x="1351" d="M530 1217l422 -844l150 844h250l-213 -1217h-240l-440 838l-146 -838h-250l213 1217h254z" />
<glyph unicode="O" horiz-adv-x="1386" d="M696 -20q-268 0 -431 160t-163 423q0 137 46.5 259.5t129 214.5t206 146t268.5 54q268 0 431 -160.5t163 -423.5q0 -183 -78.5 -335.5t-228.5 -245t-343 -92.5zM696 211q171 0 278 124t107 318q0 156 -89 254.5t-240 98.5q-171 0 -278 -124.5t-107 -318.5 q0 -156 89.5 -254t239.5 -98z" />
<glyph unicode="P" horiz-adv-x="1034" d="M387 383l-65 -383h-259l211 1210q181 27 318 27q219 0 341 -105t122 -301q0 -119 -44.5 -208.5t-123 -142t-175 -78t-210.5 -25.5q-40 0 -115 6zM498 1001l-72 -399q32 -4 96 -4q125 0 199 55.5t74 171.5q0 88 -57 135.5t-152 47.5q-44 0 -88 -7z" />
<glyph unicode="Q" horiz-adv-x="1386" d="M877 -291l-226 273q-249 14 -399 171.5t-150 409.5q0 137 46.5 259.5t129 214.5t206 146t268.5 54q268 0 431 -160.5t163 -423.5q0 -221 -114 -395t-310 -242l249 -307h-294zM696 211q171 0 278 124t107 318q0 156 -89 254.5t-240 98.5q-171 0 -278 -124.5t-107 -318.5 q0 -156 89.5 -254t239.5 -98z" />
<glyph unicode="R" horiz-adv-x="1103" d="M391 410l-72 -410h-256l213 1212q154 25 316 25q228 0 348.5 -98.5t120.5 -290.5q0 -149 -84.5 -251.5t-218.5 -141.5l278 -455h-293l-237 410h-115zM496 1010l-68 -387h90q124 0 201.5 53t77.5 168q0 170 -211 170q-50 0 -90 -4z" />
<glyph unicode="S" horiz-adv-x="950" d="M928 1122l-45 -250q-63 67 -143.5 104.5t-168.5 37.5q-81 0 -123 -34t-42 -97q0 -54 40.5 -86t124.5 -66q157 -63 228 -143t71 -217q0 -188 -128 -289.5t-324 -101.5q-122 0 -225 38t-160 93l45 247q67 -67 155.5 -111t182.5 -44q87 0 138.5 35t51.5 106q0 56 -40 90 t-122 68q-77 29 -128 58t-92.5 70t-61 96.5t-19.5 129.5q0 170 118.5 275.5t316.5 105.5q106 0 196.5 -32t153.5 -83z" />
<glyph unicode="T" horiz-adv-x="1060" d="M754 989l-174 -989h-258l174 989h-375l39 228h1007l-41 -228h-372z" />
<glyph unicode="U" horiz-adv-x="1232" d="M115 459l133 758h258l-129 -736q-8 -44 -8 -94q0 -190 233 -190q128 0 203 16l176 1004h258l-207 -1182q-82 -24 -208 -39.5t-224 -15.5q-111 0 -200 21t-156 64t-103.5 114.5t-36.5 168.5q0 39 11 111z" />
<glyph unicode="V" horiz-adv-x="1239" d="M690 0h-315l-238 1217h266l177 -957l507 957h279z" />
<glyph unicode="W" horiz-adv-x="1732" d="M877 1217h251l74 -926l371 926h260l-510 -1217h-324l-53 860l-366 -860h-322l-86 1217h258l55 -926z" />
<glyph unicode="X" horiz-adv-x="1173" d="M180 1217h287l190 -400l316 400h293l-498 -601l317 -616h-280l-215 440l-363 -440h-293l543 643z" />
<glyph unicode="Y" horiz-adv-x="1140" d="M608 698l369 519h291l-572 -764l-80 -453h-256l80 453l-303 764h277z" />
<glyph unicode="Z" horiz-adv-x="1056" d="M182 989l41 228h889l-41 -226l-727 -764h608l-41 -227h-907l37 225l719 764h-578z" />
<glyph unicode="[" horiz-adv-x="751" d="M582 1198l-228 -1288h215l-34 -193h-445l295 1676h444l-32 -195h-215z" />
<glyph unicode="\" horiz-adv-x="921" d="M440 1393l351 -1676h-230l-350 1676h229z" />
<glyph unicode="]" horiz-adv-x="751" d="M219 -88l227 1288h-215l35 193h443l-295 -1676h-443l33 195h215z" />
<glyph unicode="^" horiz-adv-x="913" d="M690 1217l213 -525h-225l-123 312l-233 -312h-250l397 525h221z" />
<glyph unicode="_" horiz-adv-x="946" d="M-18 -307l36 203h742l-37 -203h-741z" />
<glyph unicode="`" horiz-adv-x="1024" d="M678 1051h-211l-121 311h215z" />
<glyph unicode="a" horiz-adv-x="937" d="M193 657l36 213q125 64 303 64q152 0 239 -63t87 -193q0 -40 -10 -98l-96 -557q-157 -41 -316 -41q-183 0 -289 67t-106 203q0 150 119.5 220.5t328.5 70.5h109l8 35q4 36 4 49q0 51 -33.5 74.5t-105.5 23.5q-151 0 -278 -68zM571 385h-84q-202 0 -202 -119 q0 -53 41 -78.5t110 -25.5q52 0 96 8z" />
<glyph unicode="b" horiz-adv-x="1099" d="M299 1393h246l-84 -486q76 27 155 27q188 0 304 -115.5t116 -308.5q0 -244 -150 -387t-413 -143q-119 0 -233 24.5t-172 63.5zM422 688l-82 -473q56 -27 145 -27q141 0 222 82.5t81 227.5q0 100 -58.5 162.5t-154.5 62.5q-88 0 -153 -35z" />
<glyph unicode="c" horiz-adv-x="890" d="M803 262l-41 -231q-117 -51 -256 -51q-191 0 -315.5 117.5t-124.5 318.5q0 121 42 220.5t113.5 163.5t163.5 99t193 35q184 0 301 -88l-43 -234q-107 107 -256 107q-113 0 -189 -76t-76 -215q0 -104 65 -167.5t177 -63.5q126 0 246 65z" />
<glyph unicode="d" horiz-adv-x="1091" d="M1126 1393l-237 -1358q-181 -55 -338 -55q-227 0 -357.5 117t-130.5 321q0 155 71.5 273.5t193.5 180.5t276 62q110 0 189 -31l88 490h245zM672 203l84 483q-61 33 -152 33q-130 0 -209.5 -77.5t-79.5 -215.5q0 -104 64.5 -170t171.5 -66q68 0 121 13z" />
<glyph unicode="e" horiz-adv-x="993" d="M864 268l-39 -223q-124 -65 -309 -65q-205 0 -327.5 114t-122.5 318q0 145 59 262.5t174 188.5t266 71q191 0 285 -100t94 -261q0 -98 -35 -182h-600v-16q10 -91 76 -140t166 -49q163 0 313 82zM322 541h385q4 28 4 41q0 69 -41 112t-113 43q-89 0 -149.5 -52t-85.5 -144 z" />
<glyph unicode="f" horiz-adv-x="655" d="M451 709l-125 -709h-248l125 709h-144l37 204h144l24 146q32 182 126.5 268t250.5 86q115 0 201 -49l-41 -221q-62 47 -146 47q-63 0 -98.5 -35.5t-48.5 -118.5l-23 -123h224l-37 -204h-221z" />
<glyph unicode="g" horiz-adv-x="1077" d="M57 -295l39 219q146 -106 301 -106q103 0 160 45.5t76 140.5l6 31q-60 -29 -150 -29q-190 0 -303.5 106.5t-113.5 299.5q0 239 149 380.5t406 141.5q235 0 399 -100l-145 -828q-38 -215 -159 -305t-323 -90q-97 0 -191 25.5t-151 68.5zM674 233l82 459q-63 29 -144 29 q-133 0 -210.5 -77t-77.5 -214q0 -101 58.5 -160t164.5 -59q55 0 127 22z" />
<glyph unicode="h" horiz-adv-x="1081" d="M883 0h-246l94 539q6 29 6 63q0 111 -137 111q-79 0 -178 -31l-119 -682h-248l244 1393h248l-88 -496q93 37 215 37q146 0 230.5 -64t84.5 -206q0 -46 -10 -121z" />
<glyph unicode="i" horiz-adv-x="509" d="M463 913l-160 -913h-248l162 913h246zM383 1051q-60 0 -103.5 42.5t-43.5 102.5q0 63 43.5 106.5t103.5 43.5q59 0 103 -44t44 -106q0 -59 -44 -102t-103 -43z" />
<glyph unicode="j" horiz-adv-x="509" d="M383 1051q-60 0 -103.5 42.5t-43.5 102.5q0 63 43.5 106.5t103.5 43.5q59 0 103 -44t44 -106q0 -59 -44 -102t-103 -43zM-276 -340l36 203q73 -45 146 -45q61 0 94.5 28.5t46.5 104.5l170 962h246l-176 -997q-53 -305 -357 -305q-128 0 -206 49z" />
<glyph unicode="k" horiz-adv-x="1030" d="M688 0l-289 496l404 417h305l-442 -426l292 -487h-270zM547 1393l-244 -1393h-248l244 1393h248z" />
<glyph unicode="l" horiz-adv-x="509" d="M547 1393l-244 -1393h-248l244 1393h248z" />
<glyph unicode="m" horiz-adv-x="1574" d="M842 0h-248l98 541q4 29 4 63q0 111 -118 111q-65 0 -154 -29l-121 -686h-248l150 852q223 82 424 82q166 0 245 -70q151 70 300 70q311 0 311 -270q0 -46 -10 -121l-97 -543h-245l96 541q6 43 6 63q0 111 -121 111q-77 0 -172 -31q6 -42 6 -49q0 -17 -10 -90z" />
<glyph unicode="n" horiz-adv-x="1081" d="M883 0h-246l94 541q6 27 6 63q0 109 -139 109q-74 0 -176 -27l-119 -686h-248l150 852q238 82 432 82q171 0 261.5 -63.5t90.5 -206.5q0 -46 -10 -121z" />
<glyph unicode="o" d="M510 -20q-202 0 -323 121.5t-121 314.5q0 145 60 262t177.5 186.5t271.5 69.5q203 0 325 -121t122 -315q0 -144 -60.5 -261t-178.5 -187t-273 -70zM518 184q114 0 186 88t72 222q0 103 -56.5 168t-150.5 65q-114 0 -186 -87.5t-72 -219.5q0 -103 56.5 -169.5t150.5 -66.5 z" />
<glyph unicode="p" horiz-adv-x="1099" d="M-10 -369l215 1225q79 35 179.5 56.5t193.5 21.5q217 0 337.5 -114.5t120.5 -313.5q0 -239 -146.5 -382.5t-395.5 -143.5q-101 0 -189 38l-67 -387h-248zM422 686l-80 -461q64 -37 145 -37q138 0 219.5 82.5t81.5 223.5q0 103 -59 162t-158 59q-77 0 -149 -29z" />
<glyph unicode="q" d="M817 -369h-248l64 365q-50 -16 -111 -16q-208 0 -333.5 115.5t-125.5 316.5q0 241 154.5 381.5t411.5 140.5q223 0 399 -105zM672 207l82 481q-57 31 -146 31q-135 0 -214 -77t-79 -216q0 -104 64 -170t170 -66q57 0 123 17z" />
<glyph unicode="r" horiz-adv-x="727" d="M766 903l-39 -229q-51 22 -147 22q-93 0 -158 -20l-119 -676h-248l150 846q74 38 180 61t195 23q92 0 186 -27z" />
<glyph unicode="s" horiz-adv-x="825" d="M29 90l39 221q147 -131 292 -131q121 0 121 88q0 32 -25 51t-87 41q-127 39 -192.5 101t-65.5 174q0 143 100.5 221t259.5 78q184 0 295 -90l-41 -219q-110 110 -254 110q-55 0 -85 -20.5t-30 -59.5q0 -31 24.5 -49.5t78.5 -40.5q139 -44 204.5 -108.5t65.5 -169.5 q0 -148 -101.5 -227.5t-265.5 -79.5q-103 0 -190 29t-143 81z" />
<glyph unicode="t" horiz-adv-x="720" d="M49 709l37 204h137l39 226h246l-39 -226h244l-35 -204h-246l-61 -359q-9 -52 -9 -67q0 -86 101 -86q89 0 180 51l-39 -217q-105 -51 -225 -51q-55 0 -101 12.5t-84.5 39.5t-60.5 76t-22 117q0 43 8 90l67 394h-137z" />
<glyph unicode="u" horiz-adv-x="1042" d="M190 913h246l-96 -555q-6 -30 -6 -57q0 -61 37.5 -90t117.5 -29q66 0 136 15l127 716h245l-155 -884q-198 -49 -365 -49q-193 0 -294 66t-101 214q0 37 10 105z" />
<glyph unicode="v" horiz-adv-x="997" d="M84 913h242l114 -671l361 671h260l-518 -913h-289z" />
<glyph unicode="w" horiz-adv-x="1423" d="M893 913l47 -645l295 645h252l-438 -913h-275l-49 588l-279 -588h-272l-90 913h244l53 -645l301 645h211z" />
<glyph unicode="x" horiz-adv-x="980" d="M1034 913l-405 -450l268 -463h-264l-166 297l-260 -297h-283l434 477l-249 436h264l147 -278l232 278h282z" />
<glyph unicode="y" horiz-adv-x="1009" d="M340 913l123 -645l350 645h262l-739 -1282h-250l201 361l-199 921h252z" />
<glyph unicode="z" horiz-adv-x="876" d="M782 205l-34 -205h-760l35 199l520 510h-416l37 204h715l-37 -204l-523 -504h463z" />
<glyph unicode="{" horiz-adv-x="786" d="M643 1087l-43 -241q-47 -270 -295 -291q88 -5 143.5 -62.5t55.5 -158.5q0 -48 -26.5 -179.5t-26.5 -172.5q0 -72 77 -72h66l-33 -193h-94q-121 0 -186.5 56.5t-65.5 165.5q0 51 29.5 196t29.5 197q0 123 -131 123h-57l37 200h57q153 0 187 174l45 261q55 303 321 303h123 l-35 -193h-59q-53 0 -80.5 -27.5t-38.5 -85.5z" />
<glyph unicode="|" horiz-adv-x="606" d="M63 -283l295 1676h230l-295 -1676h-230z" />
<glyph unicode="}" horiz-adv-x="786" d="M182 23l43 241q50 270 295 291q-88 5 -143 62.5t-55 158.5q0 48 27.5 179.5t27.5 172.5q0 72 -78 72h-68l35 193h92q121 0 186.5 -56.5t65.5 -165.5q0 -51 -29.5 -196t-29.5 -197q0 -123 131 -123h57l-37 -200h-55q-155 0 -186 -174l-47 -261q-52 -303 -322 -303h-121 l33 193h59q53 0 81.5 27.5t37.5 85.5z" />
<glyph unicode="~" horiz-adv-x="876" d="M647 698h182q-26 -145 -95 -225t-169 -80q-32 0 -60 11t-47 27.5t-36 32.5t-35.5 27t-38.5 11q-69 0 -86 -101h-180q25 145 93.5 225.5t168.5 80.5q33 0 61 -11t47.5 -26.5t37 -31.5t36 -27t37.5 -11q67 0 84 98z" />
<glyph unicode="&#xa1;" horiz-adv-x="530" d="M31 -291l143 817h246l-141 -817h-248zM498 782q0 -68 -47.5 -117t-114.5 -49q-68 0 -117 49t-49 117q0 67 49 114.5t117 47.5t115 -47t47 -115z" />
<glyph unicode="&#xa2;" horiz-adv-x="890" d="M532 -20l-30 -175h-195l37 199q-127 44 -202.5 151t-75.5 261q0 110 35 202.5t95.5 156.5t139.5 103.5t170 51.5l33 188h194l-35 -194q105 -20 181 -78l-43 -234q-107 107 -256 107q-113 0 -189 -76t-76 -215q0 -104 65 -167.5t177 -63.5q126 0 246 65l-41 -231 q-105 -45 -230 -51z" />
<glyph unicode="&#xa3;" horiz-adv-x="946" d="M229 498h-147l35 198h147l25 131q36 205 150.5 307.5t283.5 102.5q84 0 153.5 -25.5t108.5 -68.5l-47 -254q-78 110 -207 110q-169 0 -199 -192l-20 -111h276l-36 -198h-277q-19 -98 -65 -167t-105 -108h555l-41 -225h-825l41 225q83 39 127 102t67 173z" />
<glyph unicode="&#xa4;" horiz-adv-x="1181" d="M948 141l-127 142q-100 -62 -225 -62q-148 0 -248 84l-162 -143l-86 98l164 150q-43 79 -43 182q0 153 90 270l-127 146l103 90l125 -142q109 72 241 72t224 -70l170 152l88 -98l-166 -148q59 -89 59 -207q0 -166 -104 -286l129 -140zM608 424q86 0 145.5 62t59.5 155 q0 80 -49 132t-127 52q-84 0 -143.5 -62t-59.5 -155q0 -79 49.5 -131.5t124.5 -52.5z" />
<glyph unicode="&#xa5;" horiz-adv-x="1103" d="M381 586l-229 631h268l166 -508l332 508h286l-452 -631h202l-22 -133h-262l-19 -109h260l-24 -133h-258l-37 -211h-256l37 211h-262l24 133h262l19 109h-260l22 133h203z" />
<glyph unicode="&#xa6;" horiz-adv-x="606" d="M236 694l122 699h230l-123 -699h-229zM63 -283l123 699h230l-123 -699h-230z" />
<glyph unicode="&#xa7;" horiz-adv-x="974" d="M895 1141l-47 -215q-107 110 -250 110q-55 0 -87 -19t-32 -56t32 -64.5t116 -62.5q139 -60 207.5 -132.5t68.5 -187.5q0 -110 -60 -186.5t-159 -110.5q57 -66 57 -158q0 -140 -103 -219.5t-259 -79.5q-179 0 -295 97l47 215q108 -111 250 -111q54 0 86.5 19.5t32.5 56.5 t-32 64.5t-116 62.5q-139 60 -206.5 132t-67.5 187q0 109 59.5 186t159.5 109q-59 68 -59 160q0 140 103 219.5t259 79.5q180 0 295 -96zM459 362l57 -28q75 12 117.5 50.5t42.5 92.5q0 53 -33.5 85t-120.5 73l-59 27q-74 -10 -117 -49.5t-43 -92.5q0 -52 33 -82t123 -76z " />
<glyph unicode="&#xa8;" horiz-adv-x="1024" d="M326 1044q-58 0 -100 42t-42 102q0 58 42 98.5t100 40.5t99.5 -40.5t41.5 -98.5q0 -60 -42 -102t-99 -42zM694 1044q-57 0 -98 42t-41 102q0 58 41 98.5t98 40.5q59 0 101.5 -40.5t42.5 -98.5q0 -60 -42.5 -102t-101.5 -42z" />
<glyph unicode="&#xa9;" horiz-adv-x="1429" d="M700 -20q-169 0 -303 76t-208 209t-74 298q0 186 87 340.5t239.5 244t336.5 89.5q169 0 303.5 -76.5t208.5 -209.5t74 -298q0 -139 -51.5 -264t-139.5 -214.5t-211.5 -142t-261.5 -52.5zM700 55q163 0 295.5 76.5t208.5 213.5t76 308q0 224 -140.5 366t-361.5 142 q-163 0 -295.5 -76.5t-208 -213.5t-75.5 -308q0 -224 140 -366t361 -142zM1040 936l-36 -203q-88 88 -205 88q-99 0 -159 -60.5t-60 -168.5q0 -90 51.5 -143.5t134.5 -53.5q112 0 215 68l-37 -211q-81 -47 -196 -47q-176 0 -278.5 104t-102.5 275q0 193 122.5 309.5 t309.5 116.5q148 0 241 -74z" />
<glyph unicode="&#xaa;" horiz-adv-x="712" d="M190 1012l31 174q94 51 234 51q120 0 192 -54t72 -155q0 -49 -6 -82l-72 -411q-136 -33 -256 -33q-142 0 -225.5 52.5t-83.5 158.5q0 114 91.5 168.5t252.5 54.5h86l2 18q4 28 4 33q0 76 -106 76q-127 0 -216 -51zM483 809h-59q-141 0 -141 -84q0 -72 106 -72q22 0 68 4z " />
<glyph unicode="&#xab;" horiz-adv-x="1007" d="M623 764l-306 -326l207 -321h-235l-211 323l311 324h234zM985 764l-305 -326l207 -321h-238l-209 323l312 324h233z" />
<glyph unicode="&#xad;" horiz-adv-x="727" d="M80 424l41 219h549l-41 -219h-549z" />
<glyph unicode="&#xae;" horiz-adv-x="931" d="M549 1237q160 0 262 -103t102 -257q0 -176 -118.5 -296t-294.5 -120q-160 0 -262.5 103t-102.5 257q0 175 119 295.5t295 120.5zM549 1165q-141 0 -236.5 -99t-95.5 -245q0 -124 79 -206.5t204 -82.5q141 0 236 99.5t95 245.5q0 124 -78.5 206t-203.5 82zM475 774 l-20 -112h-111l68 376q62 15 120 15q79 0 123.5 -33.5t44.5 -99.5q0 -49 -26.5 -82.5t-65.5 -46.5l78 -129h-119l-61 112h-31zM506 950l-17 -90h29q70 0 70 51q0 43 -49 43q-9 0 -33 -4z" />
<glyph unicode="&#xaf;" horiz-adv-x="1024" d="M258 1067l31 182h477l-33 -182h-475z" />
<glyph unicode="&#xb0;" horiz-adv-x="616" d="M375 1235q108 0 174.5 -66t66.5 -168q0 -115 -77 -192.5t-195 -77.5q-108 0 -175 67t-67 169q0 115 77.5 191.5t195.5 76.5zM371 1106q-59 0 -95 -38t-36 -97q0 -46 29.5 -78.5t78.5 -32.5q59 0 95 38t36 99q0 46 -29.5 77.5t-78.5 31.5z" />
<glyph unicode="&#xb1;" horiz-adv-x="940" d="M414 649h-281l33 187h280l37 213h185l-37 -213h280l-30 -187h-283l-37 -213h-184zM47 170l33 184h747l-32 -184h-748z" />
<glyph unicode="&#xb2;" horiz-adv-x="595" d="M315 657h275l-29 -168h-512l29 154q67 47 103 72.5t89 67t80 70.5t47.5 63t20.5 63q0 70 -74 70q-44 0 -101.5 -24t-97.5 -54l33 182q105 76 242 76q102 0 157.5 -52.5t55.5 -140.5q0 -60 -26 -116t-74.5 -103.5t-99.5 -84t-118 -75.5z" />
<glyph unicode="&#xb3;" horiz-adv-x="559" d="M156 1001l28 173q93 55 211 55q96 0 148.5 -49t52.5 -129q0 -78 -45 -127t-113 -70q115 -50 115 -158q0 -103 -79 -161t-204 -58q-126 0 -215 60l29 172q89 -68 174 -68q44 0 72 17t28 53q0 33 -31 50.5t-102 18.5l23 138q143 3 143 86q0 25 -16.5 40t-46.5 15 q-75 0 -172 -58z" />
<glyph unicode="&#xb4;" horiz-adv-x="1024" d="M516 1051h-237l227 311h239z" />
<glyph unicode="&#xb5;" horiz-adv-x="1042" d="M289 29l-70 -398h-252l232 1282h245l-96 -555q-6 -30 -6 -57q0 -61 38 -90t118 -29q64 0 135 15l127 716h246l-156 -884q-198 -49 -352 -49q-147 0 -209 49z" />
<glyph unicode="&#xb6;" horiz-adv-x="1050" d="M627 -217l252 1434h192l-252 -1434h-192zM344 -217l123 700q-150 10 -253 98.5t-103 235.5q0 80 26 146.5t71.5 113t107 78.5t132.5 47t148 15h192l-251 -1434h-193z" />
<glyph unicode="&#xb7;" horiz-adv-x="552" d="M121 532q0 68 47.5 117t114.5 49t116.5 -49t49.5 -117q0 -67 -49 -114t-117 -47t-115 47t-47 114z" />
<glyph unicode="&#xb8;" horiz-adv-x="1024" d="M516 33h203q-15 -97 -72 -192t-125 -140h-217q86 70 142 157t69 175z" />
<glyph unicode="&#xb9;" horiz-adv-x="446" d="M119 999l33 179l333 51l-131 -740h-196l92 527z" />
<glyph unicode="&#xba;" horiz-adv-x="829" d="M461 502q-159 0 -254.5 95.5t-95.5 248.5q0 163 106.5 276t278.5 113q160 0 255 -94t95 -248q0 -165 -106.5 -278t-278.5 -113zM461 686q78 0 127 58.5t49 148.5q0 70 -38 115t-103 45q-77 0 -125.5 -58.5t-48.5 -148.5q0 -70 38 -115t101 -45z" />
<glyph unicode="&#xbb;" horiz-adv-x="1007" d="M16 117l306 325l-205 322h235l211 -324l-311 -323h-236zM379 117l305 325l-207 322h238l209 -324l-312 -323h-233z" />
<glyph unicode="&#xbc;" horiz-adv-x="1540" d="M166 999l33 179l333 51l-131 -740h-196l92 527zM1393 727l-78 -428h92l-23 -145h-96l-24 -154h-183l25 154h-340l29 153l407 420h191zM1174 524l-224 -225h183zM174 0l934 1217h180l-934 -1217h-180z" />
<glyph unicode="&#xbd;" horiz-adv-x="1548" d="M1120 168h273l-27 -168h-512l29 156q79 53 128 89.5t103 83t80.5 87t26.5 76.5q0 67 -72 67q-47 0 -103 -23.5t-96 -54.5l33 183q97 75 242 75q102 0 156.5 -51t54.5 -139q0 -49 -18.5 -95.5t-47 -84t-72 -75.5t-84.5 -66.5t-94 -59.5zM166 999l33 179l333 51l-131 -740 h-196l92 527zM174 0l934 1217h180l-934 -1217h-180z" />
<glyph unicode="&#xbe;" horiz-adv-x="1638" d="M203 1001l28 173q93 55 211 55q96 0 148.5 -49t52.5 -129q0 -78 -45 -127t-113 -70q115 -50 115 -158q0 -103 -79 -161t-204 -58q-126 0 -215 60l29 172q89 -68 174 -68q44 0 72.5 17t28.5 53q0 33 -31.5 50.5t-102.5 18.5l23 138q143 3 143 86q0 25 -16.5 40t-46.5 15 q-75 0 -172 -58zM1491 727l-78 -428h92l-22 -145h-97l-24 -154h-182l24 154h-340l29 153l407 420h191zM1272 524l-223 -225h182zM272 0l934 1217h180l-933 -1217h-181z" />
<glyph unicode="&#xbf;" horiz-adv-x="792" d="M705 51l-46 -252q-61 -48 -146.5 -78t-172.5 -30q-166 0 -258 83.5t-92 229.5q0 89 29.5 157.5t85.5 114t120 75t150 52.5l20 123h230l-45 -254q-65 -13 -112 -25.5t-93 -32t-74 -43.5t-45.5 -58t-17.5 -76q0 -56 36 -88.5t101 -32.5q165 0 330 135zM702 782 q0 -68 -47 -117t-114 -49q-69 0 -117.5 49t-48.5 117q0 67 48.5 114.5t117.5 47.5q67 0 114 -47t47 -115z" />
<glyph unicode="&#xc0;" horiz-adv-x="1261" d="M915 0l-53 262h-522l-143 -262h-273l678 1217h313l267 -1217h-267zM721 963l-268 -494h366zM879 1317h-213l-115 297h215z" />
<glyph unicode="&#xc1;" horiz-adv-x="1261" d="M915 0l-53 262h-522l-143 -262h-273l678 1217h313l267 -1217h-267zM721 963l-268 -494h366zM897 1317h-238l220 297h239z" />
<glyph unicode="&#xc2;" horiz-adv-x="1261" d="M915 0l-53 262h-522l-143 -262h-273l678 1217h313l267 -1217h-267zM721 963l-268 -494h366zM907 1614l183 -303h-193l-92 145l-143 -145h-211l292 303h164z" />
<glyph unicode="&#xc3;" horiz-adv-x="1261" d="M915 0l-53 262h-522l-143 -262h-273l678 1217h313l267 -1217h-267zM721 963l-268 -494h366zM971 1571h157q-22 -123 -81.5 -193.5t-143.5 -70.5q-34 0 -64.5 14.5t-48 31.5t-39 31.5t-40.5 14.5q-60 0 -74 -86h-158q22 123 82 194.5t144 71.5q34 0 64.5 -14.5t48.5 -32.5 t40 -32.5t41 -14.5q58 0 72 86z" />
<glyph unicode="&#xc4;" horiz-adv-x="1261" d="M915 0l-53 262h-522l-143 -262h-273l678 1217h313l267 -1217h-267zM721 963l-268 -494h366zM598 1294q-57 0 -99 42t-42 102q0 58 42 99.5t99 41.5q59 0 101 -41.5t42 -99.5q0 -60 -42 -102t-101 -42zM967 1294q-57 0 -98.5 42t-41.5 102q0 58 41.5 99.5t98.5 41.5 q60 0 102.5 -41.5t42.5 -99.5q0 -60 -42.5 -102t-102.5 -42z" />
<glyph unicode="&#xc5;" horiz-adv-x="1261" d="M915 0l-53 262h-522l-143 -262h-273l678 1217h313l267 -1217h-267zM721 963l-268 -494h366zM782 1280q-87 0 -138.5 51.5t-51.5 130.5q0 88 60 147.5t155 59.5q87 0 138.5 -51t51.5 -131q0 -88 -60 -147.5t-155 -59.5zM786 1391q39 0 65 25t26 67q0 33 -20.5 54.5 t-53.5 21.5q-39 0 -65.5 -25.5t-26.5 -67.5q0 -33 21 -54t54 -21z" />
<glyph unicode="&#xc6;" horiz-adv-x="1773" d="M1610 0h-774l45 262h-461l-207 -262h-289l946 1217h940l-41 -228h-505l-47 -266h464l-39 -223h-462l-50 -273h519zM1018 1022l-436 -553h336z" />
<glyph unicode="&#xc7;" horiz-adv-x="1126" d="M557 -299h-217q158 130 203 293q-206 43 -323.5 193.5t-117.5 369.5q0 206 90 362t244 237t348 81q218 0 369 -119l-45 -250q-132 138 -324 138q-190 0 -303.5 -123.5t-113.5 -323.5q0 -159 93.5 -253.5t244.5 -94.5q92 0 173 23.5t171 82.5l-45 -266q-110 -62 -263 -69 q-23 -86 -74.5 -164.5t-109.5 -116.5z" />
<glyph unicode="&#xc8;" horiz-adv-x="999" d="M774 1317h-213l-115 297h216zM352 227h525l-39 -227h-775l213 1217h760l-39 -228h-512l-47 -266h469l-39 -223h-469z" />
<glyph unicode="&#xc9;" horiz-adv-x="999" d="M795 1317h-238l219 297h240zM352 227h525l-39 -227h-775l213 1217h760l-39 -228h-512l-47 -266h469l-39 -223h-469z" />
<glyph unicode="&#xca;" horiz-adv-x="999" d="M352 227h525l-39 -227h-775l213 1217h760l-39 -228h-512l-47 -266h469l-39 -223h-469zM803 1614l182 -303h-192l-93 145l-143 -145h-211l293 303h164z" />
<glyph unicode="&#xcb;" horiz-adv-x="999" d="M512 1294q-57 0 -99 42t-42 102q0 58 42 99.5t99 41.5q59 0 101 -41.5t42 -99.5q0 -60 -42 -102t-101 -42zM881 1294q-57 0 -98.5 42t-41.5 102q0 58 41.5 99.5t98.5 41.5q60 0 102.5 -41.5t42.5 -99.5q0 -60 -42.5 -102t-102.5 -42zM352 227h525l-39 -227h-775l213 1217 h760l-39 -228h-512l-47 -266h469l-39 -223h-469z" />
<glyph unicode="&#xcc;" horiz-adv-x="534" d="M535 1217l-213 -1217h-259l213 1217h259zM518 1317h-213l-115 297h216z" />
<glyph unicode="&#xcd;" horiz-adv-x="534" d="M535 1217l-213 -1217h-259l213 1217h259zM539 1317h-238l219 297h240z" />
<glyph unicode="&#xce;" horiz-adv-x="534" d="M535 1217l-213 -1217h-259l213 1217h259zM547 1614l182 -303h-192l-93 145l-143 -145h-211l293 303h164z" />
<glyph unicode="&#xcf;" horiz-adv-x="534" d="M535 1217l-213 -1217h-259l213 1217h259zM256 1294q-57 0 -99 42t-42 102q0 58 42 99.5t99 41.5q59 0 101 -41.5t42 -99.5q0 -60 -42 -102t-101 -42zM625 1294q-57 0 -98.5 42t-41.5 102q0 58 41.5 99.5t98.5 41.5q60 0 102.5 -41.5t42.5 -99.5q0 -60 -42.5 -102 t-102.5 -42z" />
<glyph unicode="&#xd0;" horiz-adv-x="1290" d="M164 506h-115l37 211h115l86 489q145 31 338 31q298 0 462 -151.5t164 -419.5q0 -139 -39.5 -253t-109.5 -193.5t-168 -133.5t-213 -79t-246 -25q-111 0 -222 11.5t-175 29.5zM420 506l-49 -285q49 -12 139 -12q101 0 184 25t149.5 77t104 142.5t37.5 212.5 q0 155 -95.5 244t-264.5 89q-57 0 -119 -6l-49 -276h233l-37 -211h-233z" />
<glyph unicode="&#xd1;" horiz-adv-x="1351" d="M1026 1571h158q-22 -122 -82 -193t-144 -71q-34 0 -64.5 14.5t-48 31.5t-39 31.5t-40.5 14.5q-60 0 -74 -86h-157q22 123 81.5 194.5t143.5 71.5q34 0 64.5 -14.5t48.5 -32.5t40 -32.5t41 -14.5q58 0 72 86zM530 1217l422 -844l150 844h250l-213 -1217h-240l-440 838 l-146 -838h-250l213 1217h254z" />
<glyph unicode="&#xd2;" horiz-adv-x="1386" d="M911 1317h-213l-114 297h215zM696 -20q-268 0 -431 160t-163 423q0 137 46.5 259.5t129 214.5t206 146t268.5 54q268 0 431 -160.5t163 -423.5q0 -183 -78.5 -335.5t-228.5 -245t-343 -92.5zM696 211q171 0 278 124t107 318q0 156 -89 254.5t-240 98.5 q-171 0 -278 -124.5t-107 -318.5q0 -156 89.5 -254t239.5 -98z" />
<glyph unicode="&#xd3;" horiz-adv-x="1386" d="M946 1317h-237l219 297h239zM696 -20q-268 0 -431 160t-163 423q0 137 46.5 259.5t129 214.5t206 146t268.5 54q268 0 431 -160.5t163 -423.5q0 -183 -78.5 -335.5t-228.5 -245t-343 -92.5zM696 211q171 0 278 124t107 318q0 156 -89 254.5t-240 98.5q-171 0 -278 -124.5 t-107 -318.5q0 -156 89.5 -254t239.5 -98z" />
<glyph unicode="&#xd4;" horiz-adv-x="1386" d="M696 -20q-268 0 -431 160t-163 423q0 137 46.5 259.5t129 214.5t206 146t268.5 54q268 0 431 -160.5t163 -423.5q0 -183 -78.5 -335.5t-228.5 -245t-343 -92.5zM696 211q171 0 278 124t107 318q0 156 -89 254.5t-240 98.5q-171 0 -278 -124.5t-107 -318.5 q0 -156 89.5 -254t239.5 -98zM944 1614l182 -303h-192l-92 145l-144 -145h-211l293 303h164z" />
<glyph unicode="&#xd5;" horiz-adv-x="1386" d="M1006 1571h157q-22 -123 -81.5 -193.5t-143.5 -70.5q-34 0 -64.5 14.5t-48.5 31.5t-39.5 31.5t-40.5 14.5q-59 0 -73 -86h-158q22 123 81.5 194.5t143.5 71.5q34 0 65 -14.5t49 -32.5t40 -32.5t41 -14.5q58 0 72 86zM696 -20q-268 0 -431 160t-163 423q0 137 46.5 259.5 t129 214.5t206 146t268.5 54q268 0 431 -160.5t163 -423.5q0 -183 -78.5 -335.5t-228.5 -245t-343 -92.5zM696 211q171 0 278 124t107 318q0 156 -89 254.5t-240 98.5q-171 0 -278 -124.5t-107 -318.5q0 -156 89.5 -254t239.5 -98z" />
<glyph unicode="&#xd6;" horiz-adv-x="1386" d="M647 1294q-57 0 -99 42t-42 102q0 58 42 99.5t99 41.5q59 0 101.5 -41.5t42.5 -99.5q0 -60 -42.5 -102t-101.5 -42zM1016 1294q-57 0 -98 42t-41 102q0 58 41 99.5t98 41.5q60 0 102.5 -41.5t42.5 -99.5q0 -60 -42.5 -102t-102.5 -42zM696 -20q-268 0 -431 160t-163 423 q0 137 46.5 259.5t129 214.5t206 146t268.5 54q268 0 431 -160.5t163 -423.5q0 -183 -78.5 -335.5t-228.5 -245t-343 -92.5zM696 211q171 0 278 124t107 318q0 156 -89 254.5t-240 98.5q-171 0 -278 -124.5t-107 -318.5q0 -156 89.5 -254t239.5 -98z" />
<glyph unicode="&#xd7;" horiz-adv-x="813" d="M313 602l-176 213l142 121l174 -213l252 213l102 -127l-250 -213l176 -213l-141 -121l-174 213l-252 -213l-103 127z" />
<glyph unicode="&#xd8;" horiz-adv-x="1406" d="M1380 1217l-157 -173q133 -158 133 -391q0 -137 -46 -259.5t-129 -214t-206 -145.5t-268 -54q-219 0 -369 106l-82 -86h-199l172 188q-116 147 -116 375q0 137 46 259.5t129 214.5t206 146t268 54q200 0 348 -96l72 76h198zM410 381l536 582q-81 49 -184 49 q-171 0 -281 -127.5t-110 -321.5q0 -108 39 -182zM1049 856l-547 -590q82 -61 205 -61q171 0 281 127t110 321q0 113 -49 203z" />
<glyph unicode="&#xd9;" horiz-adv-x="1232" d="M858 1317h-213l-115 297h215zM115 459l133 758h258l-129 -736q-8 -44 -8 -94q0 -190 233 -190q128 0 203 16l176 1004h258l-207 -1182q-82 -24 -208 -39.5t-224 -15.5q-111 0 -200 21t-156 64t-103.5 114.5t-36.5 168.5q0 39 11 111z" />
<glyph unicode="&#xda;" horiz-adv-x="1232" d="M877 1317h-238l219 297h240zM115 459l133 758h258l-129 -736q-8 -44 -8 -94q0 -190 233 -190q128 0 203 16l176 1004h258l-207 -1182q-82 -24 -208 -39.5t-224 -15.5q-111 0 -200 21t-156 64t-103.5 114.5t-36.5 168.5q0 39 11 111z" />
<glyph unicode="&#xdb;" horiz-adv-x="1232" d="M115 459l133 758h258l-129 -736q-8 -44 -8 -94q0 -190 233 -190q128 0 203 16l176 1004h258l-207 -1182q-82 -24 -208 -39.5t-224 -15.5q-111 0 -200 21t-156 64t-103.5 114.5t-36.5 168.5q0 39 11 111zM885 1614l182 -303h-193l-92 145l-143 -145h-211l293 303h164z" />
<glyph unicode="&#xdc;" horiz-adv-x="1232" d="M594 1294q-57 0 -99 42t-42 102q0 58 42 99.5t99 41.5q59 0 101 -41.5t42 -99.5q0 -60 -42 -102t-101 -42zM963 1294q-57 0 -98.5 42t-41.5 102q0 58 41.5 99.5t98.5 41.5q60 0 102.5 -41.5t42.5 -99.5q0 -60 -42.5 -102t-102.5 -42zM115 459l133 758h258l-129 -736 q-8 -44 -8 -94q0 -190 233 -190q128 0 203 16l176 1004h258l-207 -1182q-82 -24 -208 -39.5t-224 -15.5q-111 0 -200 21t-156 64t-103.5 114.5t-36.5 168.5q0 39 11 111z" />
<glyph unicode="&#xdd;" horiz-adv-x="1140" d="M608 698l369 519h291l-572 -764l-80 -453h-256l80 453l-303 764h277zM836 1317h-238l219 297h240z" />
<glyph unicode="&#xde;" horiz-adv-x="1034" d="M352 182l-30 -182h-259l213 1217h259l-33 -185q46 4 67 4q218 0 334.5 -103.5t116.5 -291.5q0 -122 -44.5 -214t-123 -145t-175 -78.5t-210.5 -25.5q-65 0 -115 4zM463 801l-72 -400q32 -4 94 -4q124 0 198.5 56.5t74.5 171.5q0 87 -60.5 134.5t-154.5 47.5q-43 0 -80 -6 z" />
<glyph unicode="&#xdf;" horiz-adv-x="1138" d="M55 0l170 975q38 213 156 325.5t305 112.5q165 0 259.5 -80.5t94.5 -208.5q0 -63 -23.5 -117t-57 -89.5t-66.5 -65.5t-56.5 -58t-23.5 -53q0 -29 26.5 -59.5t64 -61.5t75 -68.5t64 -96.5t26.5 -131q0 -149 -105 -246.5t-266 -97.5q-177 0 -270 79l37 217q103 -96 215 -96 q66 0 106.5 38t40.5 106q0 36 -27 71.5t-65 67t-76 65t-65 81t-27 100.5q0 54 24 101t58.5 80t69 64t58.5 67.5t24 76.5q0 48 -32 77t-93 29q-78 0 -130.5 -58.5t-70.5 -156.5l-172 -989h-248z" />
<glyph unicode="&#xe0;" horiz-adv-x="937" d="M193 657l36 213q125 64 303 64q152 0 239 -63t87 -193q0 -40 -10 -98l-96 -557q-157 -41 -316 -41q-183 0 -289 67t-106 203q0 150 119.5 220.5t328.5 70.5h109l8 35q4 36 4 49q0 51 -33.5 74.5t-105.5 23.5q-151 0 -278 -68zM571 385h-84q-202 0 -202 -119 q0 -53 41 -78.5t110 -25.5q52 0 96 8zM674 1051h-211l-121 311h215z" />
<glyph unicode="&#xe1;" horiz-adv-x="937" d="M193 657l36 213q125 64 303 64q152 0 239 -63t87 -193q0 -40 -10 -98l-96 -557q-157 -41 -316 -41q-183 0 -289 67t-106 203q0 150 119.5 220.5t328.5 70.5h109l8 35q4 36 4 49q0 51 -33.5 74.5t-105.5 23.5q-151 0 -278 -68zM571 385h-84q-202 0 -202 -119 q0 -53 41 -78.5t110 -25.5q52 0 96 8zM686 1051h-237l227 311h239z" />
<glyph unicode="&#xe2;" horiz-adv-x="937" d="M193 657l36 213q125 64 303 64q152 0 239 -63t87 -193q0 -40 -10 -98l-96 -557q-157 -41 -316 -41q-183 0 -289 67t-106 203q0 150 119.5 220.5t328.5 70.5h109l8 35q4 36 4 49q0 51 -33.5 74.5t-105.5 23.5q-151 0 -278 -68zM571 385h-84q-202 0 -202 -119 q0 -53 41 -78.5t110 -25.5q52 0 96 8zM709 1356l182 -314h-193l-92 156l-143 -156h-211l293 314h164z" />
<glyph unicode="&#xe3;" horiz-adv-x="937" d="M193 657l36 213q125 64 303 64q152 0 239 -63t87 -193q0 -40 -10 -98l-96 -557q-157 -41 -316 -41q-183 0 -289 67t-106 203q0 150 119.5 220.5t328.5 70.5h109l8 35q4 36 4 49q0 51 -33.5 74.5t-105.5 23.5q-151 0 -278 -68zM571 385h-84q-202 0 -202 -119 q0 -53 41 -78.5t110 -25.5q52 0 96 8zM760 1300h158q-22 -123 -82 -194.5t-144 -71.5q-34 0 -64.5 14.5t-48 32.5t-39 32.5t-40.5 14.5q-59 0 -74 -86h-158q22 122 82 193.5t144 71.5q34 0 64.5 -15t48.5 -32.5t40 -32.5t41 -15q58 0 72 88z" />
<glyph unicode="&#xe4;" horiz-adv-x="937" d="M193 657l36 213q125 64 303 64q152 0 239 -63t87 -193q0 -40 -10 -98l-96 -557q-157 -41 -316 -41q-183 0 -289 67t-106 203q0 150 119.5 220.5t328.5 70.5h109l8 35q4 36 4 49q0 51 -33.5 74.5t-105.5 23.5q-151 0 -278 -68zM571 385h-84q-202 0 -202 -119 q0 -53 41 -78.5t110 -25.5q52 0 96 8zM410 1044q-58 0 -100 42t-42 102q0 58 42 98.5t100 40.5t99.5 -40.5t41.5 -98.5q0 -60 -42 -102t-99 -42zM778 1044q-57 0 -98 42t-41 102q0 58 41 98.5t98 40.5q59 0 101.5 -40.5t42.5 -98.5q0 -60 -42.5 -102t-101.5 -42z" />
<glyph unicode="&#xe5;" horiz-adv-x="937" d="M193 657l36 213q125 64 303 64q152 0 239 -63t87 -193q0 -40 -10 -98l-96 -557q-157 -41 -316 -41q-183 0 -289 67t-106 203q0 150 119.5 220.5t328.5 70.5h109l8 35q4 36 4 49q0 51 -33.5 74.5t-105.5 23.5q-151 0 -278 -68zM571 385h-84q-202 0 -202 -119 q0 -53 41 -78.5t110 -25.5q52 0 96 8zM600 1008q-87 0 -138.5 51t-51.5 131q0 88 60 147.5t155 59.5q87 0 138.5 -52t51.5 -131q0 -89 -59.5 -147.5t-155.5 -58.5zM604 1118q39 0 64.5 25t25.5 67q0 33 -20 53.5t-53 20.5q-39 0 -66 -25t-27 -67q0 -31 21.5 -52.5 t54.5 -21.5z" />
<glyph unicode="&#xe6;" horiz-adv-x="1490" d="M1405 381h-580v-6q15 -87 79 -138t157 -51q85 0 153 19t148 63l-39 -223q-124 -65 -297 -65q-197 0 -311 108q-141 -106 -330 -106q-149 0 -246.5 67.5t-97.5 194.5q0 286 440 286h123q0 6 4.5 26t7.5 26q-10 143 -149 143q-155 0 -279 -68l37 213q60 30 138 47t145 17 q184 0 252 -117q126 117 313 117q98 0 170.5 -29t114.5 -80.5t62 -116.5t20 -143q0 -100 -35 -184zM827 530h385q5 17 5 41q0 71 -40 118.5t-112 47.5q-82 0 -148 -53.5t-90 -153.5zM592 381h-115q-95 0 -143.5 -25.5t-48.5 -89.5q0 -50 38 -77t97 -27q116 0 198 76 q-19 56 -26 137v6z" />
<glyph unicode="&#xe7;" horiz-adv-x="890" d="M803 262l-41 -231q-99 -43 -201 -49q-25 -87 -76.5 -165t-109.5 -116h-217q163 134 204 299q-136 39 -216 147.5t-80 268.5q0 121 42 220.5t113.5 163.5t163.5 99t193 35q184 0 301 -88l-43 -234q-107 107 -256 107q-113 0 -189 -76t-76 -215q0 -104 65 -167.5t177 -63.5 q126 0 246 65z" />
<glyph unicode="&#xe8;" horiz-adv-x="993" d="M864 268l-39 -223q-124 -65 -309 -65q-205 0 -327.5 114t-122.5 318q0 145 59 262.5t174 188.5t266 71q191 0 285 -100t94 -261q0 -98 -35 -182h-600v-16q10 -91 76 -140t166 -49q163 0 313 82zM322 541h385q4 28 4 41q0 69 -41 112t-113 43q-89 0 -149.5 -52t-85.5 -144 zM711 1051h-211l-121 311h215z" />
<glyph unicode="&#xe9;" horiz-adv-x="993" d="M717 1051h-238l228 311h239zM864 268l-39 -223q-124 -65 -309 -65q-205 0 -327.5 114t-122.5 318q0 145 59 262.5t174 188.5t266 71q191 0 285 -100t94 -261q0 -98 -35 -182h-600v-16q10 -91 76 -140t166 -49q163 0 313 82zM322 541h385q4 28 4 41q0 69 -41 112t-113 43 q-89 0 -149.5 -52t-85.5 -144z" />
<glyph unicode="&#xea;" horiz-adv-x="993" d="M729 1356l182 -314h-192l-92 156l-144 -156h-211l293 314h164zM864 268l-39 -223q-124 -65 -309 -65q-205 0 -327.5 114t-122.5 318q0 145 59 262.5t174 188.5t266 71q191 0 285 -100t94 -261q0 -98 -35 -182h-600v-16q10 -91 76 -140t166 -49q163 0 313 82zM322 541h385 q4 28 4 41q0 69 -41 112t-113 43q-89 0 -149.5 -52t-85.5 -144z" />
<glyph unicode="&#xeb;" horiz-adv-x="993" d="M444 1044q-57 0 -99 42t-42 102q0 58 41.5 98.5t99.5 40.5t100 -40.5t42 -98.5q0 -60 -42 -102t-100 -42zM813 1044q-57 0 -98 42t-41 102q0 58 41 98.5t98 40.5q59 0 101 -40.5t42 -98.5q0 -60 -42 -102t-101 -42zM864 268l-39 -223q-124 -65 -309 -65 q-205 0 -327.5 114t-122.5 318q0 145 59 262.5t174 188.5t266 71q191 0 285 -100t94 -261q0 -98 -35 -182h-600v-16q10 -91 76 -140t166 -49q163 0 313 82zM322 541h385q4 28 4 41q0 69 -41 112t-113 43q-89 0 -149.5 -52t-85.5 -144z" />
<glyph unicode="&#xec;" horiz-adv-x="509" d="M463 913l-160 -913h-248l162 913h246zM465 1051h-211l-121 311h215z" />
<glyph unicode="&#xed;" horiz-adv-x="509" d="M479 1051h-237l227 311h240zM463 913l-160 -913h-248l162 913h246z" />
<glyph unicode="&#xee;" horiz-adv-x="509" d="M489 1356l183 -314h-193l-92 156l-143 -156h-211l293 314h163zM463 913l-160 -913h-248l162 913h246z" />
<glyph unicode="&#xef;" horiz-adv-x="509" d="M201 1044q-57 0 -99.5 42t-42.5 102q0 58 42 98.5t100 40.5t99.5 -40.5t41.5 -98.5q0 -60 -42 -102t-99 -42zM569 1044q-57 0 -98 42t-41 102q0 58 41 98.5t98 40.5q59 0 101.5 -40.5t42.5 -98.5q0 -60 -42.5 -102t-101.5 -42zM463 913l-160 -913h-248l162 913h246z" />
<glyph unicode="&#xf0;" d="M598 1049l-330 -101v158l221 68q-127 131 -245 219h309q101 -84 164 -152l250 76v-158l-146 -45q197 -268 197 -596q0 -247 -139.5 -392.5t-372.5 -145.5q-200 0 -320 120.5t-120 315.5q0 215 130.5 357t338.5 142q57 0 108.5 -17.5t79.5 -49.5q-36 87 -125 201zM514 188 q111 0 181.5 84t70.5 213q0 102 -54.5 165t-148.5 63q-111 0 -181.5 -84.5t-70.5 -212.5q0 -100 55 -164t148 -64z" />
<glyph unicode="&#xf1;" horiz-adv-x="1081" d="M883 0h-246l94 541q6 27 6 63q0 109 -139 109q-74 0 -176 -27l-119 -686h-248l150 852q238 82 432 82q171 0 261.5 -63.5t90.5 -206.5q0 -46 -10 -121zM827 1300h158q-22 -123 -81.5 -194.5t-143.5 -71.5q-34 0 -64.5 14.5t-48.5 32.5t-39.5 32.5t-40.5 14.5 q-58 0 -73 -86h-158q22 122 81.5 193.5t143.5 71.5q34 0 65 -15t49 -32.5t40 -32.5t41 -15q57 0 71 88z" />
<glyph unicode="&#xf2;" d="M510 -20q-202 0 -323 121.5t-121 314.5q0 145 60 262t177.5 186.5t271.5 69.5q203 0 325 -121t122 -315q0 -144 -60.5 -261t-178.5 -187t-273 -70zM518 184q114 0 186 88t72 222q0 103 -56.5 168t-150.5 65q-114 0 -186 -87.5t-72 -219.5q0 -103 56.5 -169.5t150.5 -66.5 zM729 1051h-211l-121 311h215z" />
<glyph unicode="&#xf3;" d="M745 1051h-237l227 311h240zM510 -20q-202 0 -323 121.5t-121 314.5q0 145 60 262t177.5 186.5t271.5 69.5q203 0 325 -121t122 -315q0 -144 -60.5 -261t-178.5 -187t-273 -70zM518 184q114 0 186 88t72 222q0 103 -56.5 168t-150.5 65q-114 0 -186 -87.5t-72 -219.5 q0 -103 56.5 -169.5t150.5 -66.5z" />
<glyph unicode="&#xf4;" d="M750 1356l182 -314h-193l-92 156l-143 -156h-211l293 314h164zM510 -20q-202 0 -323 121.5t-121 314.5q0 145 60 262t177.5 186.5t271.5 69.5q203 0 325 -121t122 -315q0 -144 -60.5 -261t-178.5 -187t-273 -70zM518 184q114 0 186 88t72 222q0 103 -56.5 168t-150.5 65 q-114 0 -186 -87.5t-72 -219.5q0 -103 56.5 -169.5t150.5 -66.5z" />
<glyph unicode="&#xf5;" d="M510 -20q-202 0 -323 121.5t-121 314.5q0 145 60 262t177.5 186.5t271.5 69.5q203 0 325 -121t122 -315q0 -144 -60.5 -261t-178.5 -187t-273 -70zM518 184q114 0 186 88t72 222q0 103 -56.5 168t-150.5 65q-114 0 -186 -87.5t-72 -219.5q0 -103 56.5 -169.5t150.5 -66.5 zM813 1300h158q-22 -123 -82 -194.5t-144 -71.5q-34 0 -64.5 14.5t-48 32.5t-39 32.5t-40.5 14.5q-59 0 -74 -86h-157q22 122 81.5 193.5t143.5 71.5q34 0 64.5 -15t48.5 -32.5t40 -32.5t41 -15q58 0 72 88z" />
<glyph unicode="&#xf6;" d="M461 1044q-57 0 -99.5 42t-42.5 102q0 58 42 98.5t100 40.5t99.5 -40.5t41.5 -98.5q0 -60 -42 -102t-99 -42zM829 1044q-57 0 -98 42t-41 102q0 58 41 98.5t98 40.5q59 0 101.5 -40.5t42.5 -98.5q0 -60 -42.5 -102t-101.5 -42zM510 -20q-202 0 -323 121.5t-121 314.5 q0 145 60 262t177.5 186.5t271.5 69.5q203 0 325 -121t122 -315q0 -144 -60.5 -261t-178.5 -187t-273 -70zM518 184q114 0 186 88t72 222q0 103 -56.5 168t-150.5 65q-114 0 -186 -87.5t-72 -219.5q0 -103 56.5 -169.5t150.5 -66.5z" />
<glyph unicode="&#xf7;" horiz-adv-x="940" d="M86 506l33 186h776l-33 -186h-776zM301 276q0 54 39 94t92 40q54 0 93.5 -40t39.5 -94q0 -53 -39.5 -92t-93.5 -39q-52 0 -91.5 39.5t-39.5 91.5zM416 920q0 55 38 94t91 39q57 0 96 -38.5t39 -94.5q0 -53 -39.5 -92.5t-95.5 -39.5q-52 0 -90.5 39.5t-38.5 92.5z" />
<glyph unicode="&#xf8;" horiz-adv-x="1101" d="M1106 920l-158 -156q82 -111 82 -266q0 -144 -60.5 -261t-178.5 -187t-273 -70q-168 0 -278 81l-68 -67h-176l156 156q-78 110 -78 266q0 145 60.5 262t178 186.5t271.5 69.5q160 0 276 -82l70 68h176zM776 592l-379 -377q50 -35 129 -35q116 0 190.5 89.5t74.5 224.5 q0 54 -15 98zM326 319l379 379q-47 33 -127 33q-117 0 -192 -89t-75 -222q0 -54 15 -101z" />
<glyph unicode="&#xf9;" horiz-adv-x="1042" d="M190 913h246l-96 -555q-6 -30 -6 -57q0 -61 37.5 -90t117.5 -29q66 0 136 15l127 716h245l-155 -884q-198 -49 -365 -49q-193 0 -294 66t-101 214q0 37 10 105zM715 1051h-211l-121 311h215z" />
<glyph unicode="&#xfa;" horiz-adv-x="1042" d="M729 1051h-237l227 311h239zM190 913h246l-96 -555q-6 -30 -6 -57q0 -61 37.5 -90t117.5 -29q66 0 136 15l127 716h245l-155 -884q-198 -49 -365 -49q-193 0 -294 66t-101 214q0 37 10 105z" />
<glyph unicode="&#xfb;" horiz-adv-x="1042" d="M739 1356l183 -314h-193l-92 156l-143 -156h-211l292 314h164zM190 913h246l-96 -555q-6 -30 -6 -57q0 -61 37.5 -90t117.5 -29q66 0 136 15l127 716h245l-155 -884q-198 -49 -365 -49q-193 0 -294 66t-101 214q0 37 10 105z" />
<glyph unicode="&#xfc;" horiz-adv-x="1042" d="M446 1044q-57 0 -99 42t-42 102q0 58 41.5 98.5t99.5 40.5t100 -40.5t42 -98.5q0 -60 -42 -102t-100 -42zM815 1044q-57 0 -98 42t-41 102q0 58 41 98.5t98 40.5q59 0 101 -40.5t42 -98.5q0 -60 -42 -102t-101 -42zM190 913h246l-96 -555q-6 -30 -6 -57q0 -61 37.5 -90 t117.5 -29q66 0 136 15l127 716h245l-155 -884q-198 -49 -365 -49q-193 0 -294 66t-101 214q0 37 10 105z" />
<glyph unicode="&#xfd;" horiz-adv-x="1009" d="M340 913l123 -645l350 645h262l-739 -1282h-250l201 361l-199 921h252zM713 1051h-238l227 311h240z" />
<glyph unicode="&#xfe;" horiz-adv-x="1099" d="M-10 -369l309 1762h246l-84 -486q76 27 155 27q188 0 304 -115.5t116 -310.5q0 -239 -146.5 -383.5t-395.5 -144.5q-115 0 -189 38l-69 -387h-246zM422 688l-82 -463q64 -37 147 -37q138 0 219.5 83.5t81.5 224.5q0 102 -58.5 164.5t-154.5 62.5q-88 0 -153 -35z" />
<glyph unicode="&#xff;" horiz-adv-x="1009" d="M340 913l123 -645l350 645h262l-739 -1282h-250l201 361l-199 921h252zM434 1044q-57 0 -99 42t-42 102q0 58 41.5 98.5t99.5 40.5t99.5 -40.5t41.5 -98.5q0 -60 -42 -102t-99 -42zM803 1044q-57 0 -98 42t-41 102q0 58 41 98.5t98 40.5q59 0 101 -40.5t42 -98.5 q0 -60 -42 -102t-101 -42z" />
<glyph unicode="&#x152;" horiz-adv-x="1681" d="M1708 1217l-39 -228h-506l-47 -266h463l-39 -223h-463l-47 -273h518l-39 -227h-813q-268 0 -431 155t-163 410q0 133 46.5 251.5t130 207.5t209.5 141t276 52h944zM774 225l135 764h-145q-180 0 -288.5 -117t-108.5 -307q0 -152 88.5 -246t240.5 -94h78z" />
<glyph unicode="&#x153;" horiz-adv-x="1687" d="M1556 268l-36 -223q-127 -65 -310 -65q-224 0 -346 147q-144 -147 -354 -147q-202 0 -323 121.5t-121 314.5q0 145 60 262t177.5 186.5t271.5 69.5q212 0 334 -148q138 148 351 148q190 0 284 -100t94 -261q0 -89 -34 -182h-600v-16q10 -91 75.5 -140t163.5 -49 q88 0 161 19.5t152 62.5zM518 184q114 0 186 88t72 222q0 103 -56.5 168t-150.5 65q-114 0 -186 -87.5t-72 -219.5q0 -103 56.5 -169.5t150.5 -66.5zM1016 541h385q4 28 4 41q0 69 -41.5 112t-114.5 43q-89 0 -149 -52.5t-84 -143.5z" />
<glyph unicode="&#x178;" horiz-adv-x="1140" d="M608 698l369 519h291l-572 -764l-80 -453h-256l80 453l-303 764h277zM555 1294q-57 0 -99 42t-42 102q0 58 42 99.5t99 41.5q59 0 101 -41.5t42 -99.5q0 -60 -42 -102t-101 -42zM924 1294q-57 0 -98.5 42t-41.5 102q0 58 41.5 99.5t98.5 41.5q60 0 102.5 -41.5 t42.5 -99.5q0 -60 -42.5 -102t-102.5 -42z" />
<glyph unicode="&#x2c6;" horiz-adv-x="1024" d="M649 1356l182 -314h-192l-92 156l-144 -156h-210l292 314h164z" />
<glyph unicode="&#x2dc;" horiz-adv-x="1024" d="M678 1300h158q-22 -123 -82 -194.5t-144 -71.5q-34 0 -64.5 14.5t-48 32.5t-39 32.5t-40.5 14.5q-59 0 -74 -86h-158q22 122 82 193.5t144 71.5q34 0 64.5 -15t48.5 -32.5t40 -32.5t41 -15q58 0 72 88z" />
<glyph unicode="&#x2000;" horiz-adv-x="834" />
<glyph unicode="&#x2001;" horiz-adv-x="1669" />
<glyph unicode="&#x2002;" horiz-adv-x="834" />
<glyph unicode="&#x2003;" horiz-adv-x="1669" />
<glyph unicode="&#x2004;" horiz-adv-x="556" />
<glyph unicode="&#x2005;" horiz-adv-x="417" />
<glyph unicode="&#x2006;" horiz-adv-x="278" />
<glyph unicode="&#x2007;" horiz-adv-x="278" />
<glyph unicode="&#x2008;" horiz-adv-x="208" />
<glyph unicode="&#x2009;" horiz-adv-x="333" />
<glyph unicode="&#x200a;" horiz-adv-x="92" />
<glyph unicode="&#x2010;" horiz-adv-x="727" d="M80 424l41 219h549l-41 -219h-549z" />
<glyph unicode="&#x2011;" horiz-adv-x="727" d="M80 424l41 219h549l-41 -219h-549z" />
<glyph unicode="&#x2012;" horiz-adv-x="727" d="M80 424l41 219h549l-41 -219h-549z" />
<glyph unicode="&#x2013;" horiz-adv-x="1171" d="M86 455l33 186h993l-33 -186h-993z" />
<glyph unicode="&#x2014;" horiz-adv-x="1949" d="M86 455l33 186h1771l-32 -186h-1772z" />
<glyph unicode="&#x2018;" horiz-adv-x="491" d="M412 856h-246q26 153 110.5 274.5t190.5 188.5h168q-179 -202 -223 -463z" />
<glyph unicode="&#x2019;" horiz-adv-x="491" d="M315 1319h246q-26 -153 -110 -274.5t-191 -188.5h-168q92 104 146 215.5t77 247.5z" />
<glyph unicode="&#x201a;" horiz-adv-x="491" d="M111 231h245q-26 -153 -110 -274t-191 -188h-168q92 105 146.5 215.5t77.5 246.5z" />
<glyph unicode="&#x201c;" horiz-adv-x="862" d="M412 856h-246q26 153 110.5 274.5t190.5 188.5h168q-179 -202 -223 -463zM784 856h-247q27 153 111.5 274t189.5 189h170q-92 -103 -146.5 -215t-77.5 -248z" />
<glyph unicode="&#x201d;" horiz-adv-x="862" d="M688 1319h246q-28 -153 -112 -274.5t-189 -188.5h-168q176 199 223 463zM315 1319h246q-26 -153 -110.5 -274.5t-190.5 -188.5h-168q176 199 223 463z" />
<glyph unicode="&#x201e;" horiz-adv-x="862" d="M483 231h246q-28 -153 -111.5 -274t-189.5 -188h-168q91 103 144.5 214t78.5 248zM111 231h245q-26 -153 -110.5 -273.5t-190.5 -188.5h-168q91 104 145 214.5t79 247.5z" />
<glyph unicode="&#x2022;" horiz-adv-x="692" d="M115 532q0 98 67 167t164 69q98 0 167 -69t69 -167q0 -97 -69 -164t-167 -67q-97 0 -164 67t-67 164z" />
<glyph unicode="&#x2026;" horiz-adv-x="1624" d="M70 143q0 69 46.5 118.5t110.5 49.5q73 0 121.5 -49t48.5 -119q0 -67 -48.5 -113t-121.5 -46q-65 0 -111 46.5t-46 112.5zM610 143q0 69 46.5 118.5t111.5 49.5q72 0 121 -49.5t49 -118.5q0 -66 -49 -112.5t-121 -46.5q-65 0 -111.5 46.5t-46.5 112.5zM1151 143 q0 69 46.5 118.5t111.5 49.5q71 0 120.5 -49.5t49.5 -118.5q0 -66 -49 -112.5t-121 -46.5q-65 0 -111.5 46.5t-46.5 112.5z" />
<glyph unicode="&#x202f;" horiz-adv-x="333" />
<glyph unicode="&#x2039;" horiz-adv-x="645" d="M623 764l-306 -326l207 -321h-235l-211 323l311 324h234z" />
<glyph unicode="&#x203a;" horiz-adv-x="645" d="M16 117l306 325l-205 322h235l211 -324l-311 -323h-236z" />
<glyph unicode="&#x205f;" horiz-adv-x="417" />
<glyph unicode="&#x20ac;" horiz-adv-x="1060" d="M182 664h-108l22 133h117q66 206 219.5 322t347.5 116q201 0 318 -117l-47 -250q-107 136 -271 136q-103 0 -180.5 -54.5t-122.5 -152.5h334l-49 -133h-326q-12 -56 -12 -111h299l-49 -133h-242q21 -99 82 -154t156 -55q79 0 150.5 23.5t152.5 82.5l-49 -266 q-113 -71 -271 -71q-201 0 -326 118.5t-149 321.5h-147l22 133h121q0 62 8 111z" />
<glyph unicode="&#x2122;" horiz-adv-x="1445" d="M492 1071l-76 -422h-162l76 422h-174l26 146h506l-24 -146h-172zM1059 649h-131l-49 342l-113 -342h-164l197 568h184l47 -361l166 361h193l-7 -568h-157l4 344z" />
<glyph unicode="&#xe000;" horiz-adv-x="911" d="M0 911h911v-911h-911v911z" />
</font>
</defs>
</svg>
