<?xml version="1.0" standalone="no"?> <!DOCTYPE svg PUBLIC "-//W3C//DTD SVG 1.0//EN" "http://www.w3.org/TR/2001/REC-SVG-20010904/DTD/svg10.dtd" > <svg xmlns="http://www.w3.org/2000/svg" width="100%" height="100%">
<defs >
<font id="karbon-light" horiz-adv-x="448" ><font-face
    font-family="Karbon Light"
    units-per-em="1000"
    panose-1="0 0 4 0 0 0 0 0 0 0"
    ascent="680"
    descent="-320"
    alphabetic="0" />
<missing-glyph horiz-adv-x="190" />
<glyph unicode=" " glyph-name="space" horiz-adv-x="190" />
<glyph unicode="!" glyph-name="exclam" horiz-adv-x="236" d="M135 594V157H101V594H135ZM90 14T90 26T98 46T118 54T138 46T146 26T138 6T118 -2T98 6Z" />
<glyph unicode="&quot;" glyph-name="quotedbl" horiz-adv-x="246" d="M59 457L75 644H106L86 457H59ZM144 457L160 644H191L171 457H144Z" />
<glyph unicode="#" glyph-name="numbersign" horiz-adv-x="479" d="M152 196L112 0H81L121 196H25V223H126L158 380H57V407H163L201 594H232L194 407H328L366 594H397L359 407H454V380H354L322 223H422V196H317L277 0H246L286 196H152ZM157 223H291L323 380H189L157 223Z" />
<glyph unicode="$" glyph-name="dollar" horiz-adv-x="422" d="M190 -95V-8Q100 -7 42 41V81Q108 24 190 22V298Q153 312 129 324T83 356T51 400T41 459Q41 522 84 559T190 601V680H218V602Q297 597 343 557V519Q286 568 218 572V320Q300 289 337 254T375 148Q375
80 331 40T218 -7V-95H190ZM190 330V571Q140 567 107 538T74 459Q74 413 100 385T190 330ZM218 287V23Q273 29 307 60T342 148Q342 201 312 231T218 287Z" />
<glyph unicode="%" glyph-name="percent" horiz-adv-x="619" d="M40 419T40 474T77 565T168 602T258 566T296 474T259 383T168 346T78 382ZM71 519T71 474T99 402T168 374Q210 374 238 401T266 474T238 546T168 573T99 546ZM579 120Q579 65 542 29T450 -7Q397
-7 360 29T322 120Q322 176 359 212T450 249Q504 249 541 213T579 120ZM548 120Q548 165 520 192T450 220Q409 220 381 193T353 120Q353 76 381 49T450 21Q492 21 520 48T548 120ZM507 595L145 0H112L474 595H507Z" />
<glyph unicode="&amp;" glyph-name="ampersand" horiz-adv-x="541" d="M187 325L158 355Q98 415 98 479Q98 530 132 566T227 602Q289 602 324 566T360 475Q360 424 328 388T235 319L412 134Q451 202 451 288H480Q480 190 433 113L541 0H500L415 88Q342 -8 219
-8Q141 -8 91 33T41 144Q41 202 73 241T187 325ZM181 376L215 340Q248 357 269 371T309 414T328 475Q327 519 300 545T227 573Q182 573 156 545T130 479Q130 449 142 427T181 376ZM396 108L207 304Q138 268 106 232T74 144Q74 87 116 54T219 20Q330 20 396 108Z"
/>
<glyph unicode="&apos;" glyph-name="quotesingle" horiz-adv-x="161" d="M59 457L75 644H106L86 457H59Z" />
<glyph unicode="(" glyph-name="parenleft" horiz-adv-x="280" d="M270 -141H232Q52 26 52 270Q52 513 232 680H270Q228 639 199 603T141 516T97 404T82 270T97 136T140 24T198 -63T270 -141Z" />
<glyph unicode=")" glyph-name="parenright" horiz-adv-x="280" d="M10 680H48Q228 513 228 270Q228 26 48 -141H10Q52 -100 81 -64T139 23T183 136T198 270T183 404T140 516T82 602T10 680Z" />
<glyph unicode="*" glyph-name="asterisk" horiz-adv-x="303" d="M151 530L86 440L65 454L132 544L25 579L32 603L139 567L138 680H164L163 567L270 603L278 579L170 545L238 455L217 440L151 530Z" />
<glyph unicode="+" glyph-name="plus" horiz-adv-x="435" d="M203 278H40V307H203V470H232V307H395V278H232V115H203V278Z" />
<glyph unicode="," glyph-name="comma" horiz-adv-x="196" d="M85 65H121Q121 9 93 -47T27 -128H-1Q37 -95 61 -43T85 65Z" />
<glyph unicode="-" glyph-name="hyphen" horiz-adv-x="355" d="M64 247V276H291V247H64Z" />
<glyph unicode="." glyph-name="period" horiz-adv-x="196" d="M70 14T70 26T78 46T98 54T118 46T126 26T118 6T98 -2T78 6Z" />
<glyph unicode="/" glyph-name="slash" horiz-adv-x="383" d="M18 -138L328 680H360L50 -138H18Z" />
<glyph unicode="0" glyph-name="zero" horiz-adv-x="524" d="M45 160T45 297T104 518T262 602T419 518T479 297T420 76T262 -8T105 76ZM78 423T78 297T129 96T262 21T395 96T446 297T395 498T262 573T129 498Z" />
<glyph unicode="1" glyph-name="one" horiz-adv-x="273" d="M15 544V572L178 602V0H145V565L15 544Z" />
<glyph unicode="2" glyph-name="two" horiz-adv-x="409" d="M53 29H370V0H5V24Q76 84 124 128T222 229T298 337T323 438Q323 503 289 537T195 572Q101 572 31 482V521Q58 556 101 579T195 602Q268 602 312 561T356 438Q356 271 53 29Z" />
<glyph unicode="3" glyph-name="three" horiz-adv-x="387" d="M27 489V526Q51 559 91 580T182 602Q251 602 292 563T333 463Q333 404 292 362T185 304Q252 297 300 257T348 152Q348 79 299 36T166 -8Q124 -8 83 7T20 45V80Q87 21 166 21Q235 21 274 56T314 152Q314
265 135 290V312Q219 334 259 369T299 463Q299 512 266 542T182 573Q92 573 27 489Z" />
<glyph unicode="4" glyph-name="four" horiz-adv-x="476" d="M353 594V203H456V176H353V0H321V176H10V199L311 594H353ZM321 562L50 203H321V562Z" />
<glyph unicode="5" glyph-name="five" horiz-adv-x="394" d="M113 564L99 365Q212 352 281 304T350 165Q350 89 300 41T159 -8Q74 -8 22 38V73Q85 21 159 21Q232 21 274 60T316 165Q316 246 252 285T67 339L85 594H335V564H113Z" />
<glyph unicode="6" glyph-name="six" horiz-adv-x="460" d="M251 594H288L134 362L92 297Q116 328 153 348T232 368Q316 368 370 318T425 181Q425 103 374 48T232 -8Q144 -8 92 47T40 181Q40 272 102 366L251 594ZM72 181Q72 109 117 65T232 21T346 65T392 181Q392
252 347 295T232 339Q164 339 118 296T72 181Z" />
<glyph unicode="7" glyph-name="seven" horiz-adv-x="381" d="M326 564H10V594H361V566L92 0H57L326 564Z" />
<glyph unicode="8" glyph-name="eight" horiz-adv-x="484" d="M326 -8T242 -8T104 36T50 160Q50 222 89 264T184 316Q141 329 112 362T83 450Q83 519 128 560T242 602T355 561T401 450Q401 396 372 363T300 316Q356 306 395 264T434 160Q434 81 380 37ZM189 328T242
328T331 361T368 450Q368 507 332 540T242 574T153 541T116 450Q116 394 152 361ZM174 20T242 20T355 56T400 160Q400 228 355 264T242 300T130 264T84 160Q84 93 129 57Z" />
<glyph unicode="9" glyph-name="nine" horiz-adv-x="460" d="M209 0H172L326 232L368 297Q344 266 307 246T228 226Q144 226 90 276T35 413Q35 491 86 546T228 602Q316 602 368 547T420 413Q420 322 358 228L209 0ZM388 413Q388 485 343 529T228 573T114 529T68
413Q68 342 113 299T228 255Q296 255 342 298T388 413Z" />
<glyph unicode=":" glyph-name="colon" horiz-adv-x="196" d="M70 14T70 26T78 46T98 54T118 46T126 26T118 6T98 -2T78 6ZM70 374T70 386T78 406T98 414T118 406T126 386T118 366T98 358T78 366Z" />
<glyph unicode=";" glyph-name="semicolon" horiz-adv-x="196" d="M85 65H121Q121 9 93 -47T27 -128H-1Q37 -95 61 -43T85 65ZM73 374T73 386T81 406T101 414T121 406T129 386T121 366T101 358T81 366Z" />
<glyph unicode="&lt;" glyph-name="less" horiz-adv-x="319" d="M25 289V293L284 452V417L76 291L284 165V130L25 289Z" />
<glyph unicode="=" glyph-name="equal" horiz-adv-x="440" d="M42 219V248H398V219H42ZM42 339V368H398V339H42Z" />
<glyph unicode="&gt;" glyph-name="greater" horiz-adv-x="319" d="M294 293V289L35 130V165L243 291L35 417V452L294 293Z" />
<glyph unicode="?" glyph-name="question" horiz-adv-x="379" d="M28 494V533Q50 563 91 582T180 602Q260 602 304 557T348 441Q348 406 337 376T309 327T268 290T223 264T178 245V157H144V263Q228 293 271 332T314 442Q314 498 280 534T180 571Q91 571 28 494ZM135
14T135 26T143 46T163 54T183 46T191 26T183 6T163 -2T143 6Z" />
<glyph unicode="@" glyph-name="at" horiz-adv-x="768" d="M539 382V61Q690 116 690 282Q690 402 613 474T408 546Q256 546 167 452T78 218Q78 148 100 91T157 -3T240 -66T335 -103T433 -114Q542 -114 639 -76V-107Q553 -144 433 -144Q364 -144 299 -124T175 -63T81
50T45 218Q45 373 145 474T408 575Q551 575 636 494T722 282Q722 158 641 87T428 16Q335 16 277 68T218 210Q218 300 273 353T421 406Q484 406 539 382ZM507 54V362Q471 376 421 376Q344 376 298 334T251 210Q251 135 299 90T427 45Q469 45 507 54Z" />
<glyph unicode="A" glyph-name="A" horiz-adv-x="537" d="M417 180H118L49 0H14L247 594H288L523 0H488L417 180ZM405 210L266 563L130 210H405Z" />
<glyph unicode="B" glyph-name="B" horiz-adv-x="469" d="M93 3V595Q156 602 195 602Q403 602 403 450Q403 389 365 350T263 303Q335 299 380 261T425 158Q425 79 369 36T199 -8Q146 -8 93 3ZM127 286V29Q162 23 199 23Q298 23 344 56T390 158Q390 221 339 253T192
286H127ZM127 569V316H191Q274 316 321 350T368 450Q368 572 195 572Q164 572 127 569Z" />
<glyph unicode="C" glyph-name="C" horiz-adv-x="567" d="M512 557V517Q449 571 348 571Q236 571 160 496T84 297T162 98T358 23Q460 23 522 70V34Q466 -8 358 -8Q223 -8 137 76T50 297Q50 431 134 516T348 602Q445 602 512 557Z" />
<glyph unicode="D" glyph-name="D" horiz-adv-x="613" d="M93 1V595Q146 601 193 601Q382 601 472 522T563 308Q563 165 475 79T208 -7Q157 -7 93 1ZM127 568V28Q170 23 208 23Q362 23 445 95T529 308Q529 433 445 502T193 571Q164 571 127 568Z" />
<glyph unicode="E" glyph-name="E" horiz-adv-x="468" d="M127 30H416V0H93V594H413V564H127V320H396V290H127V30Z" />
<glyph unicode="F" glyph-name="F" horiz-adv-x="422" d="M127 0H93V594H385V564H127V313H366V283H127V0Z" />
<glyph unicode="G" glyph-name="G" horiz-adv-x="597" d="M512 557V517Q449 571 348 571Q236 571 160 495T84 294Q84 171 163 97T358 23Q438 23 501 51V247H534V32Q457 -8 358 -8Q224 -8 137 76T50 294Q50 428 135 515T348 602Q445 602 512 557Z" />
<glyph unicode="H" glyph-name="H" horiz-adv-x="661" d="M534 320V594H568V0H534V290H127V0H93V594H127V320H534Z" />
<glyph unicode="I" glyph-name="I" horiz-adv-x="220" d="M127 594V0H93V594H127Z" />
<glyph unicode="J" glyph-name="J" horiz-adv-x="343" d="M13 42V83Q70 23 136 23Q187 23 210 50T233 137V594H267V132Q267 -8 136 -8Q59 -8 13 42Z" />
<glyph unicode="K" glyph-name="K" horiz-adv-x="498" d="M93 0V594H127V0H93ZM131 291L427 594H472L177 294L493 0H444L131 291Z" />
<glyph unicode="L" glyph-name="L" horiz-adv-x="412" d="M93 0V594H127V30H392V0H93Z" />
<glyph unicode="M" glyph-name="M" horiz-adv-x="763" d="M400 0H363L174 558L72 0H38L147 594H195L382 44L567 594H616L725 0H690L588 562L400 0Z" />
<glyph unicode="N" glyph-name="N" horiz-adv-x="647" d="M127 594L521 49V594H554V0H520L126 545V0H93V594H127Z" />
<glyph unicode="O" glyph-name="O" horiz-adv-x="698" d="M50 162T50 297T134 517T349 602T563 517T648 297T564 77T349 -8T135 77ZM614 173T614 297T539 496T349 571T160 496T84 297T159 98T349 23T538 98Z" />
<glyph unicode="P" glyph-name="P" horiz-adv-x="435" d="M127 236V0H93V595Q128 602 174 602Q287 602 346 557T405 424Q405 334 345 284T172 234Q149 234 127 236ZM127 570V266Q151 264 172 264Q370 264 370 424Q370 491 324 531T174 572Q149 572 127 570Z" />
<glyph unicode="Q" glyph-name="Q" horiz-adv-x="698" d="M352 -8H349Q219 -8 135 77T50 297T134 517T349 602T563 517T648 297Q648 173 577 91T391 -5L521 -136H477L352 -8ZM614 173T614 297T539 496T349 571T160 496T84 297T159 98T349 23T538 98Z" />
<glyph unicode="R" glyph-name="R" horiz-adv-x="488" d="M127 243V0H93V593Q134 602 181 602Q288 602 346 557T404 425Q404 353 364 308T261 250L478 0H434L225 243H127ZM127 569V272H198Q277 272 322 311T368 425Q368 497 319 535T181 573Q155 573 127 569Z" />
<glyph unicode="S" glyph-name="S" horiz-adv-x="422" d="M42 41V81Q109 22 196 22Q259 22 299 54T340 148Q340 205 307 234T200 293Q118 325 81 358T43 459T90 564T206 602Q292 602 343 557V519Q281 572 206 572Q150 572 113 542T76 459Q76 410 105 381T209 324Q252
308 278 295T328 262T362 214T373 148Q373 74 323 33T196 -8Q101 -8 42 41Z" />
<glyph unicode="T" glyph-name="T" horiz-adv-x="470" d="M252 564V0H218V564H15V594H455V564H252Z" />
<glyph unicode="U" glyph-name="U" horiz-adv-x="592" d="M76 194V594H110V190Q110 23 320 23Q399 23 465 38V594H499V15Q409 -8 320 -8Q76 -8 76 194Z" />
<glyph unicode="V" glyph-name="V" horiz-adv-x="527" d="M282 0H245L14 594H50L264 38L478 594H513L282 0Z" />
<glyph unicode="W" glyph-name="W" horiz-adv-x="750" d="M355 594H396L547 31L703 594H736L570 0H525L375 555L225 0H180L14 594H48L204 31L355 594Z" />
<glyph unicode="X" glyph-name="X" horiz-adv-x="501" d="M472 594L270 307L487 0H448L249 281L53 0H14L230 308L29 594H68L251 334L433 594H472Z" />
<glyph unicode="Y" glyph-name="Y" horiz-adv-x="497" d="M249 277L446 594H483L265 244V0H231V244L14 594H52L249 277Z" />
<glyph unicode="Z" glyph-name="Z" horiz-adv-x="469" d="M49 564V594H440V568L63 30H446V0H23V27L399 564H49Z" />
<glyph unicode="[" glyph-name="bracketleft" horiz-adv-x="273" d="M109 654V-112H223V-138H79V680H223V654H109Z" />
<glyph unicode="\" glyph-name="backslash" horiz-adv-x="383" d="M55 680L365 -138H333L23 680H55Z" />
<glyph unicode="]" glyph-name="bracketright" horiz-adv-x="273" d="M164 -112V654H50V680H194V-138H50V-112H164Z" />
<glyph unicode="^" glyph-name="asciicircum" horiz-adv-x="370" d="M202 595L345 354H309L185 566L61 354H25L167 595H202Z" />
<glyph unicode="_" glyph-name="underscore" horiz-adv-x="432" d="M50 -114V-87H382V-114H50Z" />
<glyph unicode="`" glyph-name="grave" horiz-adv-x="500" d="M309 513H276L191 665H224L309 513Z" />
<glyph unicode="a" glyph-name="a" horiz-adv-x="415" d="M310 249V314Q310 362 285 388T211 414Q145 414 87 381V412Q139 444 212 444Q343 444 343 318V7Q291 -8 239 -8Q146 -8 94 24T42 120Q42 249 259 249H310ZM310 28V220H260Q75 220 75 120Q75 70 120 45T239
20Q278 20 310 28Z" />
<glyph unicode="b" glyph-name="b" horiz-adv-x="497" d="M80 12V680H113V421Q157 444 224 444Q324 444 387 386T451 220Q451 115 384 54T209 -8Q135 -8 80 12ZM113 393V35Q151 21 209 21Q306 21 361 74T417 220Q417 313 363 364T224 415Q164 415 113 393Z" />
<glyph unicode="c" glyph-name="c" horiz-adv-x="437" d="M385 408V372Q334 414 262 414Q185 414 133 361T80 219T132 76T265 22Q339 22 392 59V27Q344 -8 265 -8Q172 -8 109 54T46 219Q46 322 109 383T262 444Q333 444 385 408Z" />
<glyph unicode="d" glyph-name="d" horiz-adv-x="495" d="M419 680V5Q355 -8 295 -8Q182 -8 114 51T46 217Q46 324 113 384T278 444Q346 444 386 422V680H419ZM386 28V392Q342 415 278 415Q192 415 136 363T80 217Q80 125 138 73T295 21Q347 21 386 28Z" />
<glyph unicode="e" glyph-name="e" horiz-adv-x="466" d="M422 227H78V220Q78 129 129 76T260 22Q345 22 404 72V37Q351 -8 260 -8Q168 -8 107 53T46 220Q46 312 104 378T249 444Q329 444 375 393T422 254V227ZM81 254H389Q389 328 352 371T249 415Q186 415 139
370T81 254Z" />
<glyph unicode="f" glyph-name="f" horiz-adv-x="248" d="M123 408V0H90V408H24V436H90V559Q90 620 121 654T208 688Q254 688 282 667V631Q249 658 208 658Q123 658 123 553V436H248V408H123Z" />
<glyph unicode="g" glyph-name="g" horiz-adv-x="495" d="M386 -1V15Q352 -6 283 -6Q176 -6 111 52T46 220Q46 324 114 384T295 444Q367 444 419 419V-6Q419 -97 365 -142T230 -188Q147 -188 103 -161V-127Q158 -158 230 -158Q299 -158 342 -121T386 -1ZM386 42V401Q342
415 295 415Q194 415 137 362T80 220Q80 129 133 76T283 23Q340 23 386 42Z" />
<glyph unicode="h" glyph-name="h" horiz-adv-x="495" d="M80 0V680H113V419Q186 444 246 444Q420 444 420 300V0H387V292Q387 360 349 386T246 413Q187 413 113 390V0H80Z" />
<glyph unicode="i" glyph-name="i" horiz-adv-x="193" d="M113 436V0H80V436H113ZM107 536T96 536T77 543T69 563T77 582T96 590T115 583T123 563T115 544Z" />
<glyph unicode="j" glyph-name="j" horiz-adv-x="193" d="M80 -68V436H113V-66Q113 -188 7 -188Q-25 -188 -51 -176V-145Q-19 -159 7 -159Q43 -159 61 -139T80 -68ZM107 536T96 536T77 543T69 563T77 582T96 590T115 583T123 563T115 544Z" />
<glyph unicode="k" glyph-name="k" horiz-adv-x="434" d="M376 0L118 236L365 436H413L164 236L421 0H376ZM113 680V0H80V680H113Z" />
<glyph unicode="l" glyph-name="l" horiz-adv-x="193" d="M113 680V0H80V680H113Z" />
<glyph unicode="m" glyph-name="m" horiz-adv-x="752" d="M644 0V297Q644 414 526 414Q457 414 380 381Q397 350 397 302V0H364V297Q364 414 246 414Q169 414 113 392V0H80V410Q160 444 246 444Q324 444 362 405Q454 444 526 444Q677 444 677 302V0H644Z" />
<glyph unicode="n" glyph-name="n" horiz-adv-x="495" d="M80 0V414Q162 444 246 444Q420 444 420 300V0H387V292Q387 360 349 386T246 413Q190 413 113 395V0H80Z" />
<glyph unicode="o" glyph-name="o" horiz-adv-x="516" d="M46 118T46 218T105 381T258 444T410 381T470 218T411 55T258 -8T106 55ZM436 130T436 218T387 360T258 415T130 361T80 218T129 76T258 21T386 75Z" />
<glyph unicode="p" glyph-name="p" horiz-adv-x="497" d="M80 -180V419Q144 444 213 444Q324 444 387 387T451 220Q451 115 388 54T223 -8Q154 -8 113 14V-180H80ZM113 400V44Q164 21 223 21Q314 21 365 76T417 220Q417 314 363 364T213 415Q153 415 113 400Z" />
<glyph unicode="q" glyph-name="q" horiz-adv-x="494" d="M418 419V-180H385V14Q343 -8 282 -8Q177 -8 112 50T46 218Q46 322 115 383T295 444Q360 444 418 419ZM385 41V401Q341 415 295 415Q198 415 139 362T80 218Q80 125 134 73T282 21Q333 21 385 41Z" />
<glyph unicode="r" glyph-name="r" horiz-adv-x="301" d="M113 380V0H80V395Q147 441 228 441Q257 441 291 433V400Q260 409 228 409Q158 409 113 380Z" />
<glyph unicode="s" glyph-name="s" horiz-adv-x="348" d="M43 36V74Q98 21 165 21Q214 21 241 43T269 109Q269 150 244 171T160 213Q101 234 73 261T45 334Q45 384 79 414T169 444Q232 444 279 409V371Q228 415 169 415Q126 415 102 394T77 334Q77 299 99 280T175
240Q208 228 226 220T264 196T292 160T301 109Q301 52 262 22T165 -8Q128 -8 95 4T43 36Z" />
<glyph unicode="t" glyph-name="t" horiz-adv-x="296" d="M21 408V436H88V536H121V436H256V408H121V106Q121 23 188 23Q225 23 266 47V15Q231 -6 188 -6Q88 -6 88 100V408H21Z" />
<glyph unicode="u" glyph-name="u" horiz-adv-x="482" d="M403 436V8Q326 -8 268 -8Q72 -8 72 137V436H105V139Q105 22 268 22Q315 22 370 32V436H403Z" />
<glyph unicode="v" glyph-name="v" horiz-adv-x="398" d="M219 0H180L7 436H42L200 32L357 436H391L219 0Z" />
<glyph unicode="w" glyph-name="w" horiz-adv-x="606" d="M320 436L437 32L567 436H599L457 0H416L303 394L190 0H149L7 436H40L170 32L286 436H320Z" />
<glyph unicode="x" glyph-name="x" horiz-adv-x="379" d="M358 436L209 225L367 0H329L188 201L49 0H12L170 225L21 436H59L191 248L321 436H358Z" />
<glyph unicode="y" glyph-name="y" horiz-adv-x="413" d="M42 436L213 15L373 436H406L170 -180H137L196 -27L7 436H42Z" />
<glyph unicode="z" glyph-name="z" horiz-adv-x="399" d="M363 28V0H37V30L319 408H53V436H358V408L72 28H363Z" />
<glyph unicode="{" glyph-name="braceleft" horiz-adv-x="314" d="M165 545V376Q165 327 142 303T89 271Q106 266 121 258T150 225T165 166V-3Q165 -112 253 -112H274V-138H261Q194 -138 164 -104T134 -3V160Q134 212 110 235T49 258H18V284H49Q85 284 109 307T134
382V545Q134 612 164 646T261 680H274V654H253Q165 654 165 545Z" />
<glyph unicode="|" glyph-name="bar" horiz-adv-x="222" d="M96 -138V680H126V-138H96Z" />
<glyph unicode="}" glyph-name="braceright" horiz-adv-x="314" d="M149 -3V166Q149 215 172 239T225 271Q208 276 193 284T164 317T149 376V545Q149 654 61 654H40V680H53Q120 680 150 646T180 545V382Q180 330 204 307T265 284H296V258H265Q229 258 205 235T180
160V-3Q180 -70 150 -104T53 -138H40V-112H61Q149 -112 149 -3Z" />
<glyph unicode="~" glyph-name="asciitilde" horiz-adv-x="401" d="M318 304H348Q348 261 328 236T269 210Q237 210 196 244T132 279Q108 279 95 261T82 213H52Q52 256 73 281T131 307Q163 307 203 272T268 237T305 255T318 304Z" />
</font>
</defs>
</svg>
