<?xml version="1.0" standalone="no"?> <!DOCTYPE svg PUBLIC "-//W3C//DTD SVG 1.0//EN" "http://www.w3.org/TR/2001/REC-SVG-20010904/DTD/svg10.dtd" > <svg xmlns="http://www.w3.org/2000/svg" width="100%" height="100%">
<defs >
<font id="karbon-regular" horiz-adv-x="465" ><font-face
    font-family="Karbon Regular"
    units-per-em="1000"
    panose-1="0 0 5 0 0 0 0 0 0 0"
    ascent="680"
    descent="-320"
    alphabetic="0" />
<missing-glyph horiz-adv-x="190" />
<glyph unicode=" " glyph-name="space" horiz-adv-x="190" />
<glyph unicode="!" glyph-name="exclam" horiz-adv-x="269" d="M164 594V169H105V594H164ZM85 21T85 41T99 75T134 90T169 76T184 41T169 6T134 -9T100 6Z" />
<glyph unicode="&quot;" glyph-name="quotedbl" horiz-adv-x="304" d="M60 436L80 644H137L108 436H60ZM167 436L187 644H244L215 436H167Z" />
<glyph unicode="#" glyph-name="numbersign" horiz-adv-x="509" d="M163 169L129 0H73L107 169H30V222H118L148 369H62V422H158L193 594H249L214 422H348L383 594H439L404 422H479V369H394L364 222H447V169H353L319 0H263L297 169H163ZM174 222H308L338 369H204L174 222Z" />
<glyph unicode="$" glyph-name="dollar" horiz-adv-x="419" d="M186 -95V0Q95 3 29 58V125Q112 55 186 52V281Q104 306 65 340T26 443Q26 507 73 547T186 593V680H236V592Q310 584 357 548V485Q294 532 236 540V327Q317 301 355 264T393 156Q393 91 350 52T236
3V-95H186ZM186 342V541Q141 537 114 512T86 444Q86 401 107 381T186 342ZM236 266V56Q333 72 333 156Q333 200 309 224T236 266Z" />
<glyph unicode="%" glyph-name="percent" horiz-adv-x="692" d="M40 466Q40 526 80 565T177 604Q235 604 275 565T315 466Q315 407 275 368T177 329Q120 329 80 368T40 466ZM96 466Q96 426 118 404T177 381T236 403T259 466Q259 507 236 529T177 552T119 530T96
466ZM652 127Q652 68 612 29T514 -10Q457 -10 417 29T377 127Q377 187 417 226T514 265Q572 265 612 226T652 127ZM596 127Q596 168 573 190T514 213T456 191T433 127Q433 87 455 65T514 42T573 64T596 127ZM554 594L197 0H139L496 594H554Z" />
<glyph unicode="&amp;" glyph-name="ampersand" horiz-adv-x="552" d="M173 321L147 348Q86 409 86 474Q86 532 123 568T226 604Q296 604 334 568T373 471Q373 417 343 380T259 312L408 155Q444 218 444 293H499Q499 196 446 115L556 0H482L412 72Q334 -9 221
-9Q138 -9 87 33T36 149Q36 203 68 242T173 321ZM190 385L225 349Q268 372 291 399T314 471Q313 509 289 530T226 553Q189 553 167 531T145 474Q145 433 190 385ZM376 110L208 285Q153 255 126 223T98 149Q98 101 133 72T221 42Q315 42 376 110Z" />
<glyph unicode="&apos;" glyph-name="quotesingle" horiz-adv-x="197" d="M60 436L80 644H137L108 436H60Z" />
<glyph unicode="(" glyph-name="parenleft" horiz-adv-x="315" d="M305 -140H238Q158 -66 109 39T60 270T109 501T238 680H305Q216 593 167 496T117 270T166 44T305 -140Z" />
<glyph unicode=")" glyph-name="parenright" horiz-adv-x="315" d="M10 680H77Q157 606 206 501T255 270T206 39T77 -140H10Q99 -53 148 44T198 270T149 496T10 680Z" />
<glyph unicode="*" glyph-name="asterisk" horiz-adv-x="336" d="M168 506L106 417L69 443L134 530L30 562L43 606L146 570L144 680H191L188 571L292 607L306 563L202 531L268 444L231 417L168 506Z" />
<glyph unicode="+" glyph-name="plus" horiz-adv-x="459" d="M203 266H40V319H203V482H256V319H419V266H256V103H203V266Z" />
<glyph unicode="," glyph-name="comma" horiz-adv-x="239" d="M84 80H154Q154 19 125 -39T55 -124H7Q84 -44 84 80Z" />
<glyph unicode="-" glyph-name="hyphen" horiz-adv-x="355" d="M70 232V286H285V232H70Z" />
<glyph unicode="." glyph-name="period" horiz-adv-x="239" d="M70 21T70 41T84 75T119 90T154 76T169 41T154 6T119 -9T85 6Z" />
<glyph unicode="/" glyph-name="slash" horiz-adv-x="402" d="M10 -138L324 680H382L68 -138H10Z" />
<glyph unicode="0" glyph-name="zero" horiz-adv-x="542" d="M50 162T50 297T110 518T271 604T432 518T492 297T432 76T271 -10T110 76ZM112 410T112 297T155 114T271 43T386 113T430 297T387 480T271 551T156 481Z" />
<glyph unicode="1" glyph-name="one" horiz-adv-x="305" d="M16 516V570L201 603V0H140V535L16 516Z" />
<glyph unicode="2" glyph-name="two" horiz-adv-x="420" d="M83 54H382V0H5V46Q62 94 96 124T176 200T245 279T288 355T306 435Q306 491 276 519T196 548Q107 548 27 468V535Q94 604 196 604Q273 604 320 562T367 435Q367 344 285 243T83 54Z" />
<glyph unicode="3" glyph-name="three" horiz-adv-x="396" d="M27 470V535Q50 563 92 583T182 604Q262 604 305 562T348 457Q348 401 309 356T212 303Q276 295 318 255T361 152Q361 83 309 37T164 -10Q123 -10 83 1T20 32V89Q90 41 164 41Q225 41 262 71T299 152Q299
208 262 236T133 280V322Q284 355 284 457Q284 500 255 525T182 550Q101 550 27 470Z" />
<glyph unicode="4" glyph-name="four" horiz-adv-x="507" d="M379 594V216H492V165H379V0H320V165H26V216L307 594H379ZM320 529L90 216H320V529Z" />
<glyph unicode="5" glyph-name="five" horiz-adv-x="401" d="M131 540L119 366Q361 336 361 165Q361 91 308 41T154 -10Q76 -10 20 28V86Q88 41 153 41Q223 41 261 75T299 165Q299 240 238 274T62 321L81 594H346V540H131Z" />
<glyph unicode="6" glyph-name="six" horiz-adv-x="479" d="M248 594H313L182 395L131 323Q176 377 254 377Q333 377 388 326T443 184Q443 102 388 46T240 -10Q148 -10 95 46T42 184Q42 276 112 384L248 594ZM103 183Q103 118 142 79T241 40Q303 40 342 79T382
183Q382 247 343 286T242 325Q182 325 143 286T103 183Z" />
<glyph unicode="7" glyph-name="seven" horiz-adv-x="403" d="M313 540H10V594H376V540L117 0H54L313 540Z" />
<glyph unicode="8" glyph-name="eight" horiz-adv-x="476" d="M324 -10T238 -10T96 36T40 162Q40 222 79 264T170 316Q129 328 102 363T74 449Q74 522 121 563T238 604T354 563T402 449Q402 399 375 364T306 316Q357 306 396 264T436 162Q436 82 380 36ZM194 346T238
346T312 374T343 450Q343 498 313 527T238 556T164 527T133 450Q133 403 163 375ZM179 40T238 40T335 71T373 162Q373 220 334 255T238 290T142 255T103 162Q103 103 141 72Z" />
<glyph unicode="9" glyph-name="nine" horiz-adv-x="479" d="M231 0H166L297 199L348 271Q303 217 225 217Q146 217 91 268T36 410Q36 492 91 548T239 604Q331 604 384 548T437 410Q437 318 367 210L231 0ZM376 411Q376 476 337 515T238 554Q176 554 137 515T97
411Q97 347 136 308T237 269Q297 269 336 308T376 411Z" />
<glyph unicode=":" glyph-name="colon" horiz-adv-x="239" d="M70 21T70 41T84 75T119 90T154 76T169 41T154 6T119 -9T85 6ZM70 356T70 376T84 410T119 425T154 411T169 376T154 341T119 326T85 341Z" />
<glyph unicode=";" glyph-name="semicolon" horiz-adv-x="239" d="M84 80H154Q154 19 125 -39T55 -124H7Q84 -44 84 80ZM71 356T71 376T85 410T120 425T155 411T170 376T155 341T120 326T86 341Z" />
<glyph unicode="&lt;" glyph-name="less" horiz-adv-x="329" d="M20 287V295L289 459V393L116 291L289 189V123L20 287Z" />
<glyph unicode="=" glyph-name="equal" horiz-adv-x="469" d="M45 206V259H424V206H45ZM45 326V379H424V326H45Z" />
<glyph unicode="&gt;" glyph-name="greater" horiz-adv-x="329" d="M309 295V287L40 123V189L213 291L40 393V459L309 295Z" />
<glyph unicode="?" glyph-name="question" horiz-adv-x="380" d="M25 475V539Q48 568 87 586T176 604Q259 604 306 556T354 438Q354 395 338 362T292 307T240 275T183 252V169H123V280Q208 309 251 343T294 438Q294 488 260 518T176 549Q93 549 25 475ZM105 21T105
41T119 75T154 90T189 76T204 41T189 6T154 -9T120 6Z" />
<glyph unicode="@" glyph-name="at" horiz-adv-x="773" d="M543 386V84Q666 131 666 282Q666 394 596 460T408 527Q269 527 185 441T100 218Q100 152 120 98T174 9T253 -51T346 -85T442 -96Q547 -96 639 -60V-110Q560 -144 442 -144Q385 -144 331 -132T224 -93T132
-25T69 78T45 218Q45 373 145 474T408 575Q553 575 638 495T723 282Q723 158 641 89T427 20Q330 20 272 72T213 214Q213 303 270 356T421 410Q488 410 543 386ZM491 73V349Q465 359 421 359Q352 359 311 320T269 214T312 107T426 67Q466 67 491 73Z" />
<glyph unicode="A" glyph-name="A" horiz-adv-x="562" d="M424 164H136L74 0H10L240 594H319L552 0H486L424 164ZM404 216L279 544L155 216H404Z" />
<glyph unicode="B" glyph-name="B" horiz-adv-x="484" d="M85 1V595Q157 604 205 604Q420 604 420 443Q420 386 386 349T295 304Q365 299 404 262T444 160Q444 83 386 37T205 -10Q146 -10 85 1ZM146 274V45Q178 41 205 41Q383 41 383 160Q383 217 337 245T208
274H146ZM146 550V327H199Q275 327 317 356T359 443Q359 553 204 553Q178 553 146 550Z" />
<glyph unicode="C" glyph-name="C" horiz-adv-x="559" d="M516 559V487Q452 548 351 548Q248 548 178 479T108 297T178 116T351 46Q456 46 519 105V34Q445 -10 352 -10Q217 -10 131 75T45 297Q45 432 133 518T352 604Q442 604 516 559Z" />
<glyph unicode="D" glyph-name="D" horiz-adv-x="616" d="M85 -1V596Q155 604 207 604Q305 604 378 580T492 514T552 422T571 311Q571 246 551 190T491 88T380 16T215 -10Q161 -10 85 -1ZM147 545V48Q179 44 216 44Q349 44 427 111T506 310Q506 420 432 484T205
548Q178 548 147 545Z" />
<glyph unicode="E" glyph-name="E" horiz-adv-x="477" d="M147 54H427V0H85V594H423V540H147V330H405V276H147V54Z" />
<glyph unicode="F" glyph-name="F" horiz-adv-x="424" d="M147 0H85V594H389V540H147V325H367V270H147V0Z" />
<glyph unicode="G" glyph-name="G" horiz-adv-x="593" d="M515 559V488Q451 548 351 548Q249 548 179 478T108 297Q108 185 178 115T351 45Q422 45 473 67V268H535V34Q461 -10 352 -10Q217 -10 131 76T45 297Q45 431 133 517T352 604Q441 604 515 559Z" />
<glyph unicode="H" glyph-name="H" horiz-adv-x="660" d="M513 330V594H575V0H513V275H147V0H85V594H147V330H513Z" />
<glyph unicode="I" glyph-name="I" horiz-adv-x="232" d="M147 594V0H85V594H147Z" />
<glyph unicode="J" glyph-name="J" horiz-adv-x="364" d="M15 41V111Q70 43 146 43Q193 43 212 68T232 149V594H294V140Q294 67 256 29T146 -10Q64 -10 15 41Z" />
<glyph unicode="K" glyph-name="K" horiz-adv-x="518" d="M85 0V594H147V0H85ZM151 292L419 594H496L228 298L515 0H435L151 292Z" />
<glyph unicode="L" glyph-name="L" horiz-adv-x="423" d="M85 0V594H147V54H403V0H85Z" />
<glyph unicode="M" glyph-name="M" horiz-adv-x="766" d="M418 0H346L183 535L92 0H32L138 594H221L383 63L545 594H628L734 0H672L581 535L418 0Z" />
<glyph unicode="N" glyph-name="N" horiz-adv-x="646" d="M149 594L501 90V594H561V0H499L145 503V0H85V594H149Z" />
<glyph unicode="O" glyph-name="O" horiz-adv-x="704" d="M45 162T45 297T133 518T352 604T570 518T659 297T571 76T352 -10T134 76ZM596 185T596 297T526 478T352 548T179 479T108 297T178 116T352 46T525 115Z" />
<glyph unicode="P" glyph-name="P" horiz-adv-x="448" d="M147 222V0H85V595Q146 604 190 604Q309 604 366 554T423 416Q423 322 361 271T185 220Q173 220 147 222ZM147 549V274Q158 273 179 273Q360 273 360 416Q360 551 187 551Q175 551 147 549Z" />
<glyph unicode="Q" glyph-name="Q" horiz-adv-x="704" d="M468 -138L343 -10Q216 -6 131 79T45 297Q45 432 133 518T352 604T570 518T659 297Q659 181 592 99T417 -4L550 -138H468ZM596 185T596 297T526 478T352 548T179 479T108 297T178 116T352 46T525 115Z" />
<glyph unicode="R" glyph-name="R" horiz-adv-x="497" d="M147 230V0H85V595Q146 604 198 604Q314 604 371 555T429 420Q429 355 395 308T300 244L497 0H420L236 230H147ZM147 548V281H209Q284 281 324 316T365 418Q365 479 324 514T197 550Q175 550 147 548Z" />
<glyph unicode="S" glyph-name="S" horiz-adv-x="429" d="M42 36V104Q119 43 193 43Q251 43 288 70T325 152Q325 201 295 227T201 276Q113 308 76 344T38 451Q38 523 89 563T211 604Q295 604 353 557V493Q280 551 211 551Q161 551 130 524T98 450Q98 408 125 383T218
335Q307 304 346 265T386 152Q386 74 332 32T193 -10Q101 -10 42 36Z" />
<glyph unicode="T" glyph-name="T" horiz-adv-x="484" d="M273 540V0H211V540H15V594H469V540H273Z" />
<glyph unicode="U" glyph-name="U" horiz-adv-x="599" d="M70 194V594H132V199Q132 111 179 78T315 45Q388 45 452 56V594H514V13Q417 -10 315 -10Q70 -10 70 194Z" />
<glyph unicode="V" glyph-name="V" horiz-adv-x="552" d="M313 0H239L10 594H77L277 62L477 594H542L313 0Z" />
<glyph unicode="W" glyph-name="W" horiz-adv-x="762" d="M346 594H419L551 57L691 594H752L591 0H509L381 523L253 0H171L10 594H74L213 57L346 594Z" />
<glyph unicode="X" glyph-name="X" horiz-adv-x="522" d="M496 594L299 308L512 0H440L261 261L80 0H10L225 309L25 594H98L264 353L427 594H496Z" />
<glyph unicode="Y" glyph-name="Y" horiz-adv-x="514" d="M257 293L436 594H504L288 237V0H226V237L10 594H78L257 293Z" />
<glyph unicode="Z" glyph-name="Z" horiz-adv-x="479" d="M44 540V594H443V541L92 54H454V0H25V54L371 540H44Z" />
<glyph unicode="[" glyph-name="bracketleft" horiz-adv-x="304" d="M137 633V-91H254V-138H85V680H254V633H137Z" />
<glyph unicode="\" glyph-name="backslash" horiz-adv-x="402" d="M78 680L392 -138H334L20 680H78Z" />
<glyph unicode="]" glyph-name="bracketright" horiz-adv-x="304" d="M167 -91V633H50V680H219V-138H50V-91H167Z" />
<glyph unicode="^" glyph-name="asciicircum" horiz-adv-x="416" d="M240 594L396 338H332L208 543L84 338H20L176 594H240Z" />
<glyph unicode="_" glyph-name="underscore" horiz-adv-x="462" d="M50 -135V-87H412V-135H50Z" />
<glyph unicode="`" glyph-name="grave" horiz-adv-x="500" d="M322 513H263L178 665H237L322 513Z" />
<glyph unicode="a" glyph-name="a" horiz-adv-x="429" d="M301 252V305Q301 346 277 368T209 390Q148 390 81 355V412Q144 446 216 446Q361 446 361 309V8Q303 -8 237 -8Q40 -8 40 121Q40 185 95 218T252 252H301ZM301 48V203H256Q185 203 143 183T100 121Q100
42 240 42Q270 42 301 48Z" />
<glyph unicode="b" glyph-name="b" horiz-adv-x="510" d="M75 12V680H135V424Q173 446 239 446Q341 446 404 388T468 220Q468 115 400 53T217 -10Q146 -10 75 12ZM135 372V53Q171 43 217 43Q305 43 356 90T407 220Q407 301 359 346T239 392Q177 392 135 372Z" />
<glyph unicode="c" glyph-name="c" horiz-adv-x="440" d="M393 413V350Q335 391 271 391Q200 391 152 345T103 217Q103 137 152 91T275 45Q337 45 400 86V23Q336 -10 269 -10Q174 -10 108 52T42 218Q42 323 108 384T268 446Q334 446 393 413Z" />
<glyph unicode="d" glyph-name="d" horiz-adv-x="512" d="M437 680V6Q369 -10 295 -10Q180 -10 111 50T42 218Q42 324 111 385T282 446Q343 446 377 426V680H437ZM377 48V372Q340 392 282 392Q204 392 154 346T103 218T155 90T295 43Q344 43 377 48Z" />
<glyph unicode="e" glyph-name="e" horiz-adv-x="472" d="M432 215H102V213Q102 136 149 90T264 43Q348 43 413 92V32Q357 -10 264 -10Q167 -10 105 52T42 218Q42 316 101 381T249 446Q333 446 382 397T432 256V215ZM106 265H372Q366 393 246 393Q194 393 157
360T106 265Z" />
<glyph unicode="f" glyph-name="f" horiz-adv-x="269" d="M147 385V0H87V385H20V436H87V545Q87 614 121 652T221 690Q268 690 299 668V611Q263 637 222 637Q185 637 166 616T147 544V436H267V385H147Z" />
<glyph unicode="g" glyph-name="g" horiz-adv-x="510" d="M375 6V15Q346 -4 285 -4Q174 -4 108 53T42 220Q42 325 110 385T293 446Q370 446 435 418V-5Q435 -98 377 -144T235 -190Q158 -190 100 -163V-106Q170 -139 235 -139Q296 -139 335 -105T375 6ZM375 66V378Q336
391 293 391Q203 391 153 346T102 220Q102 141 151 95T285 49Q329 49 375 66Z" />
<glyph unicode="h" glyph-name="h" horiz-adv-x="505" d="M75 0V680H135V423Q198 446 263 446Q435 446 435 294V0H375V282Q375 390 253 390Q195 390 135 370V0H75Z" />
<glyph unicode="i" glyph-name="i" horiz-adv-x="210" d="M135 436V0H75V436H135ZM105 527Q87 527 74 540T60 572Q60 591 73 604T105 617Q124 617 137 604T150 572Q150 554 137 541T105 527Z" />
<glyph unicode="j" glyph-name="j" horiz-adv-x="210" d="M75 -50V436H135V-54Q135 -190 4 -190Q-32 -190 -62 -176V-121Q-37 -138 4 -138Q75 -138 75 -50ZM105 527Q87 527 74 540T60 572Q60 591 73 604T105 617Q124 617 137 604T150 572Q150 554 137 541T105 527Z" />
<glyph unicode="k" glyph-name="k" horiz-adv-x="457" d="M367 0L138 236L359 436H443L217 238L447 0H367ZM135 680V0H75V680H135Z" />
<glyph unicode="l" glyph-name="l" horiz-adv-x="210" d="M135 680V0H75V680H135Z" />
<glyph unicode="m" glyph-name="m" horiz-adv-x="760" d="M630 0V292Q630 347 601 369T528 392Q454 392 400 367Q413 336 413 295V0H353V292Q353 392 250 392Q189 392 135 372V0H75V408Q169 446 250 446Q327 446 367 412Q455 446 528 446Q609 446 649 410T690 294V0H630Z" />
<glyph unicode="n" glyph-name="n" horiz-adv-x="505" d="M75 0V413Q166 446 258 446Q435 446 435 294V0H375V282Q375 390 253 390Q197 390 135 374V0H75Z" />
<glyph unicode="o" glyph-name="o" horiz-adv-x="522" d="M42 117T42 218T103 382T261 446T419 383T480 218T419 54T261 -10T103 53ZM419 139T419 218T375 345T261 394T147 346T103 218T147 91T261 42T375 90Z" />
<glyph unicode="p" glyph-name="p" horiz-adv-x="510" d="M75 -180V418Q150 446 227 446Q341 446 404 388T468 218Q468 112 404 51T231 -10Q173 -10 135 8V-180H75ZM135 379V60Q177 42 231 42Q311 42 359 89T407 218Q407 299 360 345T227 391Q170 391 135 379Z" />
<glyph unicode="q" glyph-name="q" horiz-adv-x="512" d="M437 418V-180H377V9Q348 -10 287 -10Q177 -10 110 49T42 218Q42 323 111 384T295 446Q372 446 437 418ZM377 60V378Q338 391 295 391Q205 391 154 345T102 218Q102 139 152 91T287 43Q331 43 377 60Z" />
<glyph unicode="r" glyph-name="r" horiz-adv-x="330" d="M135 364V0H75V396Q150 443 237 443Q272 443 310 434V375Q278 386 233 386Q174 386 135 364Z" />
<glyph unicode="s" glyph-name="s" horiz-adv-x="366" d="M49 25V93Q107 41 172 41Q262 41 262 111Q262 147 239 163T155 200Q96 220 71 248T45 328Q45 384 83 415T182 446Q254 446 301 413V348Q244 395 182 395Q146 395 125 377T103 328Q103 298 123 280T194
246Q258 227 289 199T321 115Q321 53 279 22T172 -10Q94 -10 49 25Z" />
<glyph unicode="t" glyph-name="t" horiz-adv-x="316" d="M15 385V436H82V542H142V436H265V385H142V119Q142 41 205 41Q238 41 286 65V12Q242 -10 192 -10Q82 -10 82 113V385H15Z" />
<glyph unicode="u" glyph-name="u" horiz-adv-x="490" d="M415 436V5Q336 -10 263 -10Q65 -10 65 142V436H125V145Q125 42 259 42Q307 42 355 48V436H415Z" />
<glyph unicode="v" glyph-name="v" horiz-adv-x="418" d="M242 0H176L5 436H68L210 56L352 436H413L242 0Z" />
<glyph unicode="w" glyph-name="w" horiz-adv-x="630" d="M347 436L456 55L565 436H625L493 0H420L315 371L210 0H137L5 436H68L177 55L285 436H347Z" />
<glyph unicode="x" glyph-name="x" horiz-adv-x="410" d="M392 436L238 225L400 0H333L204 182L74 0H10L172 224L19 436H86L207 268L325 436H392Z" />
<glyph unicode="y" glyph-name="y" horiz-adv-x="428" d="M71 436L217 39L361 436H423L187 -180H128L187 -29L5 436H71Z" />
<glyph unicode="z" glyph-name="z" horiz-adv-x="408" d="M375 51V0H35V52L296 385H48V436H367V384L102 51H375Z" />
<glyph unicode="{" glyph-name="braceleft" horiz-adv-x="335" d="M191 541V387Q191 334 165 305T105 271Q139 266 165 237T191 155V1Q191 -91 267 -91H291V-138H270Q138 -138 138 1V153Q138 203 115 225T56 248H26V294H56Q92 294 115 316T138 389V541Q138 680
270 680H291V633H267Q191 633 191 541Z" />
<glyph unicode="|" glyph-name="bar" horiz-adv-x="257" d="M102 -138V680H155V-138H102Z" />
<glyph unicode="}" glyph-name="braceright" horiz-adv-x="335" d="M144 1V155Q144 208 170 237T230 271Q196 276 170 305T144 387V541Q144 633 68 633H44V680H65Q197 680 197 541V389Q197 339 220 317T279 294H309V248H279Q243 248 220 226T197 153V1Q197 -138
65 -138H44V-91H68Q144 -91 144 1Z" />
<glyph unicode="~" glyph-name="asciitilde" horiz-adv-x="459" d="M335 316H389Q389 261 365 231T298 201Q267 201 224 234T163 268Q145 268 135 251T124 203H70Q70 258 94 288T161 318Q192 318 235 285T296 251Q314 251 324 268T335 316Z" />
</font>
</defs>
</svg>
