<?xml version="1.0" standalone="no"?>
<!DOCTYPE svg PUBLIC "-//W3C//DTD SVG 1.1//EN" "http://www.w3.org/Graphics/SVG/1.1/DTD/svg11.dtd" >
<svg xmlns="http://www.w3.org/2000/svg">
<metadata></metadata>
<defs>
<font id="karbon_bolditalic" horiz-adv-x="1300" >
<font-face units-per-em="2048" ascent="1393" descent="-655" />
<missing-glyph horiz-adv-x="389" />
<glyph unicode="&#xfb01;" horiz-adv-x="1134" d="M477 680l-119 -680h-290l118 680h-145l43 242h145l21 112q34 194 144.5 286.5t277.5 92.5q151 0 254 -63l-49 -258q-83 59 -185 59q-134 0 -157 -141l-15 -88h576l-162 -922h-291l119 680h-285z" />
<glyph unicode="&#xfb02;" horiz-adv-x="1134" d="M793 1368l-48 -254q-51 35 -94 35q-93 0 -112 -119l-19 -108h170l-43 -242h-170l-119 -680h-290l118 680h-145l43 242h145l27 139q35 184 125.5 268t241.5 84q94 0 170 -45zM1178 1393l-244 -1393h-291l244 1393h291z" />
<glyph unicode="&#xfb03;" horiz-adv-x="1710" d="M762 680h-285l-119 -680h-290l118 680h-145l43 242h145l21 106q35 184 125 268t241 84q103 0 179 -45l-47 -254q-51 35 -103 35q-94 0 -113 -119l-12 -75h285l20 112q34 194 144.5 286.5t277.5 92.5q151 0 254 -63l-49 -258q-83 59 -184 59q-135 0 -158 -141l-14 -88h575 l-162 -922h-290l118 680h-284l-119 -680h-291z" />
<glyph unicode="&#xfb04;" horiz-adv-x="1710" d="M762 680h-285l-119 -680h-290l118 680h-145l43 242h145l21 106q35 184 125 268t241 84q103 0 179 -45l-47 -254q-51 35 -103 35q-94 0 -113 -119l-12 -75h285l26 139q35 184 125.5 268t241.5 84q94 0 170 -45l-47 -254q-51 35 -94 35q-94 0 -113 -119l-18 -108h170 l-43 -242h-170l-119 -680h-291zM1753 1393l-244 -1393h-290l243 1393h291z" />
<glyph horiz-adv-x="2048" />
<glyph horiz-adv-x="2048" />
<glyph unicode="&#xd;" horiz-adv-x="2048" />
<glyph unicode=" "  horiz-adv-x="389" />
<glyph unicode="&#x09;" horiz-adv-x="389" />
<glyph unicode="&#xa0;" horiz-adv-x="389" />
<glyph unicode="!" horiz-adv-x="524" d="M541 1217l-140 -795h-290l139 795h291zM35 168q0 77 54 131.5t130 54.5q77 0 132 -55t55 -131t-55 -130t-132 -54t-130.5 54t-53.5 130z" />
<glyph unicode="&#x22;" horiz-adv-x="782" d="M150 834l126 485h248l-168 -485h-206zM479 834l127 485h248l-174 -485h-201z" />
<glyph unicode="#" horiz-adv-x="1181" d="M426 313l-119 -313h-217l119 313h-143l34 191h181l81 219h-157l33 190h196l115 304h217l-115 -304h172l115 304h217l-115 -304h134l-33 -190h-172l-82 -219h149l-35 -191h-186l-119 -313h-217l119 313h-172zM498 504h172l82 219h-172z" />
<glyph unicode="$" horiz-adv-x="970" d="M762 1393l-33 -189q124 -24 223 -92l-51 -285q-136 136 -319 136q-69 0 -105.5 -26t-36.5 -73q0 -43 38.5 -69t117.5 -54q158 -53 229.5 -133t71.5 -211q0 -171 -104.5 -269.5t-274.5 -121.5l-35 -201h-225l37 205q-174 30 -266 111l51 282q68 -63 157.5 -106t184.5 -43 q74 0 119 26t45 80q0 42 -36 69t-104 50q-164 53 -239.5 129t-75.5 219q0 156 99.5 259.5t275.5 125.5l31 181h225z" />
<glyph unicode="%" horiz-adv-x="1519" d="M1112 -20q-128 0 -211.5 82t-83.5 212q0 141 98 236.5t236 95.5q128 0 211.5 -82.5t83.5 -212.5q0 -141 -98 -236t-236 -95zM1124 184q49 0 79 33t30 86q0 43 -26.5 70.5t-67.5 27.5q-49 0 -79 -32.5t-30 -85.5q0 -43 26.5 -71t67.5 -28zM455 1237q128 0 211.5 -82.5 t83.5 -212.5q0 -141 -98 -236.5t-236 -95.5q-128 0 -211.5 82.5t-83.5 212.5q0 141 98 236.5t236 95.5zM442 1032q-49 0 -78.5 -33t-29.5 -86q0 -43 26.5 -70.5t67.5 -27.5q49 0 79 33t30 86q0 43 -27 70.5t-68 27.5zM1356 1217l-944 -1217h-201l944 1217h201z" />
<glyph unicode="&#x26;" horiz-adv-x="1245" d="M989 238l174 -238h-338l-49 66q-156 -86 -332 -86q-193 0 -301 91t-108 242q0 248 303 346q-72 114 -72 228q0 156 112 253t277 97q160 0 255.5 -81t95.5 -230q-1 -117 -78 -202t-197 -136l117 -158q63 94 90 207h246q-49 -227 -195 -399zM610 752q122 60 127 151 q0 47 -24 75.5t-70 29.5q-42 0 -70 -27.5t-28 -75.5q0 -67 65 -153zM641 246l-188 252q-127 -65 -127 -160q0 -56 40 -92.5t111 -36.5q82 0 164 37z" />
<glyph unicode="'" horiz-adv-x="452" d="M150 834l126 485h248l-168 -485h-206z" />
<glyph unicode="(" horiz-adv-x="862" d="M705 -283h-310q-109 125 -169 297.5t-60 370.5q0 271 135 541t367 467h331q-263 -228 -403.5 -490t-140.5 -518q0 -176 63 -347t187 -321z" />
<glyph unicode=")" horiz-adv-x="862" d="M193 1393h309q109 -125 169 -297.5t60 -370.5q0 -271 -135 -541t-367 -467h-331q263 228 403.5 490t140.5 518q0 367 -249 668z" />
<glyph unicode="*" horiz-adv-x="819" d="M459 885l-150 -137l-139 153l154 133l-174 101l104 184l174 -109l39 199l209 -47l-51 -199l200 27l23 -211l-203 -16l84 -185l-192 -86z" />
<glyph unicode="+" horiz-adv-x="940" d="M365 494h-283l37 211h282l50 282h211l-50 -282h283l-37 -211h-283l-49 -283h-211z" />
<glyph unicode="," horiz-adv-x="559" d="M106 256h295q-26 -161 -108 -286.5t-191 -198.5h-206q88 108 136 223.5t74 261.5z" />
<glyph unicode="-" horiz-adv-x="727" d="M53 406l47 258h588l-47 -258h-588z" />
<glyph unicode="." horiz-adv-x="559" d="M49 168q0 77 54 131.5t130 54.5q77 0 132 -55t55 -131t-55 -130t-132 -54t-130.5 54t-53.5 130z" />
<glyph unicode="/" horiz-adv-x="940" d="M-133 -283l936 1676h303l-938 -1676h-301z" />
<glyph unicode="0" horiz-adv-x="1075" d="M502 -20q-196 0 -312 143.5t-116 378.5q0 158 43 295t117 233.5t177 151.5t220 55q196 0 312 -143.5t116 -378.5q0 -158 -43 -295t-117 -233.5t-177 -151.5t-220 -55zM616 979q-98 0 -169.5 -131.5t-71.5 -345.5q0 -127 36 -195.5t105 -68.5q98 0 170 131.5t72 345.5 q0 127 -36.5 195.5t-105.5 68.5z" />
<glyph unicode="1" horiz-adv-x="679" d="M92 877l49 274l535 84l-217 -1235h-301l157 903z" />
<glyph unicode="2" horiz-adv-x="927" d="M401 268h449l-47 -268h-846l43 242q30 22 88.5 64.5t88.5 64.5t81.5 60.5t79 61.5t68.5 58t63 59.5t49 56t40 57.5t22.5 54.5t9.5 55.5q0 122 -129 122q-78 0 -171 -39.5t-167 -95.5l51 287q175 129 399 129q169 0 260 -85.5t91 -233.5q0 -82 -29 -160t-74 -140 t-116.5 -127t-140.5 -114.5t-163 -108.5z" />
<glyph unicode="3" horiz-adv-x="866" d="M141 870l45 271q147 96 349 96q161 0 247 -80t86 -215q0 -131 -71.5 -214.5t-180.5 -119.5q177 -80 177 -254q0 -118 -61 -203.5t-165.5 -128t-238.5 -42.5q-209 0 -357 102l45 260q151 -113 293 -113q81 0 130.5 32t49.5 99q0 65 -53 94t-174 29l41 238q120 0 184 42 t64 114q0 96 -117 96q-69 0 -138 -26.5t-155 -76.5z" />
<glyph unicode="4" horiz-adv-x="1142" d="M1057 1217l-125 -701h164l-41 -237h-164l-49 -279h-291l49 279h-569l43 245l694 693h289zM705 868l-351 -352h287z" />
<glyph unicode="5" horiz-adv-x="864" d="M481 946l-41 -162q171 -31 267 -122t96 -248q0 -201 -132 -317.5t-349 -116.5q-202 0 -351 102l45 262q56 -47 138 -81t163 -34q93 0 147 37t54 113q0 37 -13.5 66t-40.5 49.5t-59.5 35t-79.5 24t-90.5 15t-101.5 9.5l154 639h637l-50 -271h-393z" />
<glyph unicode="6" horiz-adv-x="983" d="M561 1217h348l-256 -314l-90 -92q14 2 31 2q157 0 262 -108t105 -275q0 -200 -132 -325t-342 -125q-200 0 -319 113.5t-119 297.5q0 69 17.5 134t52 125t63 100t72.5 94zM516 588q-74 0 -127 -52.5t-53 -140.5q0 -75 47.5 -120.5t118.5 -45.5q74 0 127 52.5t53 140.5 q0 75 -47.5 120.5t-118.5 45.5z" />
<glyph unicode="7" horiz-adv-x="921" d="M610 946h-499l49 271h827l-49 -273l-610 -944h-328z" />
<glyph unicode="8" horiz-adv-x="946" d="M469 -20q-88 0 -165 20.5t-138.5 61.5t-97 107.5t-35.5 152.5q0 120 73 200.5t177 104.5q-133 83 -133 245q0 114 55.5 198.5t143 125.5t192.5 41q170 0 278.5 -90.5t108.5 -245.5q0 -108 -51 -190.5t-136 -116.5q69 -35 113.5 -102.5t44.5 -161.5q0 -108 -58.5 -189 t-155.5 -121t-216 -40zM539 748q54 0 89.5 34.5t35.5 89.5q0 53 -33 86t-88 33q-54 0 -89.5 -35t-35.5 -90q0 -53 33 -85.5t88 -32.5zM469 223q59 0 96 36.5t37 96.5q0 56 -37 90.5t-98 34.5q-59 0 -96 -36.5t-37 -96.5q0 -56 37 -90.5t98 -34.5z" />
<glyph unicode="9" horiz-adv-x="983" d="M479 0h-348l256 313l90 93q-21 -3 -31 -3q-157 0 -261.5 108t-104.5 275q0 201 131.5 326t341.5 125q200 0 319 -114t119 -298q0 -69 -17.5 -133.5t-52 -125t-63 -99.5t-72.5 -94zM524 629q75 0 128 52t53 140q0 75 -47.5 120.5t-118.5 45.5q-75 0 -128 -52t-53 -140 q0 -75 47.5 -120.5t118.5 -45.5z" />
<glyph unicode=":" horiz-adv-x="559" d="M49 168q0 77 54 131.5t130 54.5q77 0 132 -55t55 -131t-55 -130t-132 -54t-130.5 54t-53.5 130zM141 696q0 77 54.5 132t130.5 55t131 -55t55 -132q0 -76 -54.5 -130t-131.5 -54t-131 54t-54 130z" />
<glyph unicode=";" horiz-adv-x="559" d="M106 256h295q-26 -161 -108 -286.5t-191 -198.5h-206q88 108 136 223.5t74 261.5zM141 696q0 77 54.5 132t130.5 55t131 -55t55 -132q0 -76 -54.5 -130t-131.5 -54t-131 54t-54 130z" />
<glyph unicode="&#x3c;" horiz-adv-x="735" d="M92 588l4 16l658 377l-45 -248l-279 -145l227 -146l-39 -231z" />
<glyph unicode="=" horiz-adv-x="960" d="M74 344l35 191h776l-35 -191h-776zM131 672l35 190h776l-35 -190h-776z" />
<glyph unicode="&#x3e;" horiz-adv-x="735" d="M709 604l-4 -16l-658 -377l45 248l279 145l-228 146l39 231z" />
<glyph unicode="?" horiz-adv-x="782" d="M106 844l52 289q62 46 150 75t173 29q171 0 266 -84.5t95 -232.5q0 -72 -19 -130t-50.5 -98.5t-80.5 -72.5t-101 -52t-120 -37l-18 -108h-269l45 260q81 13 133.5 26.5t98.5 35t68 53.5t22 77q0 47 -28.5 73t-84.5 26q-160 0 -332 -129zM106 168q0 77 54.5 131.5 t130.5 54.5q77 0 131.5 -55t54.5 -131t-54.5 -130t-131.5 -54t-131 54t-54 130z" />
<glyph unicode="@" horiz-adv-x="1576" d="M1208 770l-96 -553q99 39 173.5 151t74.5 265q0 189 -128 295t-353 106q-288 0 -460.5 -178t-172.5 -463q0 -116 37.5 -210.5t99.5 -156.5t145.5 -104t172 -60t182.5 -18q204 0 413 74l-28 -147q-69 -31 -178 -50.5t-209 -19.5q-167 0 -310.5 44t-252.5 128t-171.5 217.5 t-62.5 302.5q0 127 35 245t103.5 215.5t164 170.5t222.5 113.5t272 40.5q303 0 472 -151t169 -394q0 -150 -51 -269t-139 -192t-201 -111t-242 -38q-225 0 -351 99t-126 296q0 193 131.5 315.5t337.5 122.5q187 0 327 -86zM889 213l69 414q-34 12 -81 12q-100 0 -163 -58.5 t-63 -162.5q0 -92 58.5 -146.5t164.5 -58.5h15z" />
<glyph unicode="A" d="M907 0l-49 236h-498l-127 -236h-321l676 1217h362l271 -1217h-314zM723 911l-231 -432h317z" />
<glyph unicode="B" horiz-adv-x="1077" d="M45 16l209 1190q51 10 157.5 20.5t176.5 10.5q223 0 341 -77t118 -245q0 -120 -66 -198.5t-182 -98.5q221 -35 221 -243q0 -191 -167.5 -292t-463.5 -101q-200 0 -344 34zM414 487l-43 -247q54 -4 96 -4q229 0 229 141q0 110 -155 110h-127zM500 973l-43 -244h88 q86 0 140 32t54 101q0 58 -36.5 88.5t-100.5 30.5q-52 0 -102 -8z" />
<glyph unicode="C" horiz-adv-x="1112" d="M1143 1122l-51 -288q-128 131 -314 131q-168 0 -270 -110.5t-102 -289.5q0 -141 83 -227t218 -86q88 0 163.5 21.5t167.5 78.5l-53 -309q-121 -63 -291 -63q-140 0 -254.5 43.5t-190 121t-116.5 184t-41 232.5q0 156 53 284t145 213.5t217.5 132t270.5 46.5 q215 0 365 -115z" />
<glyph unicode="D" horiz-adv-x="1280" d="M45 23l207 1179q151 35 371 35q303 0 462.5 -154.5t159.5 -423.5q0 -137 -38.5 -249.5t-108 -191t-166.5 -132.5t-212 -79t-247 -25q-113 0 -234 12.5t-194 28.5zM512 950l-121 -690q55 -10 129 -10q86 0 157.5 21.5t130 68t91.5 128t33 191.5q0 136 -79.5 216.5 t-229.5 80.5q-53 0 -111 -6z" />
<glyph unicode="E" horiz-adv-x="1005" d="M385 268h506l-47 -268h-799l213 1217h784l-47 -269h-491l-37 -209h446l-45 -262h-446z" />
<glyph unicode="F" horiz-adv-x="915" d="M350 0h-305l213 1217h739l-47 -269h-434l-45 -258h387l-47 -264h-387z" />
<glyph unicode="G" horiz-adv-x="1206" d="M1180 1120l-54 -295q-61 63 -150.5 101.5t-189.5 38.5q-171 0 -275.5 -107t-104.5 -299q0 -132 80 -222.5t204 -90.5q61 0 94 10l58 313h299l-90 -516q-167 -73 -361 -73q-269 0 -433.5 160.5t-164.5 418.5q0 156 55 285t149.5 214.5t220.5 132t269 46.5q238 0 394 -117z " />
<glyph unicode="H" horiz-adv-x="1347" d="M1356 1217l-213 -1217h-305l82 469h-488l-82 -469h-305l213 1217h305l-84 -478h488l84 478h305z" />
<glyph unicode="I" horiz-adv-x="555" d="M563 1217l-213 -1217h-305l213 1217h305z" />
<glyph unicode="J" horiz-adv-x="790" d="M-31 66l49 278q100 -84 213 -84q129 0 148 115l147 842h305l-153 -877q-17 -97 -57 -168t-98 -112t-126.5 -60.5t-150.5 -19.5q-77 0 -158 25t-119 61z" />
<glyph unicode="K" horiz-adv-x="1175" d="M461 604l465 613h354l-494 -619l320 -598h-338l-307 602v2zM563 1217l-213 -1217h-305l213 1217h305z" />
<glyph unicode="L" horiz-adv-x="925" d="M45 0l213 1217h305l-166 -949h463l-47 -268h-768z" />
<glyph unicode="M" horiz-adv-x="1705" d="M911 0h-274l-107 764l-233 -764h-301l373 1217h354l117 -832l385 832h366l-41 -1217h-299l25 764z" />
<glyph unicode="N" horiz-adv-x="1361" d="M557 1217l381 -775l137 775h295l-213 -1217h-280l-404 764l-133 -764h-295l213 1217h299z" />
<glyph unicode="O" horiz-adv-x="1382" d="M700 -20q-275 0 -441.5 161.5t-166.5 427.5q0 135 46 256.5t128.5 212.5t205.5 145t267 54q275 0 442 -162t167 -428q0 -181 -78.5 -332t-228 -243t-341.5 -92zM700 252q148 0 241 109t93 284q0 142 -80 231t-215 89q-148 0 -240.5 -109.5t-92.5 -284.5 q0 -142 79.5 -230.5t214.5 -88.5z" />
<glyph unicode="P" horiz-adv-x="1069" d="M412 356l-62 -356h-305l211 1206q205 31 348 31q230 0 356.5 -106.5t126.5 -313.5q0 -99 -30.5 -178t-83.5 -132t-126 -88.5t-155 -51t-174 -15.5q-56 0 -106 4zM518 958l-59 -342q24 -4 86 -4q107 0 171 49t64 148q0 77 -49 116.5t-135 39.5q-34 0 -78 -7z" />
<glyph unicode="Q" horiz-adv-x="1382" d="M879 -295l-230 277q-254 15 -405.5 174.5t-151.5 412.5q0 135 46 256.5t128.5 212.5t205.5 145t267 54q275 0 442 -162t167 -428q0 -207 -104.5 -374.5t-285.5 -243.5l265 -324h-344zM700 252q148 0 241 109t93 284q0 142 -80 231t-215 89q-148 0 -240.5 -109.5 t-92.5 -284.5q0 -142 79.5 -230.5t214.5 -88.5z" />
<glyph unicode="R" horiz-adv-x="1128" d="M416 389l-68 -389h-303l213 1210q165 27 354 27q234 0 358 -101t124 -300q0 -146 -79.5 -248.5t-211.5 -145.5l266 -442h-344l-217 389h-92zM518 969l-57 -330h76q50 0 92 10t77.5 31t55.5 59t20 90q0 76 -45.5 110t-134.5 34q-52 0 -84 -4z" />
<glyph unicode="S" horiz-adv-x="970" d="M952 1128l-51 -292q-136 139 -319 139q-68 0 -105 -27.5t-37 -77.5q0 -43 39 -70.5t117 -54.5q158 -57 229.5 -139t71.5 -217q0 -83 -24.5 -151t-68 -115.5t-104 -80t-130 -47.5t-148.5 -15q-124 0 -229.5 35.5t-163.5 88.5l51 291q68 -65 157.5 -109t184.5 -44 q74 0 119 26.5t45 83.5q0 44 -35.5 71t-104.5 50q-81 28 -135.5 57.5t-97 71.5t-62.5 99t-20 133q0 182 123.5 292.5t335.5 110.5q207 0 362 -109z" />
<glyph unicode="T" horiz-adv-x="1093" d="M782 948l-166 -948h-303l166 948h-366l47 269h1034l-47 -269h-365z" />
<glyph unicode="U" horiz-adv-x="1239" d="M104 473l132 744h305l-125 -713q-8 -47 -8 -92q0 -179 196 -179q114 0 178 9l170 975h305l-208 -1184q-79 -23 -212.5 -38t-234.5 -15q-115 0 -206.5 22t-160 67.5t-105 119.5t-36.5 173q0 46 10 111z" />
<glyph unicode="V" horiz-adv-x="1275" d="M733 0h-371l-235 1217h313l164 -908l473 908h326z" />
<glyph unicode="W" horiz-adv-x="1792" d="M879 1217h297l65 -865l336 865h307l-502 -1217h-378l-46 795l-333 -795h-375l-76 1217h305l41 -865z" />
<glyph unicode="X" horiz-adv-x="1210" d="M168 1217h340l168 -365l280 365h344l-493 -603l313 -614h-332l-192 403l-322 -403h-346l537 643z" />
<glyph unicode="Y" horiz-adv-x="1169" d="M623 733l331 484h342l-569 -775l-78 -442h-303l78 442l-297 775h324z" />
<glyph unicode="Z" horiz-adv-x="1069" d="M162 948l47 269h913l-47 -269l-672 -680h564l-47 -268h-918l45 268l662 680h-547z" />
<glyph unicode="[" horiz-adv-x="776" d="M621 1165l-215 -1220h192l-41 -228h-463l295 1676h463l-39 -228h-192z" />
<glyph unicode="\" horiz-adv-x="940" d="M469 1393l348 -1676h-272l-348 1676h272z" />
<glyph unicode="]" horiz-adv-x="776" d="M197 -55l215 1220h-193l41 228h463l-295 -1676h-463l39 228h193z" />
<glyph unicode="^" horiz-adv-x="933" d="M715 1217l207 -525h-260l-103 275l-201 -275h-288l391 525h254z" />
<glyph unicode="_" horiz-adv-x="946" d="M-20 -317l43 237h741l-43 -237h-741z" />
<glyph unicode="`" horiz-adv-x="1024" d="M696 1051h-247l-121 311h247z" />
<glyph unicode="a" horiz-adv-x="958" d="M184 633l43 246q129 63 314 63q161 0 251.5 -65.5t90.5 -204.5q0 -39 -11 -107l-94 -540q-180 -45 -340 -45q-188 0 -295.5 68.5t-107.5 205.5q0 153 118.5 226t331.5 73h99l2 8q6 30 6 47q0 47 -30.5 67.5t-100.5 20.5q-68 0 -145 -16.5t-132 -46.5zM553 375h-70 q-161 0 -161 -103q0 -43 31 -63.5t85 -20.5q39 0 82 9z" />
<glyph unicode="b" horiz-adv-x="1116" d="M291 1393h291l-82 -473q68 22 135 22q191 0 307.5 -117t116.5 -313q0 -247 -153 -389.5t-421 -142.5q-126 0 -246 24t-180 64zM455 662l-74 -418q47 -19 121 -19q120 0 193 72.5t73 198.5q0 91 -49.5 143.5t-132.5 52.5q-78 0 -131 -30z" />
<glyph unicode="c" horiz-adv-x="884" d="M803 291l-47 -266q-122 -45 -250 -45q-124 0 -224.5 50t-162.5 153t-62 243q0 118 42.5 216.5t114.5 163.5t166.5 100.5t199.5 35.5q184 0 303 -86l-49 -270q-102 102 -252 102q-99 0 -164.5 -65t-65.5 -183q0 -95 59.5 -151t161.5 -56q106 0 230 58z" />
<glyph unicode="d" horiz-adv-x="1105" d="M1149 1393l-238 -1354q-190 -59 -358 -59q-233 0 -364.5 118.5t-131.5 327.5q0 157 73.5 275.5t196 179.5t273.5 61q100 0 174 -24l84 475h291zM655 236l74 428q-49 24 -129 24q-110 0 -179 -65.5t-69 -186.5q0 -92 55 -150.5t146 -58.5q47 0 102 9z" />
<glyph unicode="e" horiz-adv-x="999" d="M877 297l-43 -256q-130 -61 -316 -61q-209 0 -335 113t-126 325q0 108 35 203t99 166.5t161 113t215 41.5q193 0 291 -100.5t98 -266.5q0 -99 -41 -202h-571v-6q14 -72 74.5 -108t144.5 -36q160 0 314 74zM354 541h326q4 28 4 43q0 59 -34.5 93t-94.5 34 q-77 0 -128.5 -45.5t-72.5 -124.5z" />
<glyph unicode="f" horiz-adv-x="679" d="M477 680l-119 -680h-290l118 680h-145l43 242h145l21 112q35 197 134 288t265 91q123 0 213 -51l-49 -258q-67 45 -143 45q-58 0 -90.5 -32.5t-44.5 -106.5l-15 -88h215l-43 -242h-215z" />
<glyph unicode="g" horiz-adv-x="1093" d="M53 -293l45 256q147 -108 308 -108q92 0 142.5 39t65.5 118l4 21q-48 -21 -131 -21q-191 0 -305 106t-114 300q0 242 149.5 383t407.5 141q250 0 426 -108l-144 -811q-20 -116 -63 -197t-108 -127.5t-144.5 -67t-183.5 -20.5q-99 0 -197 25.5t-158 70.5zM659 264l72 404 q-52 22 -125 22q-110 0 -175.5 -64.5t-65.5 -183.5q0 -90 51 -140t149 -50q41 0 94 12z" />
<glyph unicode="h" horiz-adv-x="1095" d="M907 0h-291l95 539q4 23 4 47q0 96 -111 96q-74 0 -151 -23l-115 -659h-291l244 1393h291l-84 -482q82 31 196 31q145 0 231.5 -67t86.5 -216q0 -43 -11 -118z" />
<glyph unicode="i" horiz-adv-x="538" d="M500 922l-162 -922h-291l162 922h291zM397 1032q-69 0 -118.5 48.5t-49.5 117.5q0 70 49.5 119t118.5 49q67 0 116.5 -49t49.5 -119q0 -68 -49.5 -117t-116.5 -49z" />
<glyph unicode="j" horiz-adv-x="538" d="M397 1032q-69 0 -118.5 48.5t-49.5 117.5q0 70 49.5 119t118.5 49q67 0 116.5 -49t49.5 -119q0 -68 -49.5 -117t-116.5 -49zM-274 -342l41 233q75 -38 147 -38q55 0 85.5 24.5t41.5 91.5l168 953h291l-176 -998q-55 -313 -377 -313q-136 0 -221 47z" />
<glyph unicode="k" horiz-adv-x="1071" d="M688 0l-252 500l371 422h348l-414 -433l260 -489h-313zM582 1393l-244 -1393h-291l244 1393h291z" />
<glyph unicode="l" horiz-adv-x="538" d="M582 1393l-244 -1393h-291l244 1393h291z" />
<glyph unicode="m" horiz-adv-x="1585" d="M866 0h-291l97 541q4 23 4 47q0 96 -98 96q-49 0 -123 -22l-117 -662h-291l150 856q232 86 444 86q171 0 252 -72q144 72 289 72q321 0 321 -283q0 -50 -10 -118l-94 -541h-291l96 541q4 23 4 47q0 96 -98 96q-52 0 -143 -27q4 -20 4 -34q0 -26 -8 -80z" />
<glyph unicode="n" horiz-adv-x="1095" d="M907 0h-291l95 539q4 23 4 47q0 45 -30 70.5t-87 25.5q-68 0 -145 -23l-115 -659h-291l150 856q99 35 223 60.5t225 25.5q180 0 273.5 -65.5t93.5 -217.5q0 -43 -11 -118z" />
<glyph unicode="o" horiz-adv-x="1091" d="M514 -20q-209 0 -333 123.5t-124 318.5q0 146 61.5 263.5t181 187t278.5 69.5q209 0 332.5 -123.5t123.5 -318.5q0 -146 -61 -263.5t-180.5 -187t-278.5 -69.5zM524 221q97 0 159 77.5t62 193.5q0 92 -48 149t-130 57q-97 0 -159 -77.5t-62 -192.5q0 -92 48 -149.5 t130 -57.5z" />
<glyph unicode="p" horiz-adv-x="1114" d="M-18 -369l215 1227q86 37 191.5 60.5t201.5 23.5q220 0 343.5 -115.5t123.5 -314.5q0 -245 -149 -388.5t-400 -143.5q-91 0 -168 30l-68 -379h-290zM453 657l-72 -407q62 -25 119 -25q120 0 193 72.5t73 198.5q0 90 -50 138t-134 48q-68 0 -129 -25z" />
<glyph unicode="q" horiz-adv-x="1105" d="M840 -369h-291l61 361q-38 -12 -92 -12q-211 0 -336 115.5t-125 322.5q0 245 156 384.5t416 139.5q234 0 422 -108zM655 240l74 424q-49 24 -129 24q-113 0 -180.5 -65t-67.5 -187q0 -92 55 -150.5t146 -58.5q45 0 102 13z" />
<glyph unicode="r" horiz-adv-x="747" d="M788 909l-47 -270q-55 25 -153 25q-78 0 -135 -13l-115 -651h-291l150 854q74 37 188 60.5t205 23.5q96 0 198 -29z" />
<glyph unicode="s" horiz-adv-x="851" d="M27 92l45 254q158 -133 305 -133q98 0 98 63q0 26 -21 40.5t-79 29.5q-137 36 -205 99t-68 180q0 104 52 177t137 106.5t194 33.5q192 0 310 -94l-47 -254q-115 115 -263 115q-94 0 -94 -56q0 -25 19.5 -38.5t66.5 -26.5q154 -44 221.5 -111t67.5 -176 q0 -156 -106.5 -238.5t-280.5 -82.5q-109 0 -200.5 29t-151.5 83z" />
<glyph unicode="t" horiz-adv-x="745" d="M35 680l43 242h137l39 227h289l-39 -227h241l-43 -242h-241l-51 -293q-9 -52 -9 -68q0 -83 103 -83q91 0 176 51l-45 -254q-109 -53 -238 -53q-59 0 -108.5 13.5t-92.5 42.5t-67.5 83.5t-24.5 128.5q0 40 9 96l59 336h-137z" />
<glyph unicode="u" horiz-adv-x="1062" d="M186 922h291l-96 -549q-6 -30 -6 -58q0 -49 29 -73.5t96 -24.5q52 0 110 12l123 693h291l-158 -889q-81 -22 -189.5 -37.5t-191.5 -15.5q-202 0 -304.5 67t-102.5 223q0 42 10 107z" />
<glyph unicode="v" horiz-adv-x="1046" d="M82 922h285l104 -637l330 637h307l-516 -922h-342z" />
<glyph unicode="w" horiz-adv-x="1470" d="M932 922l37 -598l268 598h295l-436 -922h-318l-41 537l-252 -537h-315l-88 922h287l47 -598l272 598h244z" />
<glyph unicode="x" horiz-adv-x="1030" d="M1087 922l-409 -459l268 -463h-309l-150 268l-231 -268h-332l434 481l-252 441h312l133 -254l205 254h331z" />
<glyph unicode="y" horiz-adv-x="1056" d="M385 922l113 -588l313 588h307l-741 -1291h-295l207 377l-203 914h299z" />
<glyph unicode="z" horiz-adv-x="890" d="M807 240l-41 -240h-782l41 233l473 449h-385l43 240h737l-43 -242l-477 -440h434z" />
<glyph unicode="{" horiz-adv-x="821" d="M688 1081l-39 -217q-26 -143 -102.5 -221t-218.5 -88q98 -3 158.5 -66t60.5 -170q0 -47 -24.5 -165t-24.5 -158q0 -51 59 -51h74l-41 -228h-111q-125 0 -192.5 58t-67.5 172q0 48 27.5 182t27.5 188q0 119 -127 119h-55l43 238h55q150 0 181 168l43 241q55 310 325 310 h146l-39 -228h-64q-43 0 -64.5 -20t-29.5 -64z" />
<glyph unicode="|" horiz-adv-x="632" d="M51 -283l295 1676h272l-294 -1676h-273z" />
<glyph unicode="}" horiz-adv-x="821" d="M162 29l39 217q26 143 102.5 221t218.5 88q-98 3 -158.5 66t-60.5 170q0 47 24.5 165t24.5 158q0 51 -59 51h-74l41 228h111q125 0 192.5 -58t67.5 -172q0 -48 -28 -182t-28 -188q0 -119 127 -119h56l-43 -238h-56q-149 0 -180 -168l-43 -241q-55 -310 -325 -310h-146 l39 228h64q43 0 64.5 20t29.5 64z" />
<glyph unicode="~" horiz-adv-x="854" d="M618 717h207q-28 -156 -99.5 -243t-174.5 -87q-40 0 -72.5 15.5t-50 33.5t-40 33.5t-44.5 15.5q-64 0 -78 -88h-207q28 156 99.5 243t175.5 87q40 0 73 -15.5t51 -33.5t40.5 -33.5t44.5 -15.5q31 0 49.5 20.5t25.5 67.5z" />
<glyph unicode="&#xa1;" horiz-adv-x="524" d="M8 -281l139 797h291l-139 -797h-291zM514 770q0 -77 -54 -131.5t-130 -54.5q-77 0 -132 55t-55 131t55 130t132 54q76 0 130 -54t54 -130z" />
<glyph unicode="&#xa2;" horiz-adv-x="884" d="M543 -20l-31 -175h-225l37 207q-122 46 -194.5 153t-72.5 261q0 208 121 343.5t307 164.5l35 196h225l-34 -200q100 -21 172 -74l-49 -270q-102 102 -252 102q-99 0 -164.5 -65t-65.5 -183q0 -95 59.5 -151t161.5 -56q106 0 230 58l-47 -266q-109 -40 -213 -45z" />
<glyph unicode="&#xa3;" horiz-adv-x="952" d="M209 487h-139l41 230h141l18 96q37 212 158.5 318t298.5 106q86 0 156.5 -24t109.5 -66l-53 -297q-79 106 -201 106q-81 0 -124.5 -41.5t-57.5 -123.5l-14 -74h268l-41 -230h-270q-20 -75 -62.5 -134t-89.5 -91h524l-47 -264h-841l47 264q74 32 114 83.5t64 141.5z" />
<glyph unicode="&#xa4;" horiz-adv-x="1181" d="M944 135l-127 144q-99 -58 -219 -58q-148 0 -248 84l-162 -143l-92 104l166 152q-39 80 -39 174q0 148 86 264l-129 145l109 97l125 -142q109 72 241 72q126 0 217 -63l170 151l95 -104l-166 -148q59 -89 59 -207q0 -166 -104 -286l129 -140zM614 463q68 0 117 50t49 124 q0 66 -40 107.5t-103 41.5q-68 0 -116 -50t-48 -124q0 -66 39.5 -107.5t101.5 -41.5z" />
<glyph unicode="&#xa5;" horiz-adv-x="1136" d="M365 588l-218 629h318l143 -482l299 482h336l-440 -629h178l-25 -144h-245l-19 -104h246l-27 -143h-243l-35 -197h-303l35 197h-248l26 143h246l19 104h-246l24 144h179z" />
<glyph unicode="&#xa6;" horiz-adv-x="632" d="M223 694l123 699h272l-122 -699h-273zM51 -283l123 699h272l-122 -699h-273z" />
<glyph unicode="&#xa7;" horiz-adv-x="1007" d="M928 1137l-58 -248q-109 115 -256 115q-44 0 -71 -14t-27 -42t25.5 -48t109.5 -52q144 -57 213.5 -130.5t69.5 -191.5q0 -112 -54.5 -188.5t-150.5 -114.5q49 -61 49 -145q0 -102 -54.5 -175.5t-141 -108t-191.5 -34.5q-188 0 -311 101l57 248q109 -115 256 -115 q99 0 99 55q0 28 -26 48.5t-110 52.5q-144 57 -213 130t-69 191q0 111 55 188t150 113q-50 65 -50 148q0 102 55 175t141 107.5t191 34.5q190 0 312 -100zM471 387l66 -31q65 13 99 45.5t34 77.5q0 46 -29 73.5t-104 57.5l-68 29q-63 -13 -97 -45t-34 -76t27.5 -69 t105.5 -62z" />
<glyph unicode="&#xa8;" horiz-adv-x="1024" d="M317 1032q-65 0 -111 47t-46 113t46 112t111 46t112.5 -46.5t47.5 -111.5q0 -66 -47.5 -113t-112.5 -47zM702 1032q-65 0 -111 47t-46 113t46 112t111 46q66 0 113 -46t47 -112t-47 -113t-113 -47z" />
<glyph unicode="&#xa9;" horiz-adv-x="1429" d="M696 -20q-169 0 -303 76t-208 209t-74 298q0 186 87 340.5t239.5 244t336.5 89.5q169 0 303.5 -76.5t208.5 -209.5t74 -298q0 -139 -51.5 -264t-139.5 -214.5t-211.5 -142t-261.5 -52.5zM696 55q163 0 295.5 76.5t208.5 213.5t76 308q0 224 -140.5 366t-361.5 142 q-163 0 -295.5 -76.5t-208 -213.5t-75.5 -308q0 -224 140 -366t361 -142zM1042 944l-43 -231q-86 86 -202 86q-86 0 -140.5 -51.5t-54.5 -151.5q0 -82 47.5 -130t122.5 -48q57 0 102.5 13t106.5 50l-43 -239q-79 -43 -188 -43q-184 0 -289 106.5t-105 278.5q0 198 125.5 316 t313.5 118q151 0 247 -74z" />
<glyph unicode="&#xaa;" horiz-adv-x="727" d="M182 989l35 199q94 49 240 49q123 0 199.5 -55.5t76.5 -161.5q0 -42 -6 -82l-70 -401q-148 -35 -274 -35q-143 0 -228 53.5t-85 159.5q0 223 344 223h73l2 10q3 12 3 21q0 36 -23 51.5t-76 15.5q-127 0 -211 -47zM465 797h-47q-107 0 -107 -68q0 -55 76 -55q17 0 57 4z " />
<glyph unicode="&#xab;" horiz-adv-x="1038" d="M643 764l-307 -324l213 -323h-275l-215 323l316 324h268zM1032 764l-307 -324l213 -323h-274l-215 323l315 324h268z" />
<glyph unicode="&#xad;" horiz-adv-x="727" d="M53 406l47 258h588l-47 -258h-588z" />
<glyph unicode="&#xae;" horiz-adv-x="931" d="M549 1237q160 0 262 -103t102 -257q0 -176 -118.5 -296t-294.5 -120q-160 0 -262.5 103t-102.5 257q0 175 119 295.5t295 120.5zM549 1165q-141 0 -236.5 -99t-95.5 -245q0 -124 79 -206.5t204 -82.5q141 0 236 99.5t95 245.5q0 124 -78.5 206t-203.5 82zM475 770 l-20 -111h-117l68 379q74 17 124 17q82 0 128.5 -35.5t46.5 -104.5q0 -49 -26.5 -81.5t-66.5 -47.5l78 -127h-129l-59 111h-27zM506 946l-14 -86h26q68 0 68 49q0 39 -47 39q-19 0 -33 -2z" />
<glyph unicode="&#xaf;" horiz-adv-x="1024" d="M248 1057l37 209h489l-37 -209h-489z" />
<glyph unicode="&#xb0;" horiz-adv-x="626" d="M373 1237q109 0 177 -68t68 -172q0 -118 -78.5 -197t-199.5 -79q-109 0 -177.5 68t-68.5 172q0 118 79 197t200 79zM367 1094q-55 0 -88 -35.5t-33 -91.5q0 -43 28 -73t72 -30q55 0 88 35.5t33 91.5q0 43 -28 73t-72 30z" />
<glyph unicode="&#xb1;" horiz-adv-x="940" d="M401 651h-260l37 211h262l35 201h211l-35 -201h262l-36 -211h-265l-34 -200h-211zM53 160l37 211h735l-37 -211h-735z" />
<glyph unicode="&#xb2;" horiz-adv-x="618" d="M348 664h264l-30 -193h-535l33 178q59 40 97.5 67.5t85.5 64.5t74.5 65t46.5 59t19 56q0 61 -65 61q-44 0 -102.5 -24t-96.5 -52l37 205q106 78 254 78q106 0 163.5 -54.5t57.5 -144.5q0 -61 -25.5 -116t-72.5 -100.5t-94 -79.5t-111 -70z" />
<glyph unicode="&#xb3;" horiz-adv-x="579" d="M154 983l32 195q94 51 220 51q100 0 155 -50.5t55 -134.5q0 -79 -43.5 -127.5t-109.5 -72.5q108 -51 108 -160q0 -107 -81.5 -166t-210.5 -59t-228 61l33 197q96 -68 178 -68q86 0 86 53q0 29 -29 43.5t-98 14.5l27 155q133 0 133 70q0 22 -15 35.5t-42 13.5 q-73 0 -170 -51z" />
<glyph unicode="&#xb4;" horiz-adv-x="1024" d="M535 1051h-275l229 311h275z" />
<glyph unicode="&#xb5;" horiz-adv-x="1062" d="M326 14l-68 -383h-297l234 1291h290l-96 -549q-6 -30 -6 -58q0 -49 29 -73.5t96 -24.5q52 0 110 12l123 693h291l-158 -889q-80 -22 -186.5 -37.5t-179.5 -15.5q-124 0 -182 34z" />
<glyph unicode="&#xb6;" horiz-adv-x="1062" d="M625 -217l252 1434h217l-252 -1434h-217zM338 -217l119 680q-152 11 -253.5 102t-101.5 242q0 102 40 182t108.5 129t155 74t184.5 25h217l-252 -1434h-217z" />
<glyph unicode="&#xb7;" horiz-adv-x="575" d="M102 535q0 77 54.5 131.5t130.5 54.5q77 0 131.5 -54.5t54.5 -131.5q0 -76 -54.5 -130.5t-131.5 -54.5t-131 54t-54 131z" />
<glyph unicode="&#xb8;" horiz-adv-x="1024" d="M504 33h233q-17 -99 -74.5 -193.5t-127.5 -138.5h-248q88 69 145 156t72 176z" />
<glyph unicode="&#xb9;" horiz-adv-x="464" d="M109 971l36 203l363 55l-133 -758h-228l91 514z" />
<glyph unicode="&#xba;" horiz-adv-x="827" d="M463 502q-164 0 -262.5 96.5t-98.5 251.5q0 163 106 275t279 112q164 0 262.5 -96.5t98.5 -251.5q0 -163 -106 -275t-279 -112zM463 715q62 0 101.5 49.5t39.5 124.5q0 60 -31.5 97.5t-85.5 37.5q-62 0 -101.5 -49.5t-39.5 -124.5q0 -60 31.5 -97.5t85.5 -37.5z" />
<glyph unicode="&#xbb;" horiz-adv-x="1038" d="M-6 117l307 323l-213 324h274l216 -324l-316 -323h-268zM383 117l307 323l-213 324h275l215 -324l-316 -323h-268z" />
<glyph unicode="&#xbc;" horiz-adv-x="1599" d="M164 971l37 203l362 55l-133 -758h-227l90 514zM1460 745l-80 -434h86l-26 -164h-88l-25 -147h-209l25 147h-346l32 175l414 423h217zM1210 516l-206 -205h167zM193 0l944 1217h200l-944 -1217h-200z" />
<glyph unicode="&#xbd;" horiz-adv-x="1603" d="M164 971l37 203l362 55l-133 -758h-227l90 514zM1188 193h264l-31 -193h-534l33 178q76 51 122 84.5t98.5 77.5t77.5 80.5t25 68.5q0 62 -65 62q-44 0 -102.5 -24t-96.5 -52l37 205q106 78 254 78q106 0 163.5 -54.5t57.5 -144.5q0 -61 -25.5 -116t-72.5 -100.5 t-94 -79.5t-111 -70zM193 0l944 1217h200l-944 -1217h-200z" />
<glyph unicode="&#xbe;" horiz-adv-x="1689" d="M205 983l33 195q94 51 219 51q101 0 156 -50.5t55 -134.5q0 -145 -154 -200q109 -51 109 -160q0 -107 -82 -166t-211 -59t-228 61l33 197q96 -68 178 -68q86 0 86 53q0 29 -29 43.5t-98 14.5l27 155q133 0 133 70q0 22 -15 35.5t-42 13.5q-73 0 -170 -51zM1550 745 l-80 -434h86l-26 -164h-88l-25 -147h-209l25 147h-346l33 175l413 423h217zM1300 516l-206 -205h168zM283 0l944 1217h200l-944 -1217h-200z" />
<glyph unicode="&#xbf;" horiz-adv-x="782" d="M709 94l-52 -289q-62 -46 -150 -75t-173 -29q-171 0 -266 84.5t-95 232.5q0 72 19 130t50.5 98.5t80.5 72.5t101 52t120 37l18 108h269l-45 -260q-63 -10 -108 -20t-88 -25.5t-69 -35t-41.5 -48t-15.5 -64.5q0 -47 28.5 -72.5t84.5 -25.5q160 0 332 129zM709 770 q0 -77 -54.5 -131.5t-130.5 -54.5t-131 55t-55 131t54.5 130t131.5 54t131 -54t54 -130z" />
<glyph unicode="&#xc0;" d="M907 0l-49 236h-498l-127 -236h-321l676 1217h362l271 -1217h-314zM723 911l-231 -432h317zM909 1313h-247l-121 309h247z" />
<glyph unicode="&#xc1;" d="M907 0l-49 236h-498l-127 -236h-321l676 1217h362l271 -1217h-314zM723 911l-231 -432h317zM928 1313h-275l230 309h274z" />
<glyph unicode="&#xc2;" d="M907 0l-49 236h-498l-127 -236h-321l676 1217h362l271 -1217h-314zM723 911l-231 -432h317zM938 1624l182 -315h-217l-86 141l-135 -141h-238l297 315h197z" />
<glyph unicode="&#xc3;" d="M907 0l-49 236h-498l-127 -236h-321l676 1217h362l271 -1217h-314zM723 911l-231 -432h317zM971 1579h178q-22 -125 -85 -199.5t-151 -74.5q-44 0 -76.5 19.5t-57 38.5t-46.5 19q-29 0 -45 -16t-22 -53h-179q22 125 85 199.5t151 74.5q44 0 77 -19.5t57.5 -39t47.5 -19.5 q28 0 43.5 16t22.5 54z" />
<glyph unicode="&#xc4;" d="M907 0l-49 236h-498l-127 -236h-321l676 1217h362l271 -1217h-314zM723 911l-231 -432h317zM602 1288q-65 0 -111.5 47t-46.5 113t46.5 112t111.5 46t112.5 -46.5t47.5 -111.5q0 -66 -47.5 -113t-112.5 -47zM987 1288q-65 0 -111.5 47t-46.5 113t46.5 112t111.5 46 q66 0 113 -46t47 -112t-47 -113t-113 -47z" />
<glyph unicode="&#xc5;" d="M907 0l-49 236h-498l-127 -236h-321l676 1217h362l271 -1217h-314zM723 911l-231 -432h317zM791 1274q-92 0 -146.5 53.5t-54.5 136.5q0 92 62.5 154.5t162.5 62.5q92 0 146.5 -53.5t54.5 -136.5q0 -92 -62.5 -154.5t-162.5 -62.5zM795 1397q38 0 63 25t25 65 q0 32 -20.5 52t-51.5 20q-37 0 -62.5 -25.5t-25.5 -65.5q0 -32 20.5 -51.5t51.5 -19.5z" />
<glyph unicode="&#xc6;" horiz-adv-x="1798" d="M1636 0h-798l41 236h-447l-180 -236h-340l926 1217h997l-47 -269h-483l-37 -209h438l-45 -262h-438l-37 -209h497zM1014 989l-393 -510h301z" />
<glyph unicode="&#xc7;" horiz-adv-x="1112" d="M565 -299h-248q166 134 209 297q-205 45 -319.5 196.5t-114.5 366.5q0 156 53 284t145 213.5t217.5 132t270.5 46.5q215 0 365 -115l-51 -288q-128 131 -314 131q-168 0 -270 -110.5t-102 -289.5q0 -141 83 -227t218 -86q88 0 163.5 21.5t167.5 78.5l-53 -309 q-99 -51 -229 -61q-25 -87 -77.5 -165t-113.5 -116z" />
<glyph unicode="&#xc8;" horiz-adv-x="1005" d="M385 268h506l-47 -268h-799l213 1217h784l-47 -269h-491l-37 -209h446l-45 -262h-446zM782 1313h-247l-121 309h248z" />
<glyph unicode="&#xc9;" horiz-adv-x="1005" d="M385 268h506l-47 -268h-799l213 1217h784l-47 -269h-491l-37 -209h446l-45 -262h-446zM801 1313h-275l230 309h274z" />
<glyph unicode="&#xca;" horiz-adv-x="1005" d="M385 268h506l-47 -268h-799l213 1217h784l-47 -269h-491l-37 -209h446l-45 -262h-446zM811 1624l182 -315h-217l-86 141l-135 -141h-238l297 315h197z" />
<glyph unicode="&#xcb;" horiz-adv-x="1005" d="M385 268h506l-47 -268h-799l213 1217h784l-47 -269h-491l-37 -209h446l-45 -262h-446zM496 1288q-65 0 -111.5 47t-46.5 113t46.5 112t111.5 46t112 -46t47 -112t-47 -113t-112 -47zM881 1288q-65 0 -111.5 47t-46.5 113t46.5 112t111.5 46q66 0 112.5 -46t46.5 -112 t-46.5 -113t-112.5 -47z" />
<glyph unicode="&#xcc;" horiz-adv-x="555" d="M563 1217l-213 -1217h-305l213 1217h305zM543 1313h-248l-121 309h248z" />
<glyph unicode="&#xcd;" horiz-adv-x="555" d="M563 1217l-213 -1217h-305l213 1217h305zM561 1313h-274l229 309h275z" />
<glyph unicode="&#xce;" horiz-adv-x="555" d="M563 1217l-213 -1217h-305l213 1217h305zM571 1624l183 -315h-217l-86 141l-136 -141h-237l297 315h196z" />
<glyph unicode="&#xcf;" horiz-adv-x="555" d="M563 1217l-213 -1217h-305l213 1217h305zM256 1288q-65 0 -111.5 47t-46.5 113t46.5 112t111.5 46t112.5 -46.5t47.5 -111.5q0 -66 -47.5 -113t-112.5 -47zM641 1288q-65 0 -111.5 47t-46.5 113t46.5 112t111.5 46q66 0 113 -46t47 -112t-47 -113t-113 -47z" />
<glyph unicode="&#xd0;" horiz-adv-x="1296" d="M143 485h-112l43 246h112l82 471q150 35 371 35q303 0 463 -154.5t160 -423.5q0 -137 -39 -249.5t-108 -191t-166.5 -132.5t-212.5 -79t-247 -25q-113 0 -234 12.5t-194 28.5zM446 485l-38 -225q55 -10 129 -10q86 0 157.5 21.5t129.5 68t91 128t33 191.5 q0 136 -79.5 216.5t-229.5 80.5q-53 0 -111 -6l-39 -219h218l-43 -246h-218z" />
<glyph unicode="&#xd1;" horiz-adv-x="1361" d="M557 1217l381 -775l137 775h295l-213 -1217h-280l-404 764l-133 -764h-295l213 1217h299zM1016 1579h178q-22 -125 -85 -199.5t-151 -74.5q-44 0 -76.5 19.5t-57 38.5t-46.5 19q-29 0 -45 -16t-22 -53h-179q22 125 85 199.5t151 74.5q34 0 63 -12t45 -27t35.5 -27 t38.5 -12q28 0 43.5 16t22.5 54z" />
<glyph unicode="&#xd2;" horiz-adv-x="1382" d="M700 -20q-275 0 -441.5 161.5t-166.5 427.5q0 135 46 256.5t128.5 212.5t205.5 145t267 54q275 0 442 -162t167 -428q0 -181 -78.5 -332t-228 -243t-341.5 -92zM700 252q148 0 241 109t93 284q0 142 -80 231t-215 89q-148 0 -240.5 -109.5t-92.5 -284.5 q0 -142 79.5 -230.5t214.5 -88.5zM922 1313h-248l-121 309h248z" />
<glyph unicode="&#xd3;" horiz-adv-x="1382" d="M700 -20q-275 0 -441.5 161.5t-166.5 427.5q0 135 46 256.5t128.5 212.5t205.5 145t267 54q275 0 442 -162t167 -428q0 -181 -78.5 -332t-228 -243t-341.5 -92zM700 252q148 0 241 109t93 284q0 142 -80 231t-215 89q-148 0 -240.5 -109.5t-92.5 -284.5 q0 -142 79.5 -230.5t214.5 -88.5zM961 1313h-275l229 309h275z" />
<glyph unicode="&#xd4;" horiz-adv-x="1382" d="M700 -20q-275 0 -441.5 161.5t-166.5 427.5q0 135 46 256.5t128.5 212.5t205.5 145t267 54q275 0 442 -162t167 -428q0 -181 -78.5 -332t-228 -243t-341.5 -92zM700 252q148 0 241 109t93 284q0 142 -80 231t-215 89q-148 0 -240.5 -109.5t-92.5 -284.5 q0 -142 79.5 -230.5t214.5 -88.5zM954 1624l183 -315h-217l-86 141l-136 -141h-237l297 315h196z" />
<glyph unicode="&#xd5;" horiz-adv-x="1382" d="M700 -20q-275 0 -441.5 161.5t-166.5 427.5q0 135 46 256.5t128.5 212.5t205.5 145t267 54q275 0 442 -162t167 -428q0 -181 -78.5 -332t-228 -243t-341.5 -92zM700 252q148 0 241 109t93 284q0 142 -80 231t-215 89q-148 0 -240.5 -109.5t-92.5 -284.5 q0 -142 79.5 -230.5t214.5 -88.5zM983 1579h178q-22 -125 -84.5 -199.5t-150.5 -74.5q-44 0 -77 19.5t-57 38.5t-47 19q-29 0 -45 -16t-22 -53h-178q22 125 84.5 199.5t150.5 74.5q34 0 63 -12t45.5 -27t36 -27t38.5 -12q28 0 43 16t22 54z" />
<glyph unicode="&#xd6;" horiz-adv-x="1382" d="M700 -20q-275 0 -441.5 161.5t-166.5 427.5q0 135 46 256.5t128.5 212.5t205.5 145t267 54q275 0 442 -162t167 -428q0 -181 -78.5 -332t-228 -243t-341.5 -92zM700 252q148 0 241 109t93 284q0 142 -80 231t-215 89q-148 0 -240.5 -109.5t-92.5 -284.5 q0 -142 79.5 -230.5t214.5 -88.5zM631 1288q-65 0 -111.5 47t-46.5 113t46.5 112t111.5 46t112.5 -46.5t47.5 -111.5q0 -66 -47.5 -113t-112.5 -47zM1016 1288q-65 0 -111.5 47t-46.5 113t46.5 112t111.5 46q66 0 113 -46t47 -112t-47 -113t-113 -47z" />
<glyph unicode="&#xd7;" horiz-adv-x="815" d="M299 604l-168 203l162 137l166 -203l239 203l117 -143l-237 -203l167 -203l-161 -137l-166 203l-240 -203l-117 143z" />
<glyph unicode="&#xd8;" horiz-adv-x="1402" d="M1384 1217l-161 -177q135 -157 135 -393q0 -135 -46 -256t-128.5 -212.5t-205.5 -145t-267 -53.5q-222 0 -375 104l-78 -84h-223l182 199q-115 149 -115 370q0 135 46.5 256.5t129 212.5t205.5 145t267 54q198 0 346 -90l65 70h223zM430 426l473 512q-68 35 -153 35 q-148 0 -246 -114t-98 -288q0 -81 24 -145zM1016 819l-486 -524q71 -51 181 -51q148 0 245 113.5t97 287.5q0 95 -37 174z" />
<glyph unicode="&#xd9;" horiz-adv-x="1239" d="M104 473l132 744h305l-125 -713q-8 -47 -8 -92q0 -179 196 -179q114 0 178 9l170 975h305l-208 -1184q-79 -23 -212.5 -38t-234.5 -15q-115 0 -206.5 22t-160 67.5t-105 119.5t-36.5 173q0 46 10 111zM877 1313h-248l-121 309h248z" />
<glyph unicode="&#xda;" horiz-adv-x="1239" d="M104 473l132 744h305l-125 -713q-8 -47 -8 -92q0 -179 196 -179q114 0 178 9l170 975h305l-208 -1184q-79 -23 -212.5 -38t-234.5 -15q-115 0 -206.5 22t-160 67.5t-105 119.5t-36.5 173q0 46 10 111zM895 1313h-274l229 309h274z" />
<glyph unicode="&#xdb;" horiz-adv-x="1239" d="M104 473l132 744h305l-125 -713q-8 -47 -8 -92q0 -179 196 -179q114 0 178 9l170 975h305l-208 -1184q-79 -23 -212.5 -38t-234.5 -15q-115 0 -206.5 22t-160 67.5t-105 119.5t-36.5 173q0 46 10 111zM905 1624l182 -315h-217l-86 141l-135 -141h-237l297 315h196z" />
<glyph unicode="&#xdc;" horiz-adv-x="1239" d="M104 473l132 744h305l-125 -713q-8 -47 -8 -92q0 -179 196 -179q114 0 178 9l170 975h305l-208 -1184q-79 -23 -212.5 -38t-234.5 -15q-115 0 -206.5 22t-160 67.5t-105 119.5t-36.5 173q0 46 10 111zM590 1288q-65 0 -111.5 47t-46.5 113t46.5 112t111.5 46t112.5 -46.5 t47.5 -111.5q0 -66 -47.5 -113t-112.5 -47zM975 1288q-65 0 -111.5 47t-46.5 113t46.5 112t111.5 46q66 0 113 -46t47 -112t-47 -113t-113 -47z" />
<glyph unicode="&#xdd;" horiz-adv-x="1169" d="M623 733l331 484h342l-569 -775l-78 -442h-303l78 442l-297 775h324zM862 1313h-274l229 309h275z" />
<glyph unicode="&#xde;" horiz-adv-x="1069" d="M379 164l-29 -164h-305l213 1217h305l-31 -177q46 4 66 4q220 0 338.5 -106.5t118.5 -298.5q0 -103 -31 -185t-83.5 -136t-126 -90.5t-155 -52t-174.5 -15.5q-56 0 -106 4zM485 766l-61 -342q24 -4 86 -4q107 0 171 49t64 147q0 75 -52.5 115.5t-129.5 40.5q-41 0 -78 -6 z" />
<glyph unicode="&#xdf;" horiz-adv-x="1167" d="M47 0l166 948q40 227 165 346t324 119q172 0 272.5 -82t100.5 -213q0 -66 -23 -121.5t-55.5 -91t-65.5 -64.5t-56 -54.5t-23 -47.5q0 -21 18.5 -43.5t46.5 -43t60 -51t60 -65t46.5 -88t18.5 -116.5q0 -151 -107.5 -251.5t-275.5 -100.5q-184 0 -275 69l43 250 q98 -84 207 -84q55 0 90 30.5t35 86.5q0 32 -26.5 64t-64.5 62t-76 62.5t-64.5 78.5t-26.5 97q0 56 23.5 103.5t57.5 80.5t68 63.5t57.5 66t23.5 73.5q0 84 -101 84q-71 0 -119.5 -55.5t-62.5 -140.5l-170 -971h-291z" />
<glyph unicode="&#xe0;" horiz-adv-x="958" d="M184 633l43 246q129 63 314 63q161 0 251.5 -65.5t90.5 -204.5q0 -39 -11 -107l-94 -540q-180 -45 -340 -45q-188 0 -295.5 68.5t-107.5 205.5q0 153 118.5 226t331.5 73h99l2 8q6 30 6 47q0 47 -30.5 67.5t-100.5 20.5q-68 0 -145 -16.5t-132 -46.5zM553 375h-70 q-161 0 -161 -103q0 -43 31 -63.5t85 -20.5q39 0 82 9zM696 1051h-247l-121 311h247z" />
<glyph unicode="&#xe1;" horiz-adv-x="958" d="M184 633l43 246q129 63 314 63q161 0 251.5 -65.5t90.5 -204.5q0 -39 -11 -107l-94 -540q-180 -45 -340 -45q-188 0 -295.5 68.5t-107.5 205.5q0 153 118.5 226t331.5 73h99l2 8q6 30 6 47q0 47 -30.5 67.5t-100.5 20.5q-68 0 -145 -16.5t-132 -46.5zM553 375h-70 q-161 0 -161 -103q0 -43 31 -63.5t85 -20.5q39 0 82 9zM711 1051h-275l230 311h274z" />
<glyph unicode="&#xe2;" horiz-adv-x="958" d="M184 633l43 246q129 63 314 63q161 0 251.5 -65.5t90.5 -204.5q0 -39 -11 -107l-94 -540q-180 -45 -340 -45q-188 0 -295.5 68.5t-107.5 205.5q0 153 118.5 226t331.5 73h99l2 8q6 30 6 47q0 47 -30.5 67.5t-100.5 20.5q-68 0 -145 -16.5t-132 -46.5zM553 375h-70 q-161 0 -161 -103q0 -43 31 -63.5t85 -20.5q39 0 82 9zM737 1362l183 -324h-218l-86 150l-135 -150h-237l297 324h196z" />
<glyph unicode="&#xe3;" horiz-adv-x="958" d="M184 633l43 246q129 63 314 63q161 0 251.5 -65.5t90.5 -204.5q0 -39 -11 -107l-94 -540q-180 -45 -340 -45q-188 0 -295.5 68.5t-107.5 205.5q0 153 118.5 226t331.5 73h99l2 8q6 30 6 47q0 47 -30.5 67.5t-100.5 20.5q-68 0 -145 -16.5t-132 -46.5zM553 375h-70 q-161 0 -161 -103q0 -43 31 -63.5t85 -20.5q39 0 82 9zM752 1305h178q-22 -125 -85 -200t-151 -75q-44 0 -76.5 19.5t-56.5 39t-47 19.5q-57 0 -68 -70h-178q22 125 85 200t151 75q34 0 63 -12t45 -27t35.5 -27t38.5 -12q28 0 43.5 16t22.5 54z" />
<glyph unicode="&#xe4;" horiz-adv-x="958" d="M184 633l43 246q129 63 314 63q161 0 251.5 -65.5t90.5 -204.5q0 -39 -11 -107l-94 -540q-180 -45 -340 -45q-188 0 -295.5 68.5t-107.5 205.5q0 153 118.5 226t331.5 73h99l2 8q6 30 6 47q0 47 -30.5 67.5t-100.5 20.5q-68 0 -145 -16.5t-132 -46.5zM553 375h-70 q-161 0 -161 -103q0 -43 31 -63.5t85 -20.5q39 0 82 9zM410 1032q-65 0 -111.5 47t-46.5 113t46.5 112t111.5 46t112 -46t47 -112t-47 -113t-112 -47zM795 1032q-65 0 -111.5 47t-46.5 113t46.5 112t111.5 46q66 0 112.5 -46t46.5 -112t-46.5 -113t-112.5 -47z" />
<glyph unicode="&#xe5;" horiz-adv-x="958" d="M184 633l43 246q129 63 314 63q161 0 251.5 -65.5t90.5 -204.5q0 -39 -11 -107l-94 -540q-180 -45 -340 -45q-188 0 -295.5 68.5t-107.5 205.5q0 153 118.5 226t331.5 73h99l2 8q6 30 6 47q0 47 -30.5 67.5t-100.5 20.5q-68 0 -145 -16.5t-132 -46.5zM553 375h-70 q-161 0 -161 -103q0 -43 31 -63.5t85 -20.5q39 0 82 9zM610 1004q-92 0 -146 53t-54 137q0 92 62.5 154.5t162.5 62.5q92 0 146.5 -53.5t54.5 -136.5q0 -91 -63 -154t-163 -63zM614 1126q38 0 63 25t25 66q0 32 -20 51.5t-51 19.5q-38 0 -63 -25t-25 -65q0 -32 20 -52 t51 -20z" />
<glyph unicode="&#xe6;" horiz-adv-x="1488" d="M1405 371h-551v-2q22 -69 79.5 -107.5t135.5 -38.5q85 0 150.5 17.5t146.5 56.5l-43 -256q-72 -34 -138.5 -47.5t-160.5 -13.5q-192 0 -305 94q-149 -94 -330 -94q-154 0 -254 68.5t-100 197.5q0 154 117 221.5t333 67.5h107l6 32q-5 66 -37.5 97.5t-101.5 31.5 q-68 0 -145 -16.5t-132 -46.5l43 246q60 29 140.5 46t146.5 17q178 0 252 -104q126 104 309 104q98 0 171 -27.5t116.5 -77.5t64.5 -115.5t21 -146.5q0 -101 -41 -204zM854 535h328q4 16 4 45q0 60 -33 95.5t-92 35.5q-71 0 -128.5 -45t-78.5 -131zM582 371h-99 q-81 0 -121 -22.5t-40 -72.5q0 -43 31.5 -64.5t84.5 -21.5q94 0 168 56q-17 53 -24 123v2z" />
<glyph unicode="&#xe7;" horiz-adv-x="884" d="M803 291l-47 -266q-96 -35 -183 -43q-25 -88 -77 -165.5t-113 -115.5h-248q80 63 135.5 142.5t75.5 160.5q-131 43 -210 152t-79 270q0 118 42.5 216.5t114.5 163.5t166.5 100.5t199.5 35.5q184 0 303 -86l-49 -270q-102 102 -252 102q-99 0 -164.5 -65t-65.5 -183 q0 -95 59.5 -151t161.5 -56q106 0 230 58z" />
<glyph unicode="&#xe8;" horiz-adv-x="999" d="M877 297l-43 -256q-130 -61 -316 -61q-209 0 -335 113t-126 325q0 108 35 203t99 166.5t161 113t215 41.5q193 0 291 -100.5t98 -266.5q0 -99 -41 -202h-571v-6q14 -72 74.5 -108t144.5 -36q160 0 314 74zM354 541h326q4 28 4 43q0 59 -34.5 93t-94.5 34 q-77 0 -128.5 -45.5t-72.5 -124.5zM729 1051h-248l-121 311h248z" />
<glyph unicode="&#xe9;" horiz-adv-x="999" d="M877 297l-43 -256q-130 -61 -316 -61q-209 0 -335 113t-126 325q0 108 35 203t99 166.5t161 113t215 41.5q193 0 291 -100.5t98 -266.5q0 -99 -41 -202h-571v-6q14 -72 74.5 -108t144.5 -36q160 0 314 74zM354 541h326q4 28 4 43q0 59 -34.5 93t-94.5 34 q-77 0 -128.5 -45.5t-72.5 -124.5zM733 1051h-274l229 311h275z" />
<glyph unicode="&#xea;" horiz-adv-x="999" d="M877 297l-43 -256q-130 -61 -316 -61q-209 0 -335 113t-126 325q0 108 35 203t99 166.5t161 113t215 41.5q193 0 291 -100.5t98 -266.5q0 -99 -41 -202h-571v-6q14 -72 74.5 -108t144.5 -36q160 0 314 74zM354 541h326q4 28 4 43q0 59 -34.5 93t-94.5 34 q-77 0 -128.5 -45.5t-72.5 -124.5zM743 1362l183 -324h-217l-86 150l-136 -150h-237l297 324h196z" />
<glyph unicode="&#xeb;" horiz-adv-x="999" d="M877 297l-43 -256q-130 -61 -316 -61q-209 0 -335 113t-126 325q0 108 35 203t99 166.5t161 113t215 41.5q193 0 291 -100.5t98 -266.5q0 -99 -41 -202h-571v-6q14 -72 74.5 -108t144.5 -36q160 0 314 74zM354 541h326q4 28 4 43q0 59 -34.5 93t-94.5 34 q-77 0 -128.5 -45.5t-72.5 -124.5zM440 1032q-65 0 -111 47t-46 113t46 112t111 46t112.5 -46.5t47.5 -111.5q0 -66 -47.5 -113t-112.5 -47zM825 1032q-65 0 -111 47t-46 113t46 112t111 46q66 0 113 -46t47 -112t-47 -113t-113 -47z" />
<glyph unicode="&#xec;" horiz-adv-x="538" d="M500 922l-162 -922h-291l162 922h291zM498 1051h-248l-121 311h248z" />
<glyph unicode="&#xed;" horiz-adv-x="538" d="M500 922l-162 -922h-291l162 922h291zM512 1051h-274l229 311h274z" />
<glyph unicode="&#xee;" horiz-adv-x="538" d="M500 922l-162 -922h-291l162 922h291zM518 1362l182 -324h-217l-86 150l-135 -150h-237l297 324h196z" />
<glyph unicode="&#xef;" horiz-adv-x="538" d="M500 922l-162 -922h-291l162 922h291zM207 1032q-65 0 -111.5 47t-46.5 113t46.5 112t111.5 46t112.5 -46.5t47.5 -111.5q0 -66 -47.5 -113t-112.5 -47zM592 1032q-65 0 -111.5 47t-46.5 113t46.5 112t111.5 46q66 0 113 -46t47 -112t-47 -113t-113 -47z" />
<glyph unicode="&#xf0;" horiz-adv-x="1091" d="M573 1036l-329 -102v178l207 66q-128 135 -234 215h358q77 -65 142 -133l256 79v-178l-142 -43q197 -276 197 -598q0 -252 -142 -396t-378 -144q-204 0 -327.5 122.5t-123.5 319.5q0 214 129.5 353.5t333.5 139.5q116 0 164 -45q-23 57 -111 166zM518 225 q94 0 153.5 73.5t59.5 182.5q0 89 -45.5 143t-126.5 54q-94 0 -153.5 -73.5t-59.5 -182.5q0 -88 46 -142.5t126 -54.5z" />
<glyph unicode="&#xf1;" horiz-adv-x="1095" d="M907 0h-291l95 539q4 23 4 47q0 45 -30 70.5t-87 25.5q-68 0 -145 -23l-115 -659h-291l150 856q99 35 223 60.5t225 25.5q180 0 273.5 -65.5t93.5 -217.5q0 -43 -11 -118zM821 1305h178q-22 -125 -84.5 -200t-150.5 -75q-44 0 -76.5 19.5t-56.5 39t-47 19.5 q-57 0 -68 -70h-178q22 125 84.5 200t150.5 75q34 0 63 -12t45.5 -27t36 -27t38.5 -12q28 0 43 16t22 54z" />
<glyph unicode="&#xf2;" horiz-adv-x="1091" d="M514 -20q-209 0 -333 123.5t-124 318.5q0 146 61.5 263.5t181 187t278.5 69.5q209 0 332.5 -123.5t123.5 -318.5q0 -146 -61 -263.5t-180.5 -187t-278.5 -69.5zM524 221q97 0 159 77.5t62 193.5q0 92 -48 149t-130 57q-97 0 -159 -77.5t-62 -192.5q0 -92 48 -149.5 t130 -57.5zM745 1051h-247l-121 311h248z" />
<glyph unicode="&#xf3;" horiz-adv-x="1091" d="M514 -20q-209 0 -333 123.5t-124 318.5q0 146 61.5 263.5t181 187t278.5 69.5q209 0 332.5 -123.5t123.5 -318.5q0 -146 -61 -263.5t-180.5 -187t-278.5 -69.5zM524 221q97 0 159 77.5t62 193.5q0 92 -48 149t-130 57q-97 0 -159 -77.5t-62 -192.5q0 -92 48 -149.5 t130 -57.5zM768 1051h-274l229 311h274z" />
<glyph unicode="&#xf4;" horiz-adv-x="1091" d="M514 -20q-209 0 -333 123.5t-124 318.5q0 146 61.5 263.5t181 187t278.5 69.5q209 0 332.5 -123.5t123.5 -318.5q0 -146 -61 -263.5t-180.5 -187t-278.5 -69.5zM524 221q97 0 159 77.5t62 193.5q0 92 -48 149t-130 57q-97 0 -159 -77.5t-62 -192.5q0 -92 48 -149.5 t130 -57.5zM768 1362l182 -324h-217l-86 150l-135 -150h-238l297 324h197z" />
<glyph unicode="&#xf5;" horiz-adv-x="1091" d="M514 -20q-209 0 -333 123.5t-124 318.5q0 146 61.5 263.5t181 187t278.5 69.5q209 0 332.5 -123.5t123.5 -318.5q0 -146 -61 -263.5t-180.5 -187t-278.5 -69.5zM524 221q97 0 159 77.5t62 193.5q0 92 -48 149t-130 57q-97 0 -159 -77.5t-62 -192.5q0 -92 48 -149.5 t130 -57.5zM803 1305h178q-22 -125 -85 -200t-151 -75q-44 0 -76.5 19.5t-56.5 39t-47 19.5q-56 0 -67 -70h-179q22 125 85 200t151 75q44 0 77 -19.5t57.5 -39t47.5 -19.5q28 0 43.5 16t22.5 54z" />
<glyph unicode="&#xf6;" horiz-adv-x="1091" d="M514 -20q-209 0 -333 123.5t-124 318.5q0 146 61.5 263.5t181 187t278.5 69.5q209 0 332.5 -123.5t123.5 -318.5q0 -146 -61 -263.5t-180.5 -187t-278.5 -69.5zM524 221q97 0 159 77.5t62 193.5q0 92 -48 149t-130 57q-97 0 -159 -77.5t-62 -192.5q0 -92 48 -149.5 t130 -57.5zM455 1032q-65 0 -111.5 47t-46.5 113t46.5 112t111.5 46t112 -46t47 -112t-47 -113t-112 -47zM840 1032q-65 0 -111.5 47t-46.5 113t46.5 112t111.5 46q66 0 112.5 -46t46.5 -112t-46.5 -113t-112.5 -47z" />
<glyph unicode="&#xf7;" horiz-adv-x="940" d="M84 494l37 211h776l-37 -211h-776zM289 268q0 58 42 101t99 43q58 0 100.5 -42.5t42.5 -101.5q0 -57 -42.5 -99t-100.5 -42q-57 0 -99 42t-42 99zM406 928q0 58 42 100.5t99 42.5q59 0 101 -42.5t42 -100.5q0 -57 -42.5 -99.5t-100.5 -42.5q-57 0 -99 42.5t-42 99.5z" />
<glyph unicode="&#xf8;" horiz-adv-x="1112" d="M1126 922l-161 -158q79 -112 79 -264q0 -146 -61 -263.5t-180.5 -187t-278.5 -69.5q-167 0 -282 79l-62 -59h-194l159 156q-77 112 -77 266q0 146 61 263.5t180.5 187t278.5 69.5q161 0 280 -82l64 62h194zM760 563l-332 -323q42 -25 107 -25q100 0 165.5 79.5 t65.5 197.5q0 36 -6 71zM352 356l332 324q-42 25 -104 25q-102 0 -168 -80t-66 -197q0 -37 6 -72z" />
<glyph unicode="&#xf9;" horiz-adv-x="1062" d="M186 922h291l-96 -549q-6 -30 -6 -58q0 -49 29 -73.5t96 -24.5q52 0 110 12l123 693h291l-158 -889q-81 -22 -189.5 -37.5t-191.5 -15.5q-202 0 -304.5 67t-102.5 223q0 42 10 107zM741 1051h-247l-121 311h248z" />
<glyph unicode="&#xfa;" horiz-adv-x="1062" d="M186 922h291l-96 -549q-6 -30 -6 -58q0 -49 29 -73.5t96 -24.5q52 0 110 12l123 693h291l-158 -889q-81 -22 -189.5 -37.5t-191.5 -15.5q-202 0 -304.5 67t-102.5 223q0 42 10 107zM756 1051h-275l230 311h274z" />
<glyph unicode="&#xfb;" horiz-adv-x="1062" d="M186 922h291l-96 -549q-6 -30 -6 -58q0 -49 29 -73.5t96 -24.5q52 0 110 12l123 693h291l-158 -889q-81 -22 -189.5 -37.5t-191.5 -15.5q-202 0 -304.5 67t-102.5 223q0 42 10 107zM762 1362l182 -324h-217l-86 150l-135 -150h-238l297 324h197z" />
<glyph unicode="&#xfc;" horiz-adv-x="1062" d="M186 922h291l-96 -549q-6 -30 -6 -58q0 -49 29 -73.5t96 -24.5q52 0 110 12l123 693h291l-158 -889q-81 -22 -189.5 -37.5t-191.5 -15.5q-202 0 -304.5 67t-102.5 223q0 42 10 107zM451 1032q-65 0 -111.5 47t-46.5 113t46.5 112t111.5 46t112 -46t47 -112t-47 -113 t-112 -47zM836 1032q-65 0 -111.5 47t-46.5 113t46.5 112t111.5 46q66 0 112.5 -46t46.5 -112t-46.5 -113t-112.5 -47z" />
<glyph unicode="&#xfd;" horiz-adv-x="1056" d="M385 922l113 -588l313 588h307l-741 -1291h-295l207 377l-203 914h299zM750 1051h-275l230 311h274z" />
<glyph unicode="&#xfe;" horiz-adv-x="1116" d="M-18 -369l309 1762h291l-82 -473q68 22 135 22q191 0 307.5 -117t116.5 -313q0 -245 -149 -388.5t-400 -143.5q-93 0 -170 30l-68 -379h-290zM455 662l-74 -412q62 -25 121 -25q120 0 193 72.5t73 198.5q0 91 -49.5 143.5t-132.5 52.5q-78 0 -131 -30z" />
<glyph unicode="&#xff;" horiz-adv-x="1056" d="M385 922l113 -588l313 588h307l-741 -1291h-295l207 377l-203 914h299zM444 1032q-65 0 -111 47t-46 113t46 112t111 46t112.5 -46.5t47.5 -111.5q0 -66 -47.5 -113t-112.5 -47zM829 1032q-65 0 -111 47t-46 113t46 112t111 46q66 0 113 -46t47 -112t-47 -113t-113 -47z " />
<glyph unicode="&#x152;" horiz-adv-x="1691" d="M1714 1217l-47 -269h-483l-37 -209h438l-45 -262h-438l-37 -209h498l-47 -268h-816q-275 0 -441.5 156.5t-166.5 414.5q0 131 46.5 248.5t130.5 206t211 140t278 51.5h956zM764 264l119 684h-125q-161 0 -256.5 -102.5t-95.5 -274.5q0 -136 80 -221.5t214 -85.5h64z" />
<glyph unicode="&#x153;" horiz-adv-x="1669" d="M1546 297l-43 -256q-130 -61 -315 -61q-212 0 -334 122q-146 -122 -340 -122q-209 0 -333 123.5t-124 318.5q0 146 61.5 263.5t181 187t278.5 69.5q193 0 321 -125q141 125 338 125q193 0 291 -100.5t98 -266.5q0 -99 -41 -202h-571v-6q14 -72 74.5 -108t144.5 -36 q159 0 313 74zM524 221q97 0 159 77.5t62 193.5q0 92 -48 149t-130 57q-97 0 -159 -77.5t-62 -192.5q0 -92 48 -149.5t130 -57.5zM1024 541h326q4 28 4 43q0 59 -34.5 93t-94.5 34q-77 0 -128.5 -45.5t-72.5 -124.5z" />
<glyph unicode="&#x178;" horiz-adv-x="1169" d="M623 733l331 484h342l-569 -775l-78 -442h-303l78 442l-297 775h324zM557 1288q-65 0 -111.5 47t-46.5 113t46.5 112t111.5 46t112.5 -46.5t47.5 -111.5q0 -66 -47.5 -113t-112.5 -47zM942 1288q-65 0 -111.5 47t-46.5 113t46.5 112t111.5 46q66 0 113 -46t47 -112 t-47 -113t-113 -47z" />
<glyph unicode="&#x2c6;" horiz-adv-x="1024" d="M668 1362l182 -324h-217l-86 150l-135 -150h-238l297 324h197z" />
<glyph unicode="&#x2dc;" horiz-adv-x="1024" d="M664 1305h178q-22 -125 -85 -200t-151 -75q-44 0 -76.5 19.5t-56.5 39t-47 19.5q-57 0 -68 -70h-178q22 125 85 200t151 75q34 0 63 -12t45 -27t35.5 -27t38.5 -12q28 0 43.5 16t22.5 54z" />
<glyph unicode="&#x2000;" horiz-adv-x="840" />
<glyph unicode="&#x2001;" horiz-adv-x="1681" />
<glyph unicode="&#x2002;" horiz-adv-x="840" />
<glyph unicode="&#x2003;" horiz-adv-x="1681" />
<glyph unicode="&#x2004;" horiz-adv-x="560" />
<glyph unicode="&#x2005;" horiz-adv-x="420" />
<glyph unicode="&#x2006;" horiz-adv-x="280" />
<glyph unicode="&#x2007;" horiz-adv-x="280" />
<glyph unicode="&#x2008;" horiz-adv-x="210" />
<glyph unicode="&#x2009;" horiz-adv-x="336" />
<glyph unicode="&#x200a;" horiz-adv-x="93" />
<glyph unicode="&#x2010;" horiz-adv-x="727" d="M53 406l47 258h588l-47 -258h-588z" />
<glyph unicode="&#x2011;" horiz-adv-x="727" d="M53 406l47 258h588l-47 -258h-588z" />
<glyph unicode="&#x2012;" horiz-adv-x="727" d="M53 406l47 258h588l-47 -258h-588z" />
<glyph unicode="&#x2013;" horiz-adv-x="1171" d="M61 444l39 220h1033l-39 -220h-1033z" />
<glyph unicode="&#x2014;" horiz-adv-x="1949" d="M61 444l39 220h1811l-39 -220h-1811z" />
<glyph unicode="&#x2018;" horiz-adv-x="514" d="M432 827h-280q29 164 117 292.5t198 199.5h192q-93 -112 -147.5 -230.5t-79.5 -261.5z" />
<glyph unicode="&#x2019;" horiz-adv-x="514" d="M303 1319h281q-29 -164 -117.5 -292.5t-198.5 -199.5h-192q93 112 147.5 230.5t79.5 261.5z" />
<glyph unicode="&#x201a;" horiz-adv-x="514" d="M102 256h281q-29 -164 -117 -292.5t-198 -199.5h-193q93 112 147.5 230.5t79.5 261.5z" />
<glyph unicode="&#x201c;" horiz-adv-x="917" d="M432 827h-280q29 164 117 292.5t198 199.5h192q-93 -112 -147.5 -230.5t-79.5 -261.5zM838 827h-283q29 163 117.5 291.5t197.5 200.5h193q-93 -111 -146.5 -229.5t-78.5 -262.5z" />
<glyph unicode="&#x201d;" horiz-adv-x="917" d="M707 1319h280q-29 -164 -117 -292.5t-198 -199.5h-193q94 112 148.5 230.5t79.5 261.5zM301 1319h283q-29 -163 -118 -291.5t-198 -200.5h-192q93 111 146.5 229.5t78.5 262.5z" />
<glyph unicode="&#x201e;" horiz-adv-x="917" d="M506 256h280q-29 -164 -117 -292.5t-198 -199.5h-192q93 112 147.5 230.5t79.5 261.5zM100 256h283q-29 -163 -117.5 -291.5t-197.5 -200.5h-193q93 111 146.5 229.5t78.5 262.5z" />
<glyph unicode="&#x2022;" horiz-adv-x="704" d="M98 535q0 105 72 178t176 73t178 -73.5t74 -177.5t-73.5 -176t-178.5 -72q-104 0 -176 72t-72 176z" />
<glyph unicode="&#x2026;" horiz-adv-x="1677" d="M59 164q0 79 53 134.5t126 55.5q83 0 137.5 -55t54.5 -135q0 -75 -55 -127.5t-137 -52.5q-72 0 -125.5 53.5t-53.5 126.5zM618 164q0 79 53 134.5t126 55.5q83 0 137.5 -55t54.5 -135q0 -75 -55 -127.5t-137 -52.5q-72 0 -125.5 53.5t-53.5 126.5zM1178 164 q0 79 52.5 134.5t125.5 55.5q83 0 137.5 -55t54.5 -135q0 -75 -55 -127.5t-137 -52.5q-72 0 -125 53.5t-53 126.5z" />
<glyph unicode="&#x202f;" horiz-adv-x="336" />
<glyph unicode="&#x2039;" horiz-adv-x="649" d="M643 764l-307 -324l213 -323h-275l-215 323l316 324h268z" />
<glyph unicode="&#x203a;" horiz-adv-x="649" d="M-6 117l307 323l-213 324h274l216 -324l-316 -323h-268z" />
<glyph unicode="&#x205f;" horiz-adv-x="420" />
<glyph unicode="&#x20ac;" horiz-adv-x="1064" d="M168 657h-100l24 144h109q68 206 225 321t354 115q102 0 187 -30.5t139 -84.5l-51 -288q-108 131 -275 131q-172 0 -264 -164h305l-53 -144h-301q-9 -53 -12 -104h278l-53 -143h-209q26 -74 81 -116t136 -42q77 0 144.5 21.5t152.5 78.5l-55 -307q-111 -65 -264 -65 q-206 0 -336 116.5t-162 313.5h-143l24 143h111q4 68 8 104z" />
<glyph unicode="&#x2122;" horiz-adv-x="1466" d="M494 1051l-72 -402h-182l71 402h-170l29 166h522l-28 -166h-170zM1071 649h-141l-45 307l-103 -307h-186l199 568h206l41 -330l150 330h215l-4 -568h-178l2 309z" />
<glyph unicode="&#xe000;" horiz-adv-x="921" d="M0 922h922v-922h-922v922z" />
</font>
</defs>
</svg>
