<?xml version="1.0" standalone="no"?>
<!DOCTYPE svg PUBLIC "-//W3C//DTD SVG 1.1//EN" "http://www.w3.org/Graphics/SVG/1.1/DTD/svg11.dtd" >
<svg xmlns="http://www.w3.org/2000/svg">
<metadata></metadata>
<defs>
<font id="karbon_hairlineitalic" horiz-adv-x="327" >
<font-face units-per-em="2048" ascent="1393" descent="-655" />
<missing-glyph horiz-adv-x="348" />
<glyph unicode="&#xfb01;" horiz-adv-x="772" d="M252 881l-156 -881h-12l156 881h-121l2 12h121l47 272q21 118 90 179t168 61t158 -55l-5 -13q-59 56 -153 56t-160 -58.5t-86 -169.5l-47 -272h453l-158 -893h-12l155 881h-440z" />
<glyph unicode="&#xfb02;" horiz-adv-x="772" d="M647 1372l-4 -12q-54 33 -117 33q-184 0 -223 -217l-49 -283h256l-2 -12h-256l-156 -881h-12l156 881h-121l2 12h121l49 283q20 115 77.5 172t157.5 57q67 0 121 -33zM795 1393l-246 -1393h-12l245 1393h13z" />
<glyph unicode="&#xfb03;" horiz-adv-x="1224" d="M692 881h-440l-156 -881h-12l156 881h-121l2 12h121l45 262q20 115 77.5 172t157.5 57q91 0 150 -55l-4 -12q-58 55 -146 55q-185 0 -223 -217l-45 -262h440l47 272q21 118 90 179t168 61t158 -55l-4 -13q-59 56 -154 56q-94 0 -159.5 -58.5t-85.5 -169.5l-47 -272h452 l-158 -893h-12l156 881h-440l-156 -881h-12z" />
<glyph unicode="&#xfb04;" horiz-adv-x="1224" d="M692 881h-440l-156 -881h-12l156 881h-121l2 12h121l45 262q20 115 77.5 172t157.5 57q91 0 150 -55l-4 -12q-58 55 -146 55q-185 0 -223 -217l-45 -262h440l49 283q20 115 78 172t158 57q67 0 121 -33l-4 -12q-54 33 -117 33q-184 0 -223 -217l-49 -283h256l-2 -12h-256 l-156 -881h-12zM1247 1393l-246 -1393h-12l246 1393h12z" />
<glyph horiz-adv-x="2048" />
<glyph horiz-adv-x="2048" />
<glyph unicode="&#xd;" horiz-adv-x="2048" />
<glyph unicode=" "  horiz-adv-x="348" />
<glyph unicode="&#x09;" horiz-adv-x="348" />
<glyph unicode="&#xa0;" horiz-adv-x="348" />
<glyph unicode="!" d="M301 1219l-154 -873h-12l154 873h12zM70 20q0 21 20 21q9 0 15 -6t6 -15q0 -20 -21 -20q-20 0 -20 20z" />
<glyph unicode="&#x22;" horiz-adv-x="387" d="M184 977l101 342h12l-100 -342h-13zM313 977l101 342h12l-100 -342h-13z" />
<glyph unicode="#" horiz-adv-x="1001" d="M303 444l-168 -444h-12l168 444h-232l2 13h234l127 336h-236l2 12h238l156 414h12l-156 -414h275l155 414h13l-156 -414h236l-3 -12h-237l-127 -336h240l-3 -13h-241l-168 -444h-12l168 444h-275zM307 457h275l127 336h-275z" />
<glyph unicode="$" horiz-adv-x="796" d="M262 -195l33 185q-98 7 -183 56t-126 116l2 18q45 -72 128 -120.5t181 -57.5l111 629q-119 69 -160 104q-98 83 -98 199q0 140 93 216.5t251 76.5h16l29 166h12l-29 -166q87 -6 157 -48t105 -98l-2 -16q-37 60 -106.5 101.5t-155.5 47.5l-100 -577q34 -20 42 -25 t39.5 -24.5t42 -28.5t35.5 -29.5t35 -35t26.5 -38.5t23 -45.5t12.5 -50t6 -59.5q0 -148 -96.5 -229.5t-259.5 -81.5h-19l-33 -185h-12zM309 2h17q155 0 249.5 78t94.5 221q0 43 -9.5 80.5t-31 68.5t-40.5 53.5t-54.5 47.5t-56 38t-60.5 36zM508 1214h-14q-152 0 -242 -73 t-90 -207q0 -42 14 -79t31.5 -61.5t53 -53t58.5 -43t69 -41.5q7 -4 12 -7l10 -6z" />
<glyph unicode="%" horiz-adv-x="1204" d="M821 -10q-100 0 -164.5 61.5t-64.5 159.5q0 116 78 191t182 75q100 0 164.5 -61.5t64.5 -159.5q0 -116 -78 -191t-182 -75zM821 2q99 0 173.5 72t74.5 182q0 92 -61 150.5t-156 58.5q-99 0 -173.5 -72t-74.5 -182q0 -92 61 -150.5t156 -58.5zM383 1229q100 0 164.5 -61.5 t64.5 -159.5q0 -116 -78 -191.5t-182 -75.5q-100 0 -164.5 62t-64.5 160q0 116 78 191t182 75zM383 1217q-99 0 -173.5 -72t-74.5 -182q0 -92 61 -150.5t156 -58.5q99 0 173.5 72t74.5 182q0 92 -61 150.5t-156 58.5zM1071 1219l-924 -1219h-14l924 1219h14z" />
<glyph unicode="&#x26;" horiz-adv-x="1069" d="M430 651l-10 13q-127 155 -127 280q0 131 79 208t208 77q115 0 180 -68.5t65 -169.5q0 -52 -21 -97t-52 -77t-85 -65.5t-100 -55t-118 -51.5l368 -450q130 146 184 350h13q-54 -210 -191 -359l152 -186h-14l-146 178q-173 -188 -405 -188q-162 0 -254.5 80t-92.5 217 q0 51 13.5 94t42 77t57 59.5t76 50.5t79 39.5t85.5 37.5q9 4 14 6zM809 186l-371 455q-49 -20 -74.5 -31t-70.5 -33.5t-70 -40t-57 -45.5t-49 -56.5t-29 -66.5t-12 -81q0 -131 89 -208t245 -77q226 0 399 184zM428 672l12 -17q72 30 117.5 51.5t99.5 54t84 63.5t51 74.5 t21 92.5q0 95 -62 160.5t-171 65.5q-123 0 -199 -74t-76 -199q0 -121 123 -272z" />
<glyph unicode="'" horiz-adv-x="258" d="M184 977l101 342h12l-100 -342h-13z" />
<glyph unicode="(" horiz-adv-x="567" d="M375 -283h-17q-58 68 -99.5 128t-80 138t-58.5 169t-20 194q0 164 40 313t116 278t172 239t223 217h19q-129 -108 -226 -217.5t-174 -238.5t-117 -278t-40 -313q0 -103 20 -193.5t59.5 -168.5t81 -137.5t101.5 -129.5z" />
<glyph unicode=")" horiz-adv-x="567" d="M229 1393h17q58 -68 99.5 -128t80 -138t58.5 -169t20 -194q0 -164 -40 -313t-116 -278t-172 -239t-223 -217h-19q129 108 226 217.5t174 238.5t117.5 278t40.5 313q0 103 -20 193.5t-59.5 168.5t-81.5 137.5t-102 129.5z" />
<glyph unicode="*" horiz-adv-x="552" d="M375 1135l-178 -152l-9 8l181 154l-203 123l6 10l203 -123l53 231l12 -2l-55 -231l238 21v-11l-238 -22l94 -217l-12 -4z" />
<glyph unicode="+" horiz-adv-x="843" d="M426 594h-332l2 12h334l57 334h13l-58 -334h334l-2 -12h-336l-57 -334h-12z" />
<glyph unicode="," d="M111 47h12q-10 -82 -49 -138.5t-109 -103.5h-20q76 51 116 105.5t50 136.5z" />
<glyph unicode="-" horiz-adv-x="727" d="M129 526l2 13h465l-2 -13h-465z" />
<glyph unicode="." d="M72 20q0 21 20 21q9 0 15 -6t6 -15q0 -20 -21 -20q-20 0 -20 20z" />
<glyph unicode="/" horiz-adv-x="739" d="M-92 -283l936 1676h14l-936 -1676h-14z" />
<glyph unicode="0" horiz-adv-x="995" d="M426 -10q-159 0 -254.5 131t-95.5 354q0 161 44.5 303.5t117.5 240t167 154t193 56.5q159 0 254.5 -131.5t95.5 -354.5q0 -161 -44.5 -303.5t-117.5 -239.5t-167 -153.5t-193 -56.5zM598 1217q-76 0 -151 -35t-139.5 -101.5t-113.5 -155.5t-77.5 -206t-28.5 -244 q0 -216 92.5 -344.5t245.5 -128.5q96 0 188 55.5t163.5 151t115 236t43.5 298.5q0 216 -92.5 345t-245.5 129z" />
<glyph unicode="1" horiz-adv-x="501" d="M92 1149l2 12l330 68l-217 -1229h-12l215 1214z" />
<glyph unicode="2" horiz-adv-x="786" d="M-47 12h706l-2 -12h-727l2 12q234 144 417 303.5t295 327.5t112 307q0 122 -64.5 194.5t-191.5 72.5q-197 0 -377 -193l2 18q177 187 375 187q132 0 200 -75.5t68 -203.5q0 -143 -115 -315.5t-296 -330t-404 -292.5z" />
<glyph unicode="3" horiz-adv-x="790" d="M145 1044l5 21q157 164 356 164q131 0 200.5 -72.5t69.5 -179.5q0 -75 -32.5 -139.5t-86.5 -107.5t-119.5 -69t-134.5 -32q76 -6 142 -39.5t111.5 -98t45.5 -147.5q0 -160 -113.5 -257t-295.5 -97q-110 0 -194.5 38t-123.5 95l2 16q45 -63 128.5 -100t187.5 -37 q175 0 286 94t111 248q0 121 -97 200t-251 79l2 12q175 2 297.5 98.5t122.5 243.5q0 101 -66.5 170.5t-191.5 69.5q-198 0 -361 -173z" />
<glyph unicode="4" horiz-adv-x="1009" d="M872 1229l-153 -862h231l-2 -13h-231l-62 -354h-12l62 354h-680l2 13l833 862h12zM858 1210l-815 -843h664z" />
<glyph unicode="5" horiz-adv-x="774" d="M309 1206l-114 -471q99 -13 181.5 -40t154 -71.5t111.5 -114.5t40 -159q0 -70 -24 -133t-70 -114.5t-123.5 -82t-175.5 -30.5q-115 0 -203 42.5t-129 102.5l2 17q47 -66 134 -108t196 -42q95 0 170 29.5t120 79.5t68 110t23 127q0 70 -27 129t-72 99.5t-109 71.5t-133 49 t-149 28l121 494h506l-2 -13h-496z" />
<glyph unicode="6" horiz-adv-x="909" d="M662 1219h16l-424 -484l-104 -119q126 144 309 144q158 0 263 -102t105 -263q0 -176 -117 -290.5t-286 -114.5q-160 0 -265.5 101.5t-105.5 262.5q0 60 14.5 114t45.5 104.5t56.5 83t68.5 81.5zM459 748q-158 0 -275.5 -112.5t-117.5 -281.5q0 -156 102.5 -254t255.5 -98 q164 0 277.5 112t113.5 281q0 156 -101.5 254.5t-254.5 98.5z" />
<glyph unicode="7" horiz-adv-x="778" d="M811 1206h-682l2 13h696v-11l-751 -1208h-15z" />
<glyph unicode="8" horiz-adv-x="864" d="M403 -10q-160 0 -264 86.5t-104 224.5q0 156 108.5 249t262.5 95q-39 12 -74.5 33t-66.5 53t-49.5 79.5t-18.5 104.5q0 141 95 227.5t234 86.5q130 0 219 -79.5t89 -205.5q0 -137 -88 -220t-216 -91q118 -25 190.5 -104t72.5 -189q0 -159 -114.5 -254.5t-275.5 -95.5z M504 643q133 0 225 82.5t92 218.5q0 121 -86 197t-209 76q-133 0 -225 -83t-92 -219q0 -120 86 -196t209 -76zM403 2q100 0 185 39t138.5 117.5t53.5 181.5q0 131 -102.5 213t-257.5 82q-100 0 -184 -38t-136.5 -115.5t-52.5 -180.5q0 -131 100.5 -215t255.5 -84z" />
<glyph unicode="9" horiz-adv-x="909" d="M266 0h-16l424 483l104 119q-125 -143 -309 -143q-159 0 -264 101.5t-105 262.5q0 176 117.5 291t286.5 115q160 0 265 -102t105 -263q0 -60 -14.5 -114t-45 -104t-56 -83.5t-68.5 -81.5zM469 471q158 0 275.5 112t117.5 281q0 156 -102.5 254.5t-255.5 98.5 q-164 0 -277.5 -112.5t-113.5 -281.5q0 -156 101.5 -254t254.5 -98z" />
<glyph unicode=":" d="M72 20q0 21 20 21q9 0 15 -6t6 -15q0 -20 -21 -20q-20 0 -20 20zM195 727q0 21 20 21q9 0 15 -6t6 -15q0 -20 -21 -20q-20 0 -20 20z" />
<glyph unicode=";" d="M111 47h12q-10 -82 -49 -138.5t-109 -103.5h-20q76 51 116 105.5t50 136.5zM195 727q0 21 20 21q9 0 15 -6t6 -15q0 -20 -21 -20q-20 0 -20 20z" />
<glyph unicode="&#x3c;" horiz-adv-x="632" d="M72 590l4 12l565 316l-4 -17l-549 -307l440 -305l-2 -15z" />
<glyph unicode="=" horiz-adv-x="843" d="M72 473l2 12h680l-2 -12h-680zM115 719l2 12h680l-2 -12h-680z" />
<glyph unicode="&#x3e;" horiz-adv-x="632" d="M586 602l-4 -12l-566 -316l4 17l549 307l-440 305l2 15z" />
<glyph unicode="?" horiz-adv-x="741" d="M119 1075l4 21q129 133 313 133q144 0 224.5 -87t80.5 -210q0 -76 -23.5 -139t-61.5 -107.5t-98.5 -82.5t-122 -63t-144.5 -51l-27 -143h-12l29 154q83 26 144 50.5t121.5 61.5t98 80t61 104t23.5 136q0 115 -77 200t-216 85q-178 0 -317 -142zM188 20q0 9 6 15t15 6 q20 0 20 -21q0 -20 -20 -20q-21 0 -21 20z" />
<glyph unicode="@" horiz-adv-x="1570" d="M1145 764l-129 -707q93 17 173.5 57.5t147.5 106t105.5 166.5t38.5 225q0 249 -163 401t-441 152q-227 0 -402.5 -101.5t-269.5 -274.5t-94 -388q0 -144 46 -262.5t120.5 -195t173.5 -129t202 -75t209 -22.5q241 0 426 78l-2 -14q-177 -76 -424 -76q-108 0 -212.5 23 t-205.5 76.5t-177 131.5t-122.5 198t-46.5 267q0 219 95.5 395t274.5 279t409 103q283 0 449.5 -155t166.5 -411q0 -180 -81 -312t-221.5 -199.5t-322.5 -67.5q-191 0 -310.5 107t-119.5 290q0 184 112.5 292.5t303.5 108.5q76 0 157.5 -19.5t133.5 -47.5zM1004 55l129 703 q-52 25 -127.5 43t-151.5 18q-185 0 -294 -105.5t-109 -283.5q0 -177 115.5 -281t301.5 -104q62 0 136 10z" />
<glyph unicode="A" horiz-adv-x="1155" d="M1036 0l-100 381h-739l-232 -381h-14l749 1229h19l330 -1229h-13zM709 1219l-504 -826h727z" />
<glyph unicode="B" horiz-adv-x="931" d="M80 23l211 1194q101 12 235 12q171 0 262 -71.5t91 -201.5q0 -71 -25 -128.5t-64 -93t-90.5 -60.5t-99.5 -35.5t-96 -13.5q52 -2 98.5 -13.5t89.5 -34t74 -54.5t49.5 -79.5t18.5 -105.5q0 -169 -125 -258.5t-355 -89.5q-135 0 -274 33zM197 618l-103 -585 q132 -31 260 -31q224 0 345.5 86.5t121.5 249.5q0 140 -105.5 210t-283.5 70h-235zM301 1206l-102 -575h235q63 0 122 10t116 34.5t99.5 60.5t68.5 92.5t26 127.5q0 124 -88 192.5t-252 68.5q-126 0 -225 -11z" />
<glyph unicode="C" horiz-adv-x="1157" d="M1137 1073l-4 -14q-67 71 -167 114.5t-218 43.5q-189 0 -335.5 -91t-223 -242.5t-76.5 -336.5q0 -243 155 -394t394 -151q229 0 395 121l-2 -17q-166 -116 -393 -116q-246 0 -404 154t-158 403q0 140 46 264.5t128.5 217t205.5 146.5t268 54q120 0 220 -43t169 -113z" />
<glyph unicode="D" horiz-adv-x="1220" d="M82 31l207 1181q133 17 246 17q137 0 251 -34.5t198.5 -101t131.5 -172.5t47 -241q0 -144 -41 -260.5t-112 -195.5t-169.5 -132.5t-212 -77.5t-241.5 -24q-193 0 -305 41zM299 1202l-203 -1163q113 -37 291 -37q126 0 237.5 23.5t209 76t167.5 130.5t110 192.5t40 255.5 q0 132 -46 235.5t-129 168.5t-194.5 99t-246.5 34q-122 0 -236 -15z" />
<glyph unicode="E" horiz-adv-x="905" d="M90 12h643l-2 -12h-655l215 1219h645l-2 -13h-633l-102 -577h608l-2 -13h-608z" />
<glyph unicode="F" horiz-adv-x="831" d="M88 0h-12l215 1219h600l-2 -13h-588l-102 -575h565l-2 -13h-565z" />
<glyph unicode="G" horiz-adv-x="1198" d="M1137 1073l-4 -14q-67 71 -167 114.5t-218 43.5q-189 0 -335.5 -91t-223 -242.5t-76.5 -336.5q0 -243 155 -394t394 -151q223 0 382 111l70 399h12l-71 -406q-166 -116 -393 -116q-246 0 -404 154t-158 403q0 140 46 264.5t128.5 217t205.5 146.5t268 54q120 0 220 -43 t169 -113z" />
<glyph unicode="H" horiz-adv-x="1265" d="M1239 1219l-215 -1219h-12l108 614h-923l-109 -614h-12l215 1219h12l-104 -592h923l105 592h12z" />
<glyph unicode="I" d="M303 1219l-215 -1219h-12l215 1219h12z" />
<glyph unicode="J" horiz-adv-x="665" d="M-12 119l2 18q35 -67 103 -101t145 -34q227 0 278 287l164 930h12l-164 -930q-53 -299 -290 -299q-78 0 -149 35t-101 94z" />
<glyph unicode="K" horiz-adv-x="946" d="M221 616l789 603h18l-790 -605l616 -614h-16l-617 614v2zM303 1219l-215 -1219h-12l215 1219h12z" />
<glyph unicode="L" horiz-adv-x="827" d="M76 0l215 1219h12l-213 -1207h623l-2 -12h-635z" />
<glyph unicode="M" horiz-adv-x="1536" d="M692 -10h-16l-232 1227l-426 -1217h-14l432 1229h19l231 -1223l662 1223h18l2 -1229h-12l-2 1214z" />
<glyph unicode="N" horiz-adv-x="1232" d="M303 1229l678 -1219l213 1209h12l-217 -1229h-10l-678 1218l-213 -1208h-12l217 1229h10z" />
<glyph unicode="O" horiz-adv-x="1363" d="M662 -10q-246 0 -404 152t-158 401q0 140 46 265t128.5 218.5t205.5 148t268 54.5q246 0 403.5 -152t157.5 -401q0 -140 -46 -265t-128 -218.5t-205 -148t-268 -54.5zM662 2q142 0 262.5 53.5t201 145t125.5 214.5t45 261q0 243 -154.5 392t-393.5 149q-189 0 -335.5 -92 t-223 -244.5t-76.5 -337.5q0 -243 155 -392t394 -149z" />
<glyph unicode="P" horiz-adv-x="874" d="M178 510l-90 -510h-12l215 1217q79 12 188 12q203 0 304.5 -86.5t101.5 -253.5q0 -97 -39 -173.5t-107.5 -124t-157 -72.5t-190.5 -25q-139 0 -213 16zM301 1206l-121 -684q70 -16 211 -16q134 0 241 41.5t173.5 129.5t66.5 212q0 160 -97.5 244t-295.5 84 q-95 0 -178 -11z" />
<glyph unicode="Q" horiz-adv-x="1363" d="M887 -274l-207 264h-18q-246 0 -404 152t-158 401q0 140 46 265t128.5 218.5t205.5 148t268 54.5q246 0 403.5 -152t157.5 -401q-7 -247 -125 -422q-113 -159 -291 -225q-68 -26 -197 -37l207 -266h-16zM662 2q142 0 262.5 53.5t201 145t125.5 214.5t45 261 q0 243 -154.5 392t-393.5 149q-189 0 -335.5 -92t-223 -244.5t-76.5 -337.5q0 -243 155 -392t394 -149z" />
<glyph unicode="R" horiz-adv-x="942" d="M180 524l-92 -524h-12l215 1217q79 12 180 12q103 0 182 -26t125 -72.5t69 -104.5t23 -127q0 -79 -25.5 -143t-68.5 -106t-102 -71t-123 -41.5t-135 -13.5l401 -524h-14l-402 524h-221zM301 1206l-119 -669h234q68 0 130.5 12t119.5 40t99.5 69t67.5 103t25 138 q0 65 -22 121t-66.5 101t-121 70.5t-177.5 25.5q-77 0 -170 -11z" />
<glyph unicode="S" horiz-adv-x="796" d="M784 1081l-2 -16q-40 66 -121 109t-180 43q-143 0 -231 -74.5t-88 -208.5q0 -53 16.5 -94.5t58 -78t66 -53t85.5 -51.5q13 -8 20 -12q119 -70 162 -107q112 -96 112 -237q0 -147 -97.5 -229t-256.5 -82q-109 0 -202 50.5t-140 123.5l2 18q51 -79 142.5 -129.5 t197.5 -50.5q153 0 247.5 78.5t94.5 220.5q0 51 -15 94t-37.5 74t-57.5 60.5t-67.5 50t-75.5 45.5q-9 5 -14 8q-114 66 -151 98q-102 84 -102 203q0 140 90.5 217.5t240.5 77.5q100 0 182.5 -43.5t120.5 -104.5z" />
<glyph unicode="T" horiz-adv-x="970" d="M608 1206l-211 -1206h-12l211 1206h-459l2 13h930l-2 -13h-459z" />
<glyph unicode="U" horiz-adv-x="1177" d="M117 418l141 801h12l-141 -801q-10 -51 -10 -113q0 -87 31 -148t90.5 -94t133 -47t171.5 -14q172 0 387 43l207 1174h12l-209 -1184q-245 -45 -397 -45q-102 0 -179 15.5t-137.5 50.5t-91.5 97.5t-31 151.5q0 49 11 113z" />
<glyph unicode="V" horiz-adv-x="1155" d="M473 -10h-16l-299 1229h12l297 -1215l770 1215h14z" />
<glyph unicode="W" horiz-adv-x="1542" d="M891 1229h16l150 -1227l549 1217h14l-555 -1229h-21l-147 1222l-578 -1222h-20l-125 1229h12l125 -1217z" />
<glyph unicode="X" horiz-adv-x="1003" d="M205 1219h14l313 -572l512 572h19l-524 -584l350 -635h-15l-346 627l-561 -627h-18l573 639z" />
<glyph unicode="Y" horiz-adv-x="987" d="M498 514l569 705h16l-581 -721l-88 -498h-13l88 500l-331 719h14z" />
<glyph unicode="Z" horiz-adv-x="956" d="M205 1206l2 13h825v-11l-1044 -1196h848l-2 -12h-865v10l1045 1196h-809z" />
<glyph unicode="[" horiz-adv-x="569" d="M418 1380l-291 -1650h260l-2 -13h-272l295 1676h272l-2 -13h-260z" />
<glyph unicode="\" horiz-adv-x="739" d="M244 1393l358 -1676h-12l-359 1676h13z" />
<glyph unicode="]" horiz-adv-x="579" d="M201 -270l291 1650h-261l2 13h273l-295 -1676h-272l2 13h260z" />
<glyph unicode="^" horiz-adv-x="663" d="M463 1219l184 -463h-14l-178 448l-332 -448h-17l343 463h14z" />
<glyph unicode="_" horiz-adv-x="823" d="M0 -190l2 12h619l-3 -12h-618z" />
<glyph unicode="`" horiz-adv-x="1024" d="M580 1051h-13l-125 311h13z" />
<glyph unicode="a" horiz-adv-x="835" d="M213 819v12q55 32 132 52t147 20q120 0 183.5 -54t63.5 -163q0 -32 -6 -72l-104 -591q-123 -33 -219 -33q-168 0 -265.5 63t-97.5 185q0 249 483 249h168l23 129q6 37 6 70q0 205 -235 205q-68 0 -146 -21t-133 -51zM696 475h-166q-471 0 -471 -237q0 -116 94 -176 t257 -60q81 0 208 31z" />
<glyph unicode="b" horiz-adv-x="999" d="M311 1393h13l-103 -580q157 90 314 90q180 0 289.5 -107.5t109.5 -295.5q0 -228 -135.5 -369t-376.5 -141q-94 0 -189 31t-151 71zM219 799l-123 -701q54 -37 144.5 -66.5t181.5 -29.5q234 0 367 138t133 360q0 182 -107 286.5t-280 104.5q-151 0 -316 -92z" />
<glyph unicode="c" horiz-adv-x="860" d="M760 78v-15q-115 -73 -285 -73q-184 0 -295.5 114t-111.5 299q0 211 131.5 355.5t345.5 144.5q189 0 295 -127l-4 -12q-113 127 -291 127q-139 0 -246 -66.5t-163 -177t-56 -244.5q0 -179 108.5 -290t286.5 -111q78 0 154.5 20.5t130.5 55.5z" />
<glyph unicode="d" horiz-adv-x="1007" d="M1032 1393l-235 -1334q-118 -69 -301 -69q-187 0 -307.5 108.5t-120.5 294.5q0 227 133.5 368.5t365.5 141.5q191 0 346 -110l107 600h12zM786 68l125 712q-152 111 -344 111q-226 0 -356.5 -138.5t-130.5 -359.5q0 -180 118 -285.5t298 -105.5q173 0 290 66z" />
<glyph unicode="e" horiz-adv-x="923" d="M766 78v-15q-115 -73 -285 -73q-190 0 -301.5 113.5t-111.5 293.5q0 140 57 255t163.5 183t241.5 68q93 0 161.5 -28t106 -77.5t55 -107.5t17.5 -127q0 -60 -12 -90h-774q-4 -29 -4 -76q0 -174 108.5 -284.5t292.5 -110.5q78 0 154.5 20.5t130.5 55.5zM86 485h764 q8 27 8 78q0 67 -17 123t-53.5 103.5t-102.5 74.5t-155 27q-176 0 -296.5 -114t-147.5 -292z" />
<glyph unicode="f" horiz-adv-x="417" d="M252 881l-156 -881h-12l156 881h-121l2 12h121l49 283q20 115 77.5 172t157.5 57q91 0 150 -55l-4 -13q-59 56 -146 56q-184 0 -223 -217l-49 -283h256l-2 -12h-256z" />
<glyph unicode="g" horiz-adv-x="989" d="M78 -276l4 12q54 -41 135.5 -73t171.5 -32q160 0 252.5 76.5t126.5 259.5l25 133q-133 -100 -324 -100q-178 0 -289.5 105.5t-111.5 291.5q0 228 135.5 367t376.5 139q95 0 194 -31.5t154 -70.5l-148 -834q-32 -189 -129 -268.5t-262 -79.5q-92 0 -174.5 32t-136.5 73z M795 115l118 680q-53 36 -147.5 66t-185.5 30q-236 0 -368 -136t-132 -358q0 -180 108.5 -282.5t280.5 -102.5q185 0 326 103z" />
<glyph unicode="h" horiz-adv-x="989" d="M766 0h-12l96 537q12 71 12 129q0 116 -70.5 170.5t-211.5 54.5q-56 0 -120 -12t-109 -25t-124 -39l-143 -815h-12l245 1393h13l-101 -566q112 38 191 57t160 19q148 0 221 -57.5t73 -179.5q0 -58 -12 -129z" />
<glyph unicode="i" horiz-adv-x="307" d="M242 893l-158 -893h-12l157 893h13zM283 1169q-9 0 -15 6t-6 15q0 20 21 20q20 0 20 -20q0 -21 -20 -21z" />
<glyph unicode="j" horiz-adv-x="307" d="M283 1169q-9 0 -15 6t-6 15q0 20 21 20q20 0 20 -20q0 -21 -20 -21zM-256 -319l4 12q22 -26 60 -43t75 -17q65 0 101 37.5t53 132.5l192 1090h13l-193 -1090q-18 -102 -57 -142t-109 -40q-40 0 -78 17t-61 43z" />
<glyph unicode="k" horiz-adv-x="806" d="M717 0l-524 504l634 389h21l-637 -391l522 -502h-16zM330 1393l-246 -1393h-12l245 1393h13z" />
<glyph unicode="l" horiz-adv-x="307" d="M330 1393l-246 -1393h-12l245 1393h13z" />
<glyph unicode="m" horiz-adv-x="1546" d="M715 0h-13l95 537q12 71 12 129q0 110 -56 167.5t-182 57.5q-58 0 -123.5 -12.5t-110 -27t-110.5 -38.5l-143 -813h-12l145 821q111 41 190 61.5t164 20.5q162 0 217 -96q208 96 388 96q256 0 256 -237q0 -52 -13 -129l-96 -537h-12l96 537q12 71 12 129q0 225 -243 225 q-89 0 -192.5 -26.5t-188.5 -67.5q26 -51 26 -131q0 -58 -12 -129z" />
<glyph unicode="n" horiz-adv-x="989" d="M766 0h-12l96 537q12 71 12 129q0 116 -70.5 170.5t-211.5 54.5q-134 0 -353 -78l-143 -813h-12l145 821q113 41 196 61.5t167 20.5q148 0 221 -57.5t73 -179.5q0 -58 -12 -129z" />
<glyph unicode="o" horiz-adv-x="1015" d="M473 -10q-176 0 -290.5 117.5t-114.5 295.5q0 103 33.5 194t93.5 159t150.5 107.5t197.5 39.5q177 0 291 -116t114 -293q0 -103 -33.5 -194.5t-93.5 -160.5t-150.5 -109t-197.5 -40zM473 2q139 0 245.5 67.5t162 178.5t55.5 246q0 171 -111.5 284t-281.5 113 q-208 0 -335.5 -140.5t-127.5 -347.5q0 -171 112 -286t281 -115z" />
<glyph unicode="p" horiz-adv-x="1007" d="M6 -369l213 1200q140 70 293 70q187 0 307.5 -108.5t120.5 -294.5q0 -227 -134 -367.5t-366 -140.5q-99 0 -188.5 29t-151.5 69l-82 -457h-12zM229 823l-127 -723q59 -38 150.5 -68t187.5 -30q226 0 357 137.5t131 358.5q0 180 -118 285.5t-298 105.5q-145 0 -283 -66z " />
<glyph unicode="q" horiz-adv-x="989" d="M721 -369h-12l82 459q-133 -100 -324 -100q-177 0 -288 108t-111 295q0 228 135.5 369t376.5 141q95 0 194 -31.5t154 -70.5zM793 104l120 691q-53 36 -147.5 66t-185.5 30q-236 0 -368 -137.5t-132 -360.5q0 -181 108 -286t279 -105q187 0 326 102z" />
<glyph unicode="r" horiz-adv-x="555" d="M606 885l-4 -13q-51 19 -113 19q-141 0 -266 -70l-143 -821h-12l145 829q129 74 276 74q68 0 117 -18z" />
<glyph unicode="s" horiz-adv-x="653" d="M0 102l2 17q41 -49 111 -83t149 -34q119 0 193.5 59t74.5 160q0 26 -7 49t-16 40t-28.5 34.5t-32.5 27.5t-41.5 24.5t-41.5 20.5t-46 21q-43 19 -67 31t-58 34t-52.5 44t-32 55t-13.5 72q0 102 74 165.5t199 63.5q71 0 132.5 -25t100.5 -67l-2 -14q-39 42 -100.5 68 t-130.5 26q-119 0 -190 -60.5t-71 -156.5q0 -36 13.5 -67t31 -51.5t50.5 -42t56.5 -33t64.5 -29.5q45 -20 67 -30.5t57.5 -33t52.5 -43t30.5 -53t13.5 -70.5q0 -107 -78 -169t-203 -62q-81 0 -152.5 33t-109.5 79z" />
<glyph unicode="t" horiz-adv-x="536" d="M102 881l2 12h121l35 201h12l-34 -201h278l-2 -12h-278l-119 -672q-8 -41 -8 -74q0 -133 141 -133q91 0 186 55l-2 -14q-38 -22 -89.5 -37.5t-94.5 -15.5q-154 0 -154 145q0 30 8 74l119 672h-121z" />
<glyph unicode="u" horiz-adv-x="954" d="M211 893h12l-96 -537q-12 -71 -12 -129q0 -225 309 -225q158 0 309 47l148 844h12l-150 -854q-158 -49 -319 -49q-155 0 -238.5 58.5t-83.5 178.5q0 52 13 129z" />
<glyph unicode="v" horiz-adv-x="843" d="M115 893h12l192 -885l549 885h15l-557 -899h-17z" />
<glyph unicode="w" horiz-adv-x="1251" d="M702 903l125 -895l449 885h14l-456 -899h-17l-125 897l-461 -897h-16l-100 899h12l98 -885l461 895h16z" />
<glyph unicode="x" horiz-adv-x="796" d="M827 893l-419 -438l288 -455h-14l-283 446l-434 -446h-16l444 457l-272 436h14l266 -428l412 428h14z" />
<glyph unicode="y" horiz-adv-x="843" d="M127 893l192 -885l549 885h15l-783 -1262h-14l223 363l-194 899h12z" />
<glyph unicode="z" horiz-adv-x="757" d="M659 12l-2 -12h-686l2 10l803 871h-622l2 12h641l-2 -10l-801 -871h665z" />
<glyph unicode="{" horiz-adv-x="653" d="M420 1110l-58 -328q-19 -107 -76.5 -166t-117.5 -61q48 -3 84.5 -46t36.5 -120q0 -59 -36 -241.5t-36 -233.5q0 -92 51 -138t162 -46h27l-2 -13h-27q-116 0 -169.5 49t-53.5 148q0 52 35.5 234t35.5 239q0 79 -39 120.5t-96 41.5h-69l2 12h69q68 0 128 57t79 164l58 328 q24 141 99 212t216 71h27l-2 -13h-27q-134 0 -205.5 -67.5t-95.5 -202.5z" />
<glyph unicode="|" horiz-adv-x="380" d="M51 -283l295 1676h12l-295 -1676h-12z" />
<glyph unicode="}" horiz-adv-x="653" d="M268 0l58 328q19 107 76.5 166t117.5 61q-48 3 -84.5 46t-36.5 120q0 59 36 241.5t36 233.5q0 92 -51 138t-162 46h-27l2 13h27q116 0 169.5 -49t53.5 -148q0 -52 -35.5 -234t-35.5 -239q0 -79 39 -120.5t96 -41.5h69l-2 -12h-69q-68 0 -128 -57t-79 -164l-57 -328 q-24 -141 -99.5 -212t-216.5 -71h-26l2 13h26q134 0 205.5 67.5t95.5 202.5z" />
<glyph unicode="~" horiz-adv-x="702" d="M641 598h12q-11 -66 -54.5 -109t-109.5 -43q-37 0 -65.5 15t-47.5 37t-37.5 44t-45 37t-60.5 15q-62 0 -102 -39.5t-49 -99.5h-12q11 66 54 108.5t109 42.5q36 0 64 -15t47 -37t37.5 -43.5t45.5 -36.5t62 -15q62 0 101.5 39t50.5 100z" />
<glyph unicode="&#xa1;" d="M23 -326l153 873h12l-153 -873h-12zM254 872q0 -20 -21 -20q-20 0 -20 20q0 21 20 21q9 0 15 -6t6 -15z" />
<glyph unicode="&#xa2;" horiz-adv-x="890" d="M377 -195l33 189q-157 20 -249.5 131t-92.5 278q0 138 57.5 251t169.5 181t258 68h18l33 178h12l-32 -178q159 -13 256 -125l-4 -12q-102 115 -254 125l-158 -887q16 -2 51 -2q78 0 154.5 20.5t130.5 55.5v-15q-115 -73 -285 -73q-37 0 -53 2l-33 -187h-12zM569 891h-16 q-142 0 -251.5 -66.5t-165.5 -176.5t-56 -245q0 -162 91 -269.5t241 -127.5z" />
<glyph unicode="&#xa3;" horiz-adv-x="849" d="M864 1116l-4 -16q-74 117 -235 117q-278 0 -344 -363l-45 -258h360l-2 -12h-361l-30 -172q-24 -132 -76.5 -222.5t-149.5 -177.5h754l-2 -12h-770l2 12q102 93 153.5 180.5t75.5 219.5l31 172h-145l2 12h145l45 258q65 375 359 375q159 0 237 -113z" />
<glyph unicode="&#xa4;" horiz-adv-x="897" d="M430 309q151 0 244.5 97.5t93.5 244.5q0 122 -82.5 206.5t-208.5 84.5q-151 0 -244.5 -97.5t-93.5 -244.5q0 -122 82.5 -206.5t208.5 -84.5zM739 250l-100 115q-90 -68 -209 -68q-124 0 -207 74l-133 -119l-8 8l133 119q-88 85 -88 221q0 84 34.5 156.5t96.5 122.5 l-100 114l10 8l100 -114q89 67 209 67q125 0 207 -73l133 118l8 -8l-133 -119q88 -85 88 -221q0 -84 -34.5 -156t-96.5 -122l101 -115z" />
<glyph unicode="&#xa5;" horiz-adv-x="907" d="M150 524l2 13h268l-295 682h14l287 -672l528 672h15l-537 -682h273l-3 -13h-272l-27 -151h273l-2 -13h-273l-61 -360h-12l61 360h-268l2 13h268l27 151h-268z" />
<glyph unicode="&#xa6;" horiz-adv-x="380" d="M223 694l123 699h12l-122 -699h-13zM51 -283l123 699h12l-123 -699h-12z" />
<glyph unicode="&#xa7;" horiz-adv-x="772" d="M713 1137l-2 -15q-39 43 -101 69t-131 26q-119 0 -189.5 -61.5t-70.5 -160.5q0 -86 49 -136t185 -116q55 -26 89.5 -46.5t69.5 -50.5t51.5 -68t16.5 -86q0 -100 -73.5 -163.5t-188.5 -68.5q84 -47 119.5 -95.5t35.5 -121.5q0 -107 -73.5 -171.5t-198.5 -64.5 q-70 0 -132 25.5t-101 67.5l2 14q39 -42 100.5 -68t130.5 -26q119 0 189.5 61t70.5 160q0 86 -49 136t-184 116q-43 20 -72 36t-61.5 39.5t-51 47.5t-31 57t-12.5 72q0 100 73.5 163t188.5 68q-84 47 -119.5 95.5t-35.5 121.5q0 107 73.5 171.5t198.5 64.5q71 0 133 -25 t101 -67zM330 305l69 -35q118 2 193.5 62t75.5 160q0 45 -15.5 81t-48.5 64.5t-66 48t-87 45.5l-70 35q-118 -2 -193 -62t-75 -159q0 -45 15.5 -81t48.5 -64.5t66 -48.5t87 -46z" />
<glyph unicode="&#xa8;" horiz-adv-x="1024" d="M369 1169q-9 0 -15 6t-6 15q0 20 21 20q20 0 20 -20q0 -21 -20 -21zM655 1169q-20 0 -20 21q0 20 20 20q21 0 21 -20q0 -9 -6 -15t-15 -6z" />
<glyph unicode="&#xa9;" horiz-adv-x="1429" d="M696 -10q-253 0 -415 162.5t-162 410.5q0 138 50.5 261t137.5 212t208.5 141t258.5 52q253 0 415.5 -163t162.5 -411q0 -184 -86 -336.5t-236.5 -240.5t-333.5 -88zM696 2q135 0 254.5 51t204.5 138t134.5 207.5t49.5 256.5q0 160 -71.5 288t-201 201t-292.5 73 q-180 0 -327.5 -86.5t-231.5 -236.5t-84 -331q0 -159 71.5 -287t201 -201t292.5 -73zM1034 909l-4 -12q-42 42 -105.5 66t-136.5 24q-177 0 -288 -116.5t-111 -297.5q0 -156 95 -246.5t247 -90.5q141 0 240 71l-2 -14q-103 -70 -238 -70q-158 0 -256 94t-98 256 q0 187 114 306.5t297 119.5q149 0 246 -90z" />
<glyph unicode="&#xaa;" horiz-adv-x="628" d="M223 1159v12q104 58 226 58q97 0 148.5 -42.5t51.5 -127.5q0 -26 -8 -72l-82 -467q-101 -26 -176 -26q-137 0 -215 50t-78 150q0 199 389 199h133l17 96q8 46 8 70q0 78 -48.5 118t-139.5 40q-117 0 -226 -58zM610 881h-131q-377 0 -377 -187q0 -93 75 -140.5t206 -47.5 q67 0 166 24z" />
<glyph unicode="&#xab;" horiz-adv-x="630" d="M399 764l-309 -324l195 -323h-15l-196 323l309 324h16zM600 764l-309 -324l194 -323h-14l-197 323l310 324h16z" />
<glyph unicode="&#xad;" horiz-adv-x="727" d="M129 526l2 13h465l-2 -13h-465z" />
<glyph unicode="&#xae;" horiz-adv-x="931" d="M549 1229q159 0 261.5 -103.5t102.5 -257.5q0 -175 -118.5 -295t-294.5 -120q-160 0 -262.5 103t-102.5 257q0 175 119 295.5t295 120.5zM549 1217q-171 0 -286.5 -116.5t-115.5 -287.5q0 -149 99.5 -248.5t253.5 -99.5q171 0 286 116t115 287q0 149 -99 249t-253 100z M428 807l-31 -174h-12l74 414q41 6 65 6q135 0 135 -113q0 -56 -44 -91t-99 -40l133 -176h-14l-131 174h-76zM469 1036l-39 -219h64q59 0 106 34t47 89q0 100 -123 100q-27 0 -55 -4z" />
<glyph unicode="&#xaf;" horiz-adv-x="1024" d="M334 1147l2 12h354l-2 -12h-354z" />
<glyph unicode="&#xb0;" horiz-adv-x="512" d="M328 1227q87 0 140.5 -53t53.5 -134q0 -93 -61.5 -156t-157.5 -63q-87 0 -140.5 53t-53.5 134q0 93 61.5 156t157.5 63zM328 1214q-90 0 -148.5 -59t-58.5 -147q0 -76 50.5 -125t131.5 -49q90 0 148.5 59t58.5 147q0 76 -50.5 125t-131.5 49z" />
<glyph unicode="&#xb1;" horiz-adv-x="843" d="M442 680h-333l2 12h335l48 273h12l-47 -273h332l-3 -12h-333l-47 -272h-13zM37 270l2 13h680l-2 -13h-680z" />
<glyph unicode="&#xb2;" horiz-adv-x="413" d="M49 612h344l-2 -12h-362v12q177 107 291 236.5t114 234.5q0 60 -31 93.5t-90 33.5q-100 0 -188 -98v16q88 95 188 95q65 0 99 -38t34 -102q0 -108 -113.5 -238t-283.5 -233z" />
<glyph unicode="&#xb3;" horiz-adv-x="407" d="M127 1122l2 17q77 84 180 84q67 0 102 -36.5t35 -92.5q0 -76 -54.5 -123.5t-133.5 -52.5q62 -5 107 -44t45 -100q0 -82 -58 -131t-151 -49q-54 0 -97 20t-63 50l2 14q53 -72 158 -72q89 0 142.5 46t53.5 122q0 60 -49 98.5t-125 38.5l2 13q90 0 149.5 47t59.5 123 q0 49 -32 82.5t-93 33.5q-101 0 -182 -88z" />
<glyph unicode="&#xb4;" horiz-adv-x="1024" d="M403 1051h-14l229 311h15z" />
<glyph unicode="&#xb5;" horiz-adv-x="954" d="M98 227l-102 -596h-12l221 1262h12l-94 -537q-14 -83 -14 -129q0 -225 309 -225q158 0 309 47l147 844h13l-150 -854q-158 -49 -319 -49q-320 0 -320 237z" />
<glyph unicode="&#xb6;" horiz-adv-x="641" d="M354 -217l252 1436h12l-251 -1436h-13zM209 -217l170 971q-108 0 -178 60t-70 151q0 128 92.5 191t237.5 63h12l-252 -1436h-12z" />
<glyph unicode="&#xb7;" d="M154 535q0 20 20 20q21 0 21 -20q0 -9 -6 -15t-15 -6q-20 0 -20 21z" />
<glyph unicode="&#xb8;" horiz-adv-x="1024" d="M606 0h12q-17 -88 -69.5 -167.5t-126.5 -135.5h-19q80 59 133 137.5t70 165.5z" />
<glyph unicode="&#xb9;" horiz-adv-x="329" d="M137 1178l2 12l170 33l-110 -623h-13l109 608z" />
<glyph unicode="&#xba;" horiz-adv-x="794" d="M428 494q-142 0 -233 94t-91 237q0 171 103.5 287.5t275.5 116.5q142 0 233 -94.5t91 -237.5q0 -171 -103.5 -287t-275.5 -116zM428 506q167 0 267 111.5t100 279.5q0 138 -87.5 229t-224.5 91q-167 0 -266.5 -112t-99.5 -280q0 -138 87 -228.5t224 -90.5z" />
<glyph unicode="&#xbb;" horiz-adv-x="630" d="M29 117l309 323l-195 324h15l196 -324l-309 -323h-16zM229 117l310 323l-195 324h14l197 -324l-309 -323h-17z" />
<glyph unicode="&#xbc;" horiz-adv-x="972" d="M793 625l-76 -432h104l-2 -13h-104l-33 -180h-12l32 180h-340l3 13l413 432h15zM778 608l-397 -415h324zM197 1178l2 12l170 33l-111 -623h-12l108 608zM-4 0l903 1219h14l-903 -1219h-14z" />
<glyph unicode="&#xbd;" horiz-adv-x="1026" d="M197 1178l2 12l170 33l-111 -623h-12l108 608zM514 12h344l-2 -12h-362v12q177 107 291 236.5t114 234.5q0 60 -31 93.5t-90 33.5q-100 0 -188 -98v16q88 95 188 95q65 0 99 -38t34 -102q0 -108 -113.5 -238t-283.5 -233zM-4 0l903 1219h14l-903 -1219h-14z" />
<glyph unicode="&#xbe;" horiz-adv-x="1107" d="M207 1122l2 17q77 84 180 84q67 0 102 -36.5t35 -92.5q0 -76 -54.5 -123.5t-133.5 -52.5q62 -5 106.5 -43.5t44.5 -100.5q0 -82 -57.5 -131t-150.5 -49q-54 0 -97 20t-63 50l2 14q53 -72 158 -72q89 0 142.5 46t53.5 122q0 60 -49 98.5t-125 38.5l2 13q90 0 149.5 47 t59.5 123q0 49 -32 82.5t-93 33.5q-101 0 -182 -88zM928 625l-76 -432h104l-2 -13h-104l-33 -180h-12l33 180h-340l2 13l413 432h15zM913 608l-397 -415h324zM131 0l903 1219h15l-904 -1219h-14z" />
<glyph unicode="&#xbf;" horiz-adv-x="741" d="M647 -182l-4 -21q-129 -133 -313 -133q-144 0 -224.5 87t-80.5 210q0 76 23.5 139t61.5 107.5t98.5 82t122 62.5t144.5 51l27 144h12l-29 -154q-83 -26 -144 -50.5t-121.5 -61.5t-98 -80t-61 -104t-23.5 -136q0 -115 77 -200t216 -85q178 0 317 142zM578 872 q0 -20 -21 -20q-20 0 -20 20q0 21 20 21q9 0 15 -6t6 -15z" />
<glyph unicode="&#xc0;" horiz-adv-x="1155" d="M1036 0l-100 381h-739l-232 -381h-14l749 1229h19l330 -1229h-13zM709 1219l-504 -826h727zM725 1325h-12l-109 268h12z" />
<glyph unicode="&#xc1;" horiz-adv-x="1155" d="M1036 0l-100 381h-739l-232 -381h-14l749 1229h19l330 -1229h-13zM709 1219l-504 -826h727zM733 1325h-14l196 268h15z" />
<glyph unicode="&#xc2;" horiz-adv-x="1155" d="M1036 0l-100 381h-739l-232 -381h-14l749 1229h19l330 -1229h-13zM709 1219l-504 -826h727zM772 1583l152 -270h-13l-143 254l-236 -254h-14l250 270h4z" />
<glyph unicode="&#xc3;" horiz-adv-x="1155" d="M1036 0l-100 381h-739l-232 -381h-14l749 1229h19l330 -1229h-13zM709 1219l-504 -826h727zM954 1466h13q-11 -66 -45.5 -108.5t-85.5 -42.5q-34 0 -60 23t-40 50.5t-37.5 50.5t-53.5 23q-44 0 -77 -40t-42 -99h-12q11 66 46 109t85 43q28 0 49 -15t35.5 -37t28 -44 t33.5 -37t45 -15q44 0 75.5 39.5t42.5 99.5z" />
<glyph unicode="&#xc4;" horiz-adv-x="1155" d="M1036 0l-100 381h-739l-232 -381h-14l749 1229h19l330 -1229h-13zM709 1219l-504 -826h727zM594 1362q-21 0 -21 20q0 9 6 15t15 6q20 0 20 -21q0 -20 -20 -20zM881 1362q-21 0 -21 20q0 9 6 15t15 6q20 0 20 -21q0 -20 -20 -20z" />
<glyph unicode="&#xc5;" horiz-adv-x="1155" d="M1036 0l-100 381h-739l-232 -381h-14l749 1229h19l330 -1229h-13zM709 1219l-504 -826h727zM731 1270q-62 0 -99.5 38t-37.5 95q0 66 44 107.5t107 41.5q62 0 100 -38t38 -95q0 -66 -44.5 -107.5t-107.5 -41.5zM731 1282q58 0 98.5 38.5t40.5 98.5q0 52 -34.5 86.5 t-90.5 34.5q-58 0 -98.5 -38.5t-40.5 -98.5q0 -52 34.5 -86.5t90.5 -34.5z" />
<glyph unicode="&#xc6;" horiz-adv-x="1753" d="M1579 0h-655l67 387h-647l-375 -387h-18l1182 1219h651l-2 -13h-633l-102 -577h608l-2 -13h-609l-106 -604h643zM1137 1206l-781 -807h637z" />
<glyph unicode="&#xc7;" horiz-adv-x="1157" d="M451 -303h-19q162 119 201 293q-234 9 -383.5 162t-149.5 395q0 140 46 264.5t128.5 217t205.5 146.5t268 54q120 0 220 -43t169 -113l-4 -14q-67 71 -167 114.5t-218 43.5q-189 0 -335.5 -91t-223 -242.5t-76.5 -336.5q0 -243 155 -394t394 -151q229 0 395 121l-2 -17 q-166 -116 -393 -116h-17q-18 -86 -70 -162.5t-124 -130.5z" />
<glyph unicode="&#xc8;" horiz-adv-x="905" d="M90 12h643l-2 -12h-655l215 1219h645l-2 -13h-633l-102 -577h608l-2 -13h-608zM659 1325h-12l-108 268h12z" />
<glyph unicode="&#xc9;" horiz-adv-x="905" d="M90 12h643l-2 -12h-655l215 1219h645l-2 -13h-633l-102 -577h608l-2 -13h-608zM657 1325h-14l197 268h14z" />
<glyph unicode="&#xca;" horiz-adv-x="905" d="M90 12h643l-2 -12h-655l215 1219h645l-2 -13h-633l-102 -577h608l-2 -13h-608zM694 1583l152 -270h-12l-144 254l-235 -254h-15l250 270h4z" />
<glyph unicode="&#xcb;" horiz-adv-x="905" d="M90 12h643l-2 -12h-655l215 1219h645l-2 -13h-633l-102 -577h608l-2 -13h-608zM516 1362q-20 0 -20 20q0 21 20 21q9 0 15 -6t6 -15q0 -20 -21 -20zM803 1362q-21 0 -21 20q0 9 6 15t15 6q20 0 20 -21q0 -20 -20 -20z" />
<glyph unicode="&#xcc;" d="M303 1219l-215 -1219h-12l215 1219h12zM324 1325h-13l-108 268h12z" />
<glyph unicode="&#xcd;" d="M303 1219l-215 -1219h-12l215 1219h12zM322 1325h-15l197 268h14z" />
<glyph unicode="&#xce;" d="M303 1219l-215 -1219h-12l215 1219h12zM358 1583l152 -270h-12l-144 254l-235 -254h-15l250 270h4z" />
<glyph unicode="&#xcf;" d="M303 1219l-215 -1219h-12l215 1219h12zM182 1362q-20 0 -20 20q0 21 20 21q9 0 15 -6t6 -15q0 -20 -21 -20zM469 1362q-20 0 -20 20q0 21 20 21t20 -21q0 -20 -20 -20z" />
<glyph unicode="&#xd0;" horiz-adv-x="1220" d="M184 618h-143l2 13h143l103 581q133 17 246 17q137 0 251 -34.5t198.5 -101t131.5 -172.5t47 -241q0 -144 -41 -260.5t-112 -195.5t-169.5 -132.5t-212 -77.5t-241.5 -24q-193 0 -305 41zM197 618l-101 -579q113 -37 291 -37q126 0 237.5 23.5t209 76t167.5 130.5 t110 192.5t40 255.5q0 132 -46 235.5t-129 168.5t-194.5 99t-246.5 34q-122 0 -236 -15l-100 -571h321l-2 -13h-321z" />
<glyph unicode="&#xd1;" horiz-adv-x="1232" d="M303 1229l678 -1219l213 1209h12l-217 -1229h-10l-678 1218l-213 -1208h-12l217 1229h10zM1012 1466h12q-11 -66 -45.5 -108.5t-85.5 -42.5q-34 0 -60 23t-40 50.5t-37.5 50.5t-53.5 23q-44 0 -76.5 -40t-41.5 -99h-13q11 66 46 109t85 43q28 0 49 -15t35.5 -37t28 -44 t33.5 -37t45 -15q44 0 76 39.5t43 99.5z" />
<glyph unicode="&#xd2;" horiz-adv-x="1363" d="M662 -10q-246 0 -404 152t-158 401q0 140 46 265t128.5 218.5t205.5 148t268 54.5q246 0 403.5 -152t157.5 -401q0 -140 -46 -265t-128 -218.5t-205 -148t-268 -54.5zM662 2q142 0 262.5 53.5t201 145t125.5 214.5t45 261q0 243 -154.5 392t-393.5 149q-189 0 -335.5 -92 t-223 -244.5t-76.5 -337.5q0 -243 155 -392t394 -149zM823 1325h-12l-109 268h13z" />
<glyph unicode="&#xd3;" horiz-adv-x="1363" d="M662 -10q-246 0 -404 152t-158 401q0 140 46 265t128.5 218.5t205.5 148t268 54.5q246 0 403.5 -152t157.5 -401q0 -140 -46 -265t-128 -218.5t-205 -148t-268 -54.5zM662 2q142 0 262.5 53.5t201 145t125.5 214.5t45 261q0 243 -154.5 392t-393.5 149q-189 0 -335.5 -92 t-223 -244.5t-76.5 -337.5q0 -243 155 -392t394 -149zM821 1325h-14l197 268h14z" />
<glyph unicode="&#xd4;" horiz-adv-x="1363" d="M662 -10q-246 0 -404 152t-158 401q0 140 46 265t128.5 218.5t205.5 148t268 54.5q246 0 403.5 -152t157.5 -401q0 -140 -46 -265t-128 -218.5t-205 -148t-268 -54.5zM662 2q142 0 262.5 53.5t201 145t125.5 214.5t45 261q0 243 -154.5 392t-393.5 149q-189 0 -335.5 -92 t-223 -244.5t-76.5 -337.5q0 -243 155 -392t394 -149zM858 1583l152 -270h-13l-143 254l-236 -254h-14l250 270h4z" />
<glyph unicode="&#xd5;" horiz-adv-x="1363" d="M662 -10q-246 0 -404 152t-158 401q0 140 46 265t128.5 218.5t205.5 148t268 54.5q246 0 403.5 -152t157.5 -401q0 -140 -46 -265t-128 -218.5t-205 -148t-268 -54.5zM662 2q142 0 262.5 53.5t201 145t125.5 214.5t45 261q0 243 -154.5 392t-393.5 149q-189 0 -335.5 -92 t-223 -244.5t-76.5 -337.5q0 -243 155 -392t394 -149zM1040 1466h13q-11 -66 -45.5 -108.5t-85.5 -42.5q-34 0 -60 23t-40 50.5t-37.5 50.5t-53.5 23q-44 0 -77 -40t-42 -99h-12q11 66 46 109t85 43q28 0 49 -15t35.5 -37t28 -44t33.5 -37t45 -15q44 0 75.5 39.5t42.5 99.5z " />
<glyph unicode="&#xd6;" horiz-adv-x="1363" d="M662 -10q-246 0 -404 152t-158 401q0 140 46 265t128.5 218.5t205.5 148t268 54.5q246 0 403.5 -152t157.5 -401q0 -140 -46 -265t-128 -218.5t-205 -148t-268 -54.5zM662 2q142 0 262.5 53.5t201 145t125.5 214.5t45 261q0 243 -154.5 392t-393.5 149q-189 0 -335.5 -92 t-223 -244.5t-76.5 -337.5q0 -243 155 -392t394 -149zM680 1362q-21 0 -21 20q0 9 6 15t15 6q20 0 20 -21q0 -20 -20 -20zM967 1362q-21 0 -21 20q0 9 6 15t15 6q20 0 20 -21q0 -20 -20 -20z" />
<glyph unicode="&#xd7;" horiz-adv-x="679" d="M344 602l-205 254l8 8l207 -254l293 254l8 -10l-295 -254l205 -254l-8 -8l-207 254l-293 -254l-8 10z" />
<glyph unicode="&#xd8;" horiz-adv-x="1363" d="M1327 1219l-160 -158q142 -148 142 -385q0 -140 -46 -265t-128 -218.5t-205 -148t-268 -54.5q-255 0 -412 160l-152 -150h-16l160 158q-142 148 -142 385q0 140 46 265t128.5 218.5t205.5 148t268 54.5q254 0 411 -160l152 150h16zM250 166l901 895q-153 156 -403 156 q-189 0 -335.5 -92t-223 -244.5t-76.5 -337.5q0 -227 137 -377zM1159 1053l-901 -895q153 -156 404 -156q142 0 262.5 53.5t201 145t125.5 214.5t45 261q0 227 -137 377z" />
<glyph unicode="&#xd9;" horiz-adv-x="1177" d="M117 418l141 801h12l-141 -801q-10 -51 -10 -113q0 -87 31 -148t90.5 -94t133 -47t171.5 -14q172 0 387 43l207 1174h12l-209 -1184q-245 -45 -397 -45q-102 0 -179 15.5t-137.5 50.5t-91.5 97.5t-31 151.5q0 49 11 113zM733 1325h-12l-109 268h13z" />
<glyph unicode="&#xda;" horiz-adv-x="1177" d="M117 418l141 801h12l-141 -801q-10 -51 -10 -113q0 -87 31 -148t90.5 -94t133 -47t171.5 -14q172 0 387 43l207 1174h12l-209 -1184q-245 -45 -397 -45q-102 0 -179 15.5t-137.5 50.5t-91.5 97.5t-31 151.5q0 49 11 113zM729 1325h-14l196 268h15z" />
<glyph unicode="&#xdb;" horiz-adv-x="1177" d="M117 418l141 801h12l-141 -801q-10 -51 -10 -113q0 -87 31 -148t90.5 -94t133 -47t171.5 -14q172 0 387 43l207 1174h12l-209 -1184q-245 -45 -397 -45q-102 0 -179 15.5t-137.5 50.5t-91.5 97.5t-31 151.5q0 49 11 113zM768 1583l152 -270h-13l-143 254l-236 -254h-14 l250 270h4z" />
<glyph unicode="&#xdc;" horiz-adv-x="1177" d="M117 418l141 801h12l-141 -801q-10 -51 -10 -113q0 -87 31 -148t90.5 -94t133 -47t171.5 -14q172 0 387 43l207 1174h12l-209 -1184q-245 -45 -397 -45q-102 0 -179 15.5t-137.5 50.5t-91.5 97.5t-31 151.5q0 49 11 113zM590 1362q-21 0 -21 20q0 9 6 15t15 6 q20 0 20 -21q0 -20 -20 -20zM877 1362q-21 0 -21 20q0 9 6 15t15 6q20 0 20 -21q0 -20 -20 -20z" />
<glyph unicode="&#xdd;" horiz-adv-x="987" d="M498 514l569 705h16l-581 -721l-88 -498h-13l88 500l-331 719h14zM649 1325h-14l196 268h15z" />
<glyph unicode="&#xde;" horiz-adv-x="874" d="M135 268l-47 -268h-12l215 1219h12l-43 -242q66 10 176 10q202 0 304 -86.5t102 -253.5q0 -97 -39 -173.5t-107.5 -124t-157 -72.5t-190.5 -25q-139 0 -213 16zM258 965l-121 -684q74 -17 211 -17q134 0 241 41.5t173.5 129.5t66.5 212q0 160 -97.5 244t-295.5 84 q-103 0 -178 -10z" />
<glyph unicode="&#xdf;" horiz-adv-x="962" d="M72 0l190 1079q26 150 111.5 240t228.5 90q104 0 174 -65.5t70 -165.5q0 -59 -27.5 -110.5t-66.5 -88t-78 -71t-66.5 -75.5t-27.5 -85q0 -46 31 -89t75 -80t87.5 -77.5t74.5 -98t31 -124.5q0 -129 -88 -209t-226 -80q-155 0 -256 96l2 16q100 -100 254 -100 q130 0 215.5 77t85.5 200q0 55 -22 103.5t-55.5 83t-72 70t-72 65t-55.5 68.5t-22 79q0 39 20 76t49.5 64.5t64 60t64 63t49.5 74.5t20 92q0 93 -67.5 156t-164.5 63q-139 0 -221 -87t-107 -231l-190 -1079h-12z" />
<glyph unicode="&#xe0;" horiz-adv-x="835" d="M213 819v12q55 32 132 52t147 20q120 0 183.5 -54t63.5 -163q0 -32 -6 -72l-104 -591q-123 -33 -219 -33q-168 0 -265.5 63t-97.5 185q0 249 483 249h168l23 129q6 37 6 70q0 205 -235 205q-68 0 -146 -21t-133 -51zM696 475h-166q-471 0 -471 -237q0 -116 94 -176 t257 -60q81 0 208 31zM555 1051h-12l-125 311h12z" />
<glyph unicode="&#xe1;" horiz-adv-x="835" d="M213 819v12q55 32 132 52t147 20q120 0 183.5 -54t63.5 -163q0 -32 -6 -72l-104 -591q-123 -33 -219 -33q-168 0 -265.5 63t-97.5 185q0 249 483 249h168l23 129q6 37 6 70q0 205 -235 205q-68 0 -146 -21t-133 -51zM696 475h-166q-471 0 -471 -237q0 -116 94 -176 t257 -60q81 0 208 31zM553 1051h-14l229 311h14z" />
<glyph unicode="&#xe2;" horiz-adv-x="835" d="M213 819v12q55 32 132 52t147 20q120 0 183.5 -54t63.5 -163q0 -32 -6 -72l-104 -591q-123 -33 -219 -33q-168 0 -265.5 63t-97.5 185q0 249 483 249h168l23 129q6 37 6 70q0 205 -235 205q-68 0 -146 -21t-133 -51zM696 475h-166q-471 0 -471 -237q0 -116 94 -176 t257 -60q81 0 208 31zM592 1325l151 -270h-12l-143 254l-236 -254h-14l250 270h4z" />
<glyph unicode="&#xe3;" horiz-adv-x="835" d="M213 819v12q55 32 132 52t147 20q120 0 183.5 -54t63.5 -163q0 -32 -6 -72l-104 -591q-123 -33 -219 -33q-168 0 -265.5 63t-97.5 185q0 249 483 249h168l23 129q6 37 6 70q0 205 -235 205q-68 0 -146 -21t-133 -51zM696 475h-166q-471 0 -471 -237q0 -116 94 -176 t257 -60q81 0 208 31zM776 1212h12q-11 -66 -45.5 -108.5t-85.5 -42.5q-34 0 -60 23t-39.5 50.5t-37 50.5t-53.5 23q-44 0 -77 -40t-42 -99h-12q11 66 46 109t85 43q33 0 58.5 -23t39.5 -51t37.5 -51t54.5 -23q44 0 76 39.5t43 99.5z" />
<glyph unicode="&#xe4;" horiz-adv-x="835" d="M213 819v12q55 32 132 52t147 20q120 0 183.5 -54t63.5 -163q0 -32 -6 -72l-104 -591q-123 -33 -219 -33q-168 0 -265.5 63t-97.5 185q0 249 483 249h168l23 129q6 37 6 70q0 205 -235 205q-68 0 -146 -21t-133 -51zM696 475h-166q-471 0 -471 -237q0 -116 94 -176 t257 -60q81 0 208 31zM426 1169q-20 0 -20 21q0 20 20 20t20 -20q0 -21 -20 -21zM713 1169q-9 0 -15 6t-6 15q0 20 21 20q20 0 20 -20q0 -21 -20 -21z" />
<glyph unicode="&#xe5;" horiz-adv-x="835" d="M213 819v12q55 32 132 52t147 20q120 0 183.5 -54t63.5 -163q0 -32 -6 -72l-104 -591q-123 -33 -219 -33q-168 0 -265.5 63t-97.5 185q0 249 483 249h168l23 129q6 37 6 70q0 205 -235 205q-68 0 -146 -21t-133 -51zM696 475h-166q-471 0 -471 -237q0 -116 94 -176 t257 -60q81 0 208 31zM565 1057q-62 0 -99.5 38t-37.5 95q0 66 44.5 107.5t107.5 41.5q62 0 99.5 -38t37.5 -95q0 -66 -44.5 -107.5t-107.5 -41.5zM565 1069q58 0 99 38.5t41 98.5q0 52 -34.5 86.5t-90.5 34.5q-58 0 -99 -38.5t-41 -98.5q0 -52 34.5 -86.5t90.5 -34.5z" />
<glyph unicode="&#xe6;" horiz-adv-x="1437" d="M1372 469h-745q-4 -35 -4 -66q0 -178 108 -289.5t293 -111.5q78 0 154.5 20.5t130.5 55.5v-15q-115 -73 -285 -73q-117 0 -205.5 45t-140.5 125q-49 -74 -139 -122t-201 -48q-129 0 -210 61t-81 172q0 54 19 96.5t54.5 70t79 46t101 28t111 13.5t118.5 4h86 q18 129 84 230q-6 180 -233 180q-68 0 -146 -21t-133 -51v12q55 32 132 52t147 20q110 0 175 -44.5t69 -133.5q61 85 151.5 131.5t202.5 46.5q89 0 153 -28t99 -77.5t51 -107.5t16 -127q0 -64 -12 -94zM629 481h735q8 27 8 82q0 67 -15.5 123t-49 103.5t-95.5 74.5t-147 27 q-173 0 -292 -113.5t-144 -296.5zM614 469h-84q-63 0 -115 -3.5t-108.5 -12.5t-98.5 -27t-77 -44.5t-53.5 -66.5t-18.5 -92q0 -103 78 -162t201 -59q109 0 197.5 47t134.5 123q-60 102 -60 231q0 29 4 66z" />
<glyph unicode="&#xe7;" horiz-adv-x="860" d="M760 78v-15q-112 -73 -279 -73q-18 -86 -70 -162.5t-124 -130.5h-19q78 58 130 133.5t71 159.5q-181 1 -291 115t-110 298q0 211 131.5 355.5t345.5 144.5q189 0 295 -127l-4 -12q-113 127 -291 127q-139 0 -246 -66.5t-163 -177t-56 -244.5q0 -179 108.5 -290 t286.5 -111q78 0 154.5 20.5t130.5 55.5z" />
<glyph unicode="&#xe8;" horiz-adv-x="923" d="M766 78v-15q-115 -73 -285 -73q-190 0 -301.5 113.5t-111.5 293.5q0 140 57 255t163.5 183t241.5 68q93 0 161.5 -28t106 -77.5t55 -107.5t17.5 -127q0 -60 -12 -90h-774q-4 -29 -4 -76q0 -174 108.5 -284.5t292.5 -110.5q78 0 154.5 20.5t130.5 55.5zM86 485h764 q8 27 8 78q0 67 -17 123t-53.5 103.5t-102.5 74.5t-155 27q-176 0 -296.5 -114t-147.5 -292zM584 1051h-13l-125 311h13z" />
<glyph unicode="&#xe9;" horiz-adv-x="923" d="M766 78v-15q-115 -73 -285 -73q-190 0 -301.5 113.5t-111.5 293.5q0 140 57 255t163.5 183t241.5 68q93 0 161.5 -28t106 -77.5t55 -107.5t17.5 -127q0 -60 -12 -90h-774q-4 -29 -4 -76q0 -174 108.5 -284.5t292.5 -110.5q78 0 154.5 20.5t130.5 55.5zM86 485h764 q8 27 8 78q0 67 -17 123t-53.5 103.5t-102.5 74.5t-155 27q-176 0 -296.5 -114t-147.5 -292zM584 1051h-15l230 311h14z" />
<glyph unicode="&#xea;" horiz-adv-x="923" d="M766 78v-15q-115 -73 -285 -73q-190 0 -301.5 113.5t-111.5 293.5q0 140 57 255t163.5 183t241.5 68q93 0 161.5 -28t106 -77.5t55 -107.5t17.5 -127q0 -60 -12 -90h-774q-4 -29 -4 -76q0 -174 108.5 -284.5t292.5 -110.5q78 0 154.5 20.5t130.5 55.5zM86 485h764 q8 27 8 78q0 67 -17 123t-53.5 103.5t-102.5 74.5t-155 27q-176 0 -296.5 -114t-147.5 -292zM623 1325l151 -270h-12l-144 254l-235 -254h-14l249 270h5z" />
<glyph unicode="&#xeb;" horiz-adv-x="923" d="M766 78v-15q-115 -73 -285 -73q-190 0 -301.5 113.5t-111.5 293.5q0 140 57 255t163.5 183t241.5 68q93 0 161.5 -28t106 -77.5t55 -107.5t17.5 -127q0 -60 -12 -90h-774q-4 -29 -4 -76q0 -174 108.5 -284.5t292.5 -110.5q78 0 154.5 20.5t130.5 55.5zM86 485h764 q8 27 8 78q0 67 -17 123t-53.5 103.5t-102.5 74.5t-155 27q-176 0 -296.5 -114t-147.5 -292zM457 1169q-9 0 -15 6t-6 15q0 20 21 20q20 0 20 -20q0 -21 -20 -21zM743 1169q-20 0 -20 21q0 20 20 20q21 0 21 -20q0 -9 -6 -15t-15 -6z" />
<glyph unicode="&#xec;" horiz-adv-x="307" d="M242 893l-158 -893h-12l157 893h13zM270 1051h-12l-125 311h12z" />
<glyph unicode="&#xed;" horiz-adv-x="307" d="M242 893l-158 -893h-12l157 893h13zM270 1051h-14l229 311h15z" />
<glyph unicode="&#xee;" horiz-adv-x="307" d="M242 893l-158 -893h-12l157 893h13zM309 1325l152 -270h-12l-144 254l-235 -254h-15l250 270h4z" />
<glyph unicode="&#xef;" horiz-adv-x="307" d="M242 893l-158 -893h-12l157 893h13zM143 1169q-20 0 -20 21q0 20 20 20q21 0 21 -20q0 -9 -6 -15t-15 -6zM430 1169q-20 0 -20 21q0 20 20 20q21 0 21 -20q0 -9 -6 -15t-15 -6z" />
<glyph unicode="&#xf0;" horiz-adv-x="1015" d="M700 1133l-358 -99v13l350 96q-103 123 -264 250h21q147 -114 258 -246l219 59v-12l-211 -57q233 -289 233 -643q0 -103 -33.5 -194.5t-93.5 -160.5t-150.5 -109t-197.5 -40q-176 0 -290.5 117.5t-114.5 295.5q0 103 33.5 194t93.5 159t150.5 107.5t197.5 39.5 q145 0 246 -77t139 -195q-41 269 -228 502zM473 2q139 0 245.5 67.5t162 178.5t55.5 246q0 171 -111.5 284t-281.5 113q-208 0 -335.5 -140.5t-127.5 -347.5q0 -171 112 -286t281 -115z" />
<glyph unicode="&#xf1;" horiz-adv-x="989" d="M766 0h-12l96 537q12 71 12 129q0 116 -70.5 170.5t-211.5 54.5q-134 0 -353 -78l-143 -813h-12l145 821q113 41 196 61.5t167 20.5q148 0 221 -57.5t73 -179.5q0 -58 -12 -129zM842 1212h12q-11 -66 -45.5 -108.5t-85.5 -42.5q-34 0 -60 23t-40 50.5t-37.5 50.5 t-53.5 23q-44 0 -76.5 -40t-41.5 -99h-13q11 66 46 109t85 43q28 0 49 -15t35.5 -37t28 -44t33.5 -37t45 -15q44 0 76 39.5t43 99.5z" />
<glyph unicode="&#xf2;" horiz-adv-x="1015" d="M473 -10q-176 0 -290.5 117.5t-114.5 295.5q0 103 33.5 194t93.5 159t150.5 107.5t197.5 39.5q177 0 291 -116t114 -293q0 -103 -33.5 -194.5t-93.5 -160.5t-150.5 -109t-197.5 -40zM473 2q139 0 245.5 67.5t162 178.5t55.5 246q0 171 -111.5 284t-281.5 113 q-208 0 -335.5 -140.5t-127.5 -347.5q0 -171 112 -286t281 -115zM608 1051h-12l-125 311h12z" />
<glyph unicode="&#xf3;" horiz-adv-x="1015" d="M473 -10q-176 0 -290.5 117.5t-114.5 295.5q0 103 33.5 194t93.5 159t150.5 107.5t197.5 39.5q177 0 291 -116t114 -293q0 -103 -33.5 -194.5t-93.5 -160.5t-150.5 -109t-197.5 -40zM473 2q139 0 245.5 67.5t162 178.5t55.5 246q0 171 -111.5 284t-281.5 113 q-208 0 -335.5 -140.5t-127.5 -347.5q0 -171 112 -286t281 -115zM606 1051h-14l229 311h15z" />
<glyph unicode="&#xf4;" horiz-adv-x="1015" d="M473 -10q-176 0 -290.5 117.5t-114.5 295.5q0 103 33.5 194t93.5 159t150.5 107.5t197.5 39.5q177 0 291 -116t114 -293q0 -103 -33.5 -194.5t-93.5 -160.5t-150.5 -109t-197.5 -40zM473 2q139 0 245.5 67.5t162 178.5t55.5 246q0 171 -111.5 284t-281.5 113 q-208 0 -335.5 -140.5t-127.5 -347.5q0 -171 112 -286t281 -115zM645 1325l152 -270h-13l-143 254l-235 -254h-15l250 270h4z" />
<glyph unicode="&#xf5;" horiz-adv-x="1015" d="M473 -10q-176 0 -290.5 117.5t-114.5 295.5q0 103 33.5 194t93.5 159t150.5 107.5t197.5 39.5q177 0 291 -116t114 -293q0 -103 -33.5 -194.5t-93.5 -160.5t-150.5 -109t-197.5 -40zM473 2q139 0 245.5 67.5t162 178.5t55.5 246q0 171 -111.5 284t-281.5 113 q-208 0 -335.5 -140.5t-127.5 -347.5q0 -171 112 -286t281 -115zM829 1212h13q-11 -66 -45.5 -108.5t-85.5 -42.5q-34 0 -60 23t-40 50.5t-37.5 50.5t-53.5 23q-44 0 -77 -40t-42 -99h-12q11 66 46 109t85 43q28 0 49 -15t35.5 -37t28 -44t33.5 -37t45 -15q44 0 75.5 39.5 t42.5 99.5z" />
<glyph unicode="&#xf6;" horiz-adv-x="1015" d="M473 -10q-176 0 -290.5 117.5t-114.5 295.5q0 103 33.5 194t93.5 159t150.5 107.5t197.5 39.5q177 0 291 -116t114 -293q0 -103 -33.5 -194.5t-93.5 -160.5t-150.5 -109t-197.5 -40zM473 2q139 0 245.5 67.5t162 178.5t55.5 246q0 171 -111.5 284t-281.5 113 q-208 0 -335.5 -140.5t-127.5 -347.5q0 -171 112 -286t281 -115zM481 1169q-20 0 -20 21q0 20 20 20q21 0 21 -20q0 -9 -6 -15t-15 -6zM768 1169q-20 0 -20 21q0 20 20 20t20 -20q0 -21 -20 -21z" />
<glyph unicode="&#xf7;" horiz-adv-x="843" d="M94 594l2 12h680l-2 -12h-680zM362 287q0 20 21 20q20 0 20 -20q0 -21 -20 -21q-9 0 -15 6t-6 15zM467 913q0 21 20 21q9 0 15 -6t6 -15q0 -20 -21 -20q-20 0 -20 20z" />
<glyph unicode="&#xf8;" horiz-adv-x="1015" d="M969 893l-123 -121q102 -111 102 -278q0 -103 -33.5 -194.5t-93.5 -160.5t-150.5 -109t-197.5 -40q-178 0 -295 123l-115 -113h-16l123 121q-102 111 -102 278q0 103 33.5 194.5t93.5 160.5t150.5 109t197.5 40q178 0 295 -123l114 113h17zM838 764l-652 -643 q116 -119 287 -119q139 0 245.5 67.5t162 178.5t55.5 246q0 158 -98 270zM178 129l651 643q-116 119 -286 119q-139 0 -245.5 -67.5t-162 -178.5t-55.5 -246q0 -158 98 -270z" />
<glyph unicode="&#xf9;" horiz-adv-x="954" d="M211 893h12l-96 -537q-12 -71 -12 -129q0 -225 309 -225q158 0 309 47l148 844h12l-150 -854q-158 -49 -319 -49q-155 0 -238.5 58.5t-83.5 178.5q0 52 13 129zM598 1051h-12l-125 311h12z" />
<glyph unicode="&#xfa;" horiz-adv-x="954" d="M211 893h12l-96 -537q-12 -71 -12 -129q0 -225 309 -225q158 0 309 47l148 844h12l-150 -854q-158 -49 -319 -49q-155 0 -238.5 58.5t-83.5 178.5q0 52 13 129zM596 1051h-14l229 311h14z" />
<glyph unicode="&#xfb;" horiz-adv-x="954" d="M211 893h12l-96 -537q-12 -71 -12 -129q0 -225 309 -225q158 0 309 47l148 844h12l-150 -854q-158 -49 -319 -49q-155 0 -238.5 58.5t-83.5 178.5q0 52 13 129zM635 1325l151 -270h-12l-143 254l-236 -254h-14l250 270h4z" />
<glyph unicode="&#xfc;" horiz-adv-x="954" d="M211 893h12l-96 -537q-12 -71 -12 -129q0 -225 309 -225q158 0 309 47l148 844h12l-150 -854q-158 -49 -319 -49q-155 0 -238.5 58.5t-83.5 178.5q0 52 13 129zM471 1169q-20 0 -20 21q0 20 20 20q21 0 21 -20q0 -9 -6 -15t-15 -6zM758 1169q-9 0 -15 6t-6 15q0 20 21 20 q20 0 20 -20q0 -21 -20 -21z" />
<glyph unicode="&#xfd;" horiz-adv-x="843" d="M127 893l192 -885l549 885h15l-783 -1262h-14l223 363l-194 899h12zM541 1051h-15l230 311h14z" />
<glyph unicode="&#xfe;" horiz-adv-x="1007" d="M6 -369l311 1762h13l-103 -580q157 90 314 90q180 0 289.5 -107.5t109.5 -295.5q0 -227 -134 -368.5t-366 -141.5q-99 0 -188.5 29t-151.5 69l-82 -457h-12zM225 799l-123 -699q59 -38 150.5 -68t187.5 -30q226 0 357 138.5t131 359.5q0 182 -107 286.5t-280 104.5 q-151 0 -316 -92z" />
<glyph unicode="&#xff;" horiz-adv-x="843" d="M127 893l192 -885l549 885h15l-783 -1262h-14l223 363l-194 899h12zM414 1169q-9 0 -15 6t-6 15q0 20 21 20q20 0 20 -20q0 -21 -20 -21zM700 1169q-20 0 -20 21q0 20 20 20q21 0 21 -20q0 -9 -6 -15t-15 -6z" />
<glyph unicode="&#x152;" horiz-adv-x="1652" d="M1683 1219l-2 -13h-632l-103 -577h608l-2 -13h-608l-106 -604h643l-2 -12h-817q-247 0 -404.5 147.5t-157.5 395.5q0 140 46 263.5t128.5 215t205 144.5t268.5 53h935zM825 12l211 1194h-288q-190 0 -336 -89t-222.5 -239t-76.5 -335q0 -161 71.5 -282.5t195.5 -185 t282 -63.5h163z" />
<glyph unicode="&#x153;" horiz-adv-x="1787" d="M1630 78v-15q-115 -73 -284 -73q-181 0 -290.5 102.5t-121.5 269.5q-38 -165 -160 -268.5t-301 -103.5q-176 0 -290.5 117.5t-114.5 295.5q0 103 33.5 194t93.5 159t150.5 107.5t197.5 39.5q166 0 278.5 -104.5t124.5 -268.5q38 165 158.5 269t290.5 104q93 0 161.5 -28 t106 -77.5t55 -107.5t17.5 -127q0 -57 -13 -90h-774q-4 -29 -4 -76q0 -174 109 -284.5t293 -110.5q78 0 154 20.5t130 55.5zM473 2q139 0 245.5 67.5t162 178.5t55.5 246q0 171 -111.5 284t-281.5 113q-208 0 -335.5 -140.5t-127.5 -347.5q0 -171 112 -286t281 -115z M950 485h764q8 27 8 78q0 67 -17 123t-53 103.5t-102 74.5t-155 27q-176 0 -297 -114.5t-148 -291.5z" />
<glyph unicode="&#x178;" horiz-adv-x="987" d="M498 514l569 705h16l-581 -721l-88 -498h-13l88 500l-331 719h14zM510 1362q-21 0 -21 20q0 9 6 15t15 6q20 0 20 -21q0 -20 -20 -20zM797 1362q-21 0 -21 20q0 9 6 15t15 6q20 0 20 -21q0 -20 -20 -20z" />
<glyph unicode="&#x2c6;" horiz-adv-x="1024" d="M563 1325l152 -270h-13l-143 254l-235 -254h-15l250 270h4z" />
<glyph unicode="&#x2dc;" horiz-adv-x="1024" d="M725 1212h12q-11 -66 -45.5 -108.5t-85.5 -42.5q-34 0 -60 23t-39.5 50.5t-37 50.5t-53.5 23q-44 0 -77 -40t-42 -99h-12q11 66 46 109t85 43q33 0 58.5 -23t39.5 -51t37.5 -51t54.5 -23q44 0 76 39.5t43 99.5z" />
<glyph unicode="&#x2000;" horiz-adv-x="796" />
<glyph unicode="&#x2001;" horiz-adv-x="1593" />
<glyph unicode="&#x2002;" horiz-adv-x="796" />
<glyph unicode="&#x2003;" horiz-adv-x="1593" />
<glyph unicode="&#x2004;" horiz-adv-x="531" />
<glyph unicode="&#x2005;" horiz-adv-x="398" />
<glyph unicode="&#x2006;" horiz-adv-x="265" />
<glyph unicode="&#x2007;" horiz-adv-x="265" />
<glyph unicode="&#x2008;" horiz-adv-x="199" />
<glyph unicode="&#x2009;" horiz-adv-x="318" />
<glyph unicode="&#x200a;" horiz-adv-x="88" />
<glyph unicode="&#x2010;" horiz-adv-x="727" d="M129 526l2 13h465l-2 -13h-465z" />
<glyph unicode="&#x2011;" horiz-adv-x="727" d="M129 526l2 13h465l-2 -13h-465z" />
<glyph unicode="&#x2012;" horiz-adv-x="727" d="M129 526l2 13h465l-2 -13h-465z" />
<glyph unicode="&#x2013;" horiz-adv-x="1171" d="M129 526l2 13h909l-2 -13h-909z" />
<glyph unicode="&#x2014;" horiz-adv-x="1949" d="M129 526l2 13h1688l-2 -13h-1688z" />
<glyph unicode="&#x2018;" horiz-adv-x="299" d="M240 1077h-13q10 82 49 138.5t109 103.5h21q-76 -51 -116 -105.5t-50 -136.5z" />
<glyph unicode="&#x2019;" horiz-adv-x="299" d="M346 1319h12q-10 -82 -48.5 -138.5t-108.5 -103.5h-21q76 51 116 105.5t50 136.5z" />
<glyph unicode="&#x201a;" horiz-adv-x="299" d="M98 47h13q-10 -82 -49 -138.5t-109 -103.5h-21q76 51 116 105.5t50 136.5z" />
<glyph unicode="&#x201c;" horiz-adv-x="454" d="M240 1077h-13q10 82 49 138.5t109 103.5h21q-76 -51 -116 -105.5t-50 -136.5zM395 1077h-12q10 82 49 138.5t109 103.5h20q-76 -51 -116 -105.5t-50 -136.5z" />
<glyph unicode="&#x201d;" horiz-adv-x="454" d="M502 1319h12q-10 -82 -49 -138.5t-109 -103.5h-20q76 51 116 105.5t50 136.5zM346 1319h12q-10 -82 -48.5 -138.5t-108.5 -103.5h-21q76 51 116 105.5t50 136.5z" />
<glyph unicode="&#x201e;" horiz-adv-x="454" d="M254 47h12q-10 -82 -48.5 -138.5t-108.5 -103.5h-21q76 51 116 105.5t50 136.5zM98 47h13q-10 -82 -49 -138.5t-109 -103.5h-21q76 51 116 105.5t50 136.5z" />
<glyph unicode="&#x2022;" horiz-adv-x="417" d="M154 532q0 28 18.5 47t46.5 19t47 -19t19 -47t-19 -46.5t-47 -18.5t-46.5 18.5t-18.5 46.5z" />
<glyph unicode="&#x2026;" horiz-adv-x="983" d="M72 20q0 21 20 21q9 0 15 -6t6 -15q0 -20 -21 -20q-20 0 -20 20zM399 20q0 9 6 15t15 6q20 0 20 -21q0 -20 -20 -20q-21 0 -21 20zM727 20q0 9 6 15t15 6q20 0 20 -21q0 -20 -20 -20q-21 0 -21 20z" />
<glyph unicode="&#x202f;" horiz-adv-x="318" />
<glyph unicode="&#x2039;" horiz-adv-x="430" d="M399 764l-309 -324l195 -323h-15l-196 323l309 324h16z" />
<glyph unicode="&#x203a;" horiz-adv-x="430" d="M29 117l309 323l-195 324h15l196 -324l-309 -323h-16z" />
<glyph unicode="&#x205f;" horiz-adv-x="398" />
<glyph unicode="&#x20ac;" horiz-adv-x="995" d="M1016 1087l-4 -14q-44 64 -121.5 104t-165.5 40q-193 0 -341 -148.5t-194 -384.5h465l-8 -12h-459q-11 -62 -14 -146h414l-10 -12h-404v-16q0 -230 108 -363t283 -133q161 0 303 109l-2 -17q-134 -104 -301 -104q-181 0 -292 136t-111 372v16h-142l5 12h137q3 84 14 146 h-133l4 12h131q46 242 197 393.5t350 151.5q90 0 167.5 -39.5t123.5 -102.5z" />
<glyph unicode="&#x2122;" horiz-adv-x="1124" d="M346 1206l-84 -475h-12l84 475h-189l2 13h392l-2 -13h-191zM760 725h-12l-95 483l-176 -477h-12l182 494h15l94 -484l266 484h14l6 -494h-12l-4 477z" />
<glyph unicode="&#xe000;" horiz-adv-x="890" d="M0 891h891v-891h-891v891z" />
</font>
</defs>
</svg>
